<?xml version="1.0" encoding="UTF-8"?>
<!DOCTYPE svg PUBLIC "-//W3C//DTD SVG 1.1//EN" "http://www.w3.org/Graphics/SVG/1.1/DTD/svg11.dtd">
<!-- Creator: CorelDRAW (Versión de evaluación) -->
<svg xmlns="http://www.w3.org/2000/svg" xml:space="preserve" width="135mm" height="285mm" version="1.1" style="shape-rendering:geometricPrecision; text-rendering:geometricPrecision; image-rendering:optimizeQuality; fill-rule:evenodd; clip-rule:evenodd"
viewBox="0 0 13500 28500"
 xmlns:xlink="http://www.w3.org/1999/xlink"
 xmlns:xodm="http://www.corel.com/coreldraw/odm/2003">
 <defs>
  <style type="text/css">
   <![CDATA[
    .fil1 {fill:black}
    .fil0 {fill:white}
   ]]>
  </style>
 </defs>
 <g id="Capa_x0020_1">
  <metadata id="CorelCorpID_0Corel-Layer"/>
  <g id="_1912495882240">
   <path class="fil0" d="M7822.44 27245.4c28.91,-60.95 158.99,-152.59 238,-170.3 -14.53,104.83 -93.04,162.13 -12.6,257.83 86.72,103.18 86.99,56.98 102.71,228.03 220.58,-2.18 147.81,-88.84 230.68,-211.05 26.41,57.56 23.33,157.81 20.45,230.36 -4.97,125.13 -18.96,96.52 -100.91,143.57 -8.38,122.46 9.31,120.47 119.44,125.53l-5.14 117.45c40.37,15.3 123.09,23.31 157.91,52.51 -99.87,70.4 -203.89,-32.33 -251.02,-82.84l-294.83 -319.34c-41.86,-66.97 -15.69,-77.64 -31.57,-159.3 -21.91,-112.71 -123.43,-99.12 -173.12,-212.45zm773.07 1017.68l-126.48 0c-153.98,-143.71 -384.62,-226.44 -525.11,-387.09 -72.83,-83.27 -96.93,-220.17 -161.01,-295.36 -49.9,-58.54 -222.94,-94.8 -302.88,-153.38 -211.81,-155.2 -181.38,-384.15 -339.17,-573.25 -96.28,-115.37 -153.71,-94.86 -269.41,-186.97 -86.63,-68.94 -178.97,-134.02 -253.89,-202.08 -91.75,-83.33 -183.1,-93.44 -270.38,-185.8 -583.02,-616.93 133.09,-1267.84 213.32,-1644.01 51.33,-240.62 93.76,-584.93 61.17,-841.94 -35.28,-278.25 -84,-547.36 -54.9,-836.43 23.82,-236.56 63.66,-569.6 122.01,-789.64 39.81,-150.13 82.76,-230.52 2.51,-373.27 -37.31,-66.41 -48.22,-76.86 -74.78,-152.53 -35.91,-102.34 -24.27,-71.45 -112.21,-116.51 -135.57,-69.45 -63.97,-264.55 -208.12,-476.48 -44.23,-65.03 -76.11,-44.28 -136.28,-91.69 -101.47,-79.89 -75.16,-235.83 -79.69,-380.2 -5.37,-171.29 -134.47,-94.04 -123.57,-331.85 4.66,-101.33 145.86,-633.75 185.44,-730.01 82.3,-200.19 210.42,-425.7 306.12,-606.42 86.77,-163.91 148.73,-508.17 199.81,-713.64 122.39,-492.33 288.58,-911.52 395.83,-1431.03 53.63,-259.78 52.32,-534.48 108.75,-800.66 55.21,-260.37 169.05,-484.82 130.89,-762.2 -25.99,-188.92 -58.52,-634.95 -149.09,-762.88 -61.54,-86.91 -89.91,-30.82 -202.59,-254.24 -139.92,-277.42 74.77,-202.18 -324.31,-587.57 -122.08,-117.88 -99.07,-127.53 -138.67,-317.66 -34.56,-165.96 -211.9,-487.39 -291.87,-620.32 -125,-207.76 -210.18,-443.71 -95.67,-714.92 69.05,-163.55 -29.89,-571.19 -2.93,-811.41 53.25,-474.69 428.72,-478.16 630.58,-737.21 68.07,-87.37 12.67,-99.42 -78.95,-294.72 -202.56,-431.81 -457.15,-804.11 -724.9,-1100.41 -71.15,-78.72 -153.29,-150.83 -219.98,-236.13 -70.83,-90.6 -117.97,-182.61 -179.74,-276.63l-352.64 -569.95c-35.5,26.36 -137.12,205.4 -176.54,254.8l-405.79 471.87c-117.29,133.24 -91.76,120.87 -135.05,320.26 -96.72,445.54 -250.78,932.37 -436.56,1335.95 -288.53,626.83 -826.5,1119.91 -915.64,1295.61 -52.21,102.89 -83.74,217.88 -143.16,312.94 -103.07,164.89 -298.12,335.09 -354.42,545.84 68.97,109.1 55.3,29.45 34.16,161.53 -58.39,364.6 -35.65,243.73 -140.35,624.56 -58.02,211.02 359.9,328.77 408.7,585.22 33.81,177.7 -22.83,277.48 51.23,455.74 208.79,502.46 209.41,731.79 -111.34,1164.55 -199.89,269.68 -271.67,661.72 -885.76,615.29 -191.85,-14.5 -237.08,-74.13 -386.7,-115.86 -316.23,-88.16 -355.91,-133.77 -648.62,-368.12 -378.84,-303.29 -313.95,-366.09 -431.11,-576 -1.73,-3.1 -5.01,-8.63 -7.92,-12.66l0 -93.25c32.9,-64.54 87.65,-439.83 116.25,-552.29l324.52 -1044.38c41.04,-85.7 35.37,-46.59 77.94,-97.3 2.39,-2.82 6.04,-6.49 8.15,-9.59l98.17 -392.98c70.21,-269.12 -3.84,-448.94 356.87,-644.31 138.34,-74.93 130.16,-6.68 178.62,-171.16l163.36 -521.76c55.48,-165.22 105.91,-357.03 156.93,-527.18 54.16,-180.58 66.31,-345.77 131.81,-535.75 60.69,-176.01 130.48,-327.2 191.7,-491.01 105.85,-283.25 200.29,-699.55 333.94,-1034.84 147.57,-370.25 331.14,-388.58 329.77,-663.89 -2.53,-508.11 62.8,-1008.01 342.18,-1384.16 277.02,-372.99 143.18,-130.76 163.48,-494.82 18.42,-330.3 487.31,-1124.72 694.22,-1367 109.64,-128.37 206.68,-210.84 352.05,-315.02 617.05,-442.34 440.41,-191.54 745.7,-272.49 50.8,-13.48 171.32,-93.26 229.21,-120.86 715.19,-340.79 1153.89,-119.83 1256.16,-782.15 37.63,-243.67 -58.52,-318.84 -91.72,-564.12 -46.43,-342.95 -122.42,-930.89 -93.33,-1263.47 21.06,-240.89 461.99,-840.75 633.47,-1072.58 50.17,-67.83 83.46,-155.99 184.2,-172.41l40.14 104.26c127.35,-20.72 66.39,-153.09 286.99,-87.15 120.78,36.1 268.34,46.24 381.08,-4.63 257.2,-116.01 101.05,75.61 278.2,-18.56 66.89,-35.56 187.86,-140.36 229.23,-204.28l33.6 0c73.28,150.24 -38.39,31.49 55.69,269.45 27.21,68.82 -3.23,126.17 232.83,134.01 427.7,14.22 813.23,-85.6 678.4,78.99l-204.31 214.53c29.32,41.28 25.46,11.25 72.18,94.41 53.25,94.79 22.55,20.05 82.61,85.94 -15.85,101.05 -64.26,149.7 -61.91,260.17 298.16,206.58 50.32,116.91 437.35,596.33 47.13,58.39 68.43,90.18 110.12,135.28 161.47,174.66 182.62,272.89 276.1,514.22 45.62,117.75 96.52,232.83 153.72,354.49 54.64,116.19 128.52,229.01 169.38,356.97 89.67,280.87 320.26,849.13 515.57,1046.13 94.81,95.66 179.36,149.16 290.68,235.59 95.64,74.26 174.91,163.22 262.84,245.95 212.54,199.94 606.16,583.34 742.52,819.31 59.93,103.68 121.84,239.23 176.81,350.21 53.75,108.51 87.17,298.39 141.4,390.03l0 301.67c-2.3,4.64 -4.36,10.7 -5.5,14.52 -1.14,3.88 -3.79,9.94 -5.05,14.83 -27.03,104.48 10.28,-76.8 -7.32,31.63 -22.45,138.16 34.49,235.57 -35.13,350.42 -74.18,122.34 -98.98,150.05 -241.85,214.31 -292.12,131.38 -460.11,43.99 -723.05,-38.14 -106.37,-33.21 -240.29,-76.41 -329.98,-126.12 -110.57,-61.24 -157.55,-107.88 -276.13,-162.29 -208.78,-95.77 -378.57,-205.75 -529.85,-359.23 -98.2,35.99 -256.05,241.29 -315.29,354.25 -99.55,189.8 -81.26,333.24 -32.11,549.18 90.68,398.36 127.63,696.06 213.96,1102.36 152.79,84.24 64.42,-20.4 233.51,186.72 536.62,657.29 840.26,1154.29 241.33,1941.55 -233.08,306.38 -279.83,284.63 -255.36,549.54 17.36,188.06 132.37,546.46 92.21,690.85 -118.33,425.42 36.87,630.78 103.73,1022.34 20.16,118.16 84.87,176.6 134.93,269.42 149.43,277.01 79.07,341.76 38.44,649.94 -32.04,242.9 -75.01,464.91 -105.37,708.8 -79.31,637.32 -199.84,776.25 -339.43,1271.45 -92.04,326.42 -165.71,1015.1 -384,1229.06 -166.4,163.12 -209.07,348.68 -242,567.57 -59.58,395.95 -203.76,909.6 -395.37,1234.3 -107.75,182.56 -150.48,376.73 -202.41,603.2 -135.82,592.34 -349.87,798.66 -491.89,1123.77 -59.65,136.55 -144.42,459.37 -188.6,619.08 -59.81,216.14 -80.87,459.9 -122.1,687.94 -181.81,1005.57 -533.23,1280.12 -635.52,1800.06 -37.27,189.46 -81.41,546.03 -67.86,734.75 18.78,261.28 69.13,462.53 92.88,704.62 24.25,247.32 27.01,481.03 102.07,709.44 76.45,232.64 113.87,207.66 233.74,573.03 30.52,93 82.33,196.61 118.03,285.35l159.14 656.6c2.64,207.12 -46.38,163.62 76.84,318.57 56.63,71.21 134.14,142.53 125.97,277.3 -9.81,161.85 -82.5,161.36 -172.82,229.45zm-1660.29 -1868.81c-242.48,-46.36 -767.79,-387.21 -538.75,-691.48 79,355.55 -27.7,318.32 168.52,323.61 101.72,195.39 269.16,228.81 370.23,367.87zm-24.44 -693.16c-28.15,-18.12 -152.6,-156.59 -166.11,-188.21 -66.66,-156.01 210.13,-571.25 303.04,-703.45 31.77,45.92 16.09,138.51 -4.09,203.18 -28.18,90.28 -100.06,64.35 -28.26,179.84l-26.37 12.13c-51.79,24.97 -64.81,14.43 -68.87,105.44 -61.75,-26.04 -18.97,-28.76 -97.35,-26.47 -18.96,214.66 78.17,244.81 88.01,417.54zm887.55 -3771.69c15.21,232.69 -96.67,585.45 -103.69,804.09 105.23,-35.42 131.39,-138.51 214.57,-194.95 -14.92,59.55 -114.02,332.26 -140.32,374.54 -81.5,130.98 -173.7,50.9 -213.23,276.95 -26.4,150.89 -16.61,316.71 -41.73,470.03 -7.91,48.26 -66.17,382.34 -74.59,405.49 -65.02,-228.45 -26.43,-698.13 19.1,-937.74 27.45,-144.44 53.52,-274.77 120.94,-386.72 123.76,-205.49 46.3,-191.99 68.51,-424.97 -70.81,30.02 -9.94,18.9 -83.81,59.13l-267.74 108.76 501.99 -554.61zm1012.38 -3404.54c-0.48,-314.72 207.65,-418.61 514.11,-538.56 -238.27,264.47 -82,-48.98 -358.86,474.03 -82.46,155.78 46.54,230.75 -21.6,328.2 -62.03,88.71 -48.22,41.05 -31.95,166.99 9.8,75.94 -16.14,98.32 -28.21,165.99 132.13,-29.16 231.81,-153.17 314.17,-171.76 -130.7,343.2 -66.2,134.62 -274.57,275.68 -303.17,205.24 -175.67,113.07 -310.07,527.53 2.2,-113.21 24.35,-242.77 45.88,-352.86 40.05,-204.76 41.1,-145.15 12.86,-348.85 49.47,-96.24 134.17,-119.7 166.92,-207.11 32.5,-86.74 -28.51,-203.3 -28.68,-319.28zm-1908.26 -153.93c17.47,-84.66 46.1,-103.63 52.14,-197.18 25.4,-394.09 -15.86,-176.99 100.92,-395.14l129.39 -610.85c12.83,-134.48 31.36,-287.35 83.59,-394.18 13.33,134.64 3.55,618.38 -51.27,728.96 -61.6,124.23 -14.06,76.85 5.26,199.46 -90.48,66.29 -167.07,161.63 -145.91,337.66 94.87,25.53 143.47,6.9 234.29,1.11 85.24,-5.45 153.69,-10.04 213.19,27.88 -67.41,48.03 -238.39,87.84 -329.08,129.87 -175.57,81.38 -216.13,136.99 -292.52,172.41zm1130.97 18.55c64.63,44.59 21.74,54.25 102.17,62.92 50.02,-143.55 0.68,-71.24 102.6,-157.88 63.67,-54.14 63.78,-101.32 55.54,-208.38 -10.11,-131.21 17.95,-132.73 24.79,-244.84 5.62,-92.11 -10.73,-157.32 2.68,-257.83 49.86,-373.58 -66.66,-538.95 -95.46,-884.06 68.13,29.15 72.42,82.69 94.37,166.52 155.57,594.5 277.4,894.62 68.76,1526.7 -87.35,264.63 -191.22,497.9 -273.78,777.89 -162.04,549.54 -82.04,568.43 -132.26,903.52 -20.97,139.93 -63.79,295.73 -89.39,437.02 -55.72,307.43 -6.47,419.35 -268.02,784.72 -182.98,255.61 -68.08,188.38 -330.38,442.08 -55.45,53.62 -75.24,84.61 -181.42,53.56 -179.72,-52.53 -200.71,-109.13 -298.85,-208.61 -48.29,-48.95 -89.65,-77.14 -126.38,-136.95 -37.76,-61.46 -49.01,-117.76 -94.17,-168.94 -184.91,-209.6 -112.82,-49.53 -129.93,-383.31 -47.33,-48.96 -67.03,-47.35 -108.41,-80.4 -245.47,-196.13 -68.05,-220.01 -119.68,-422.71 -28.62,-112.42 -84.14,-182.84 -33.05,-324.14 32.41,-89.6 104.56,-146.67 134.05,-214.86 0.11,148.45 -101.3,297.95 -74.57,479.24 98.73,-12.37 7.52,-42.16 66.52,-16.15 -9.05,147.9 97.94,397.98 196.61,439.48 54.13,-115.47 124.26,-359.29 205.08,-436.79 -21.5,372.2 -231.88,396.42 -101.38,590.9 49.54,73.82 34.14,139.57 73.74,196.88l77.03 -102.64c-13.6,116.56 -0.77,218.01 69,282.75 27.37,25.38 165.99,141.29 180.94,150.08 111.56,-36.54 122.66,-140.31 118.56,-278.17 -4.82,-162.62 29.78,-212.76 45.39,-361.87 20.99,-200.48 44.37,-532.96 133.51,-677.59 -5.28,104.47 -31.69,233.83 -43.41,342.96 -12.74,118.64 -4.4,237.44 -16.2,354.32 -32.72,324.06 -62.36,304.57 24.86,623.69 57.79,-73.41 51.39,-38.38 98.03,-148.75 25.72,-60.88 41.18,-104.78 67.65,-160.35 116.66,-244.94 203.03,-171.42 214.92,-727.2 3.87,-181.11 40.9,-257.79 65.67,-410.38 42.83,-264.05 1.05,-176.57 96.27,-380.9 43.53,-93.41 53.91,-300.34 61.6,-418.3 8.69,-133.37 55.75,-252.25 82.37,-383.05 27.01,-132.8 27.14,-303.84 54.03,-420.18zm753.18 -1752.91c-8.27,-164.54 -50.5,-82.7 29.15,-256.41 33.86,-73.87 54.05,-155.9 28.03,-247.29 -96.89,-340.3 193.58,-494.71 450.04,-730.85 64.14,-59.05 250.88,-244.58 316.7,-278.02 -72.97,251.46 -322.61,436.65 -454.16,613.94 -79.66,107.35 -114.81,277.73 -56.47,418.69 108.46,262.04 -43.13,204.61 -95.82,367.95l91.44 58.35c105.15,83.79 174.31,23.44 305.3,80.85 93.77,41.1 169.62,193.64 326.15,171.09l10.21 -148.59c24.62,-110.55 215.44,-34.19 286.77,-0.88 2.83,1.33 10.07,10.75 12.11,7.1 2.04,-3.71 8.44,4.41 11.97,7.55 -25.17,95.66 -46.62,231.12 -78.31,324.91 -34.01,100.67 -61.62,61.28 -91.66,121.53 -29.77,59.72 1.49,85.03 -39.79,149.57 -85.15,-252.27 -271.07,-307.41 -438.87,-473.76 -121.32,-120.25 -131.81,-112.01 -304.62,-56.94 -215.8,68.79 -197.61,6.01 -345.07,-49.47 -23.8,43.83 -1.26,-18.69 -0.37,26.5 0.77,38.67 15.62,-7.99 0.34,16.67l-140.95 9.71c37.6,-89.27 85.95,-100.53 177.88,-132.2zm-7972.79 -1496.56c163.7,4.39 346.15,-23.9 463.27,-104.63 145.9,-100.54 228.53,-111.38 188.34,-367.35 -48.71,-310.2 -237.81,-600.61 -124.19,-934.43 47.64,29.55 65.59,55.17 84.63,147.3 14.56,70.44 -0.48,135.77 26.66,184.16 82.71,83.92 256.03,-232.37 470.3,-277.71 -47.11,127.63 -163.6,219.32 -234.98,315.83 26.01,85.95 69.47,72.02 0.69,149.06 -161.82,181.22 -53.42,163.4 -6.87,302.36 21.42,63.95 1.25,122.62 29.76,199.62 39.33,106.23 173.97,179.83 82.7,323.91 -54.97,86.78 -183.75,155.27 -211.11,264.47 76.4,-14.95 101.58,-38.05 176.52,-54.59 173.49,-38.27 360.85,-45.06 504.94,-73.54 -8.36,-298.83 -83,-234.83 -89.81,-341.42 -4.13,-64.79 42.07,-97.34 57.47,-147.69 19.33,-63.23 -10.89,-111.9 -18.49,-177.22 108.94,33.62 74.55,64.86 131.67,142.49 77.76,-24.19 194.02,-150.94 243.44,-198.66 -10.19,-344.94 -119.58,-222.84 -54.37,-425.13 8.54,-26.45 12.24,-42.95 20.01,-68.82l21.43 -57.92c37.53,110.45 206.97,517.69 193.11,618.31 -9.95,72.3 -49.58,89.66 -74.96,139.09 -25.86,50.31 -24.72,93.89 -49.73,143.4 -46.12,91.38 -132.49,128.45 -158.21,250.06 111.5,-17.74 177.46,-156.04 344.64,-193.7 -23.59,110.21 -73.1,142.85 -122.81,217.72 -44.21,66.57 -18.35,80.41 -42.9,133.47 -33.64,72.75 -43.74,15.69 -96.07,82.98 -13.53,78.37 6.12,150 -30.58,212.9 -69.23,22.03 -131.96,7.92 -207.91,36.47 -427.42,160.72 -394.4,4.5 -593.42,20.16 8.49,89.55 138.75,136.72 184.6,198.57 -122.77,6.04 -288.37,-23.25 -366.43,-81.87 -99.04,-74.37 -182.87,-98.59 -282.13,-156.01 -70.69,-40.87 -235.33,-110.32 -287.52,-151.16 -54.86,-42.91 -154.21,-179.41 -171.69,-270.48zm633.35 -2647.3c27.87,-43.68 6.55,-17.09 45.03,-50.36 17.18,-14.85 24.84,-18.22 40.5,-29.44 42.65,-30.51 56.77,-45.88 99.72,-53.79 203.24,-37.43 72.5,22.9 222.34,-81.82 95.76,-66.92 307.52,96.5 403.1,138.8 5.55,145.72 4.44,430.81 -21.1,561.63 59.72,-21.94 89.82,-68.73 152.04,-77.47 -19.82,49.03 -51.24,80.14 -80.48,130.92 -66.9,116.16 -23.62,42.41 -103.34,107.12 -77.24,62.7 -69.75,171.04 -245.01,174.7 -93.57,1.95 -103.22,-19.5 -200.41,11.21 -163.41,51.63 -283.91,59.34 -454.3,73.21 -119.48,9.74 -49.99,12.92 -85.42,-17.04 219.76,-104.03 547.18,-73.99 760.32,-186.08 183.08,-96.3 114.14,-245.54 133.58,-335.84 8.69,-40.39 82.45,-108.35 69.47,-384.9 -105.75,-65.91 -223,-90.08 -355.91,-45.19 -88.31,29.84 -121.53,5.07 -207.42,22.28 -56.84,11.4 -99.66,33.39 -172.71,42.06zm7346.24 1796.4c87.67,149.72 -2.29,478.43 97.17,641.14l17.05 22.09 31.26 -64.92c58.52,-238.21 -46.96,-89.14 171.62,-388.33 91.42,-125.1 145.61,-290.18 229.57,-419.96 91.78,-141.85 297.61,-447.57 359.07,-605.23 48.29,-123.87 1.63,-183.41 15.92,-298.98 32.58,-263.66 170.73,-357.7 213.84,-436.76 49.25,-90.32 35.44,-174.27 61.32,-276.47 29.53,-116.56 58.74,-85.98 62.11,-252.96 5.23,-260.86 -23.02,-349.69 -68.75,-589.67 -30.41,-159.54 -106.1,-355.2 -110.77,-517.18 50.84,89.29 162.72,655.1 301.82,853.67 90.96,-41.47 132.84,-111.41 176.71,-179.69 7.04,-10.94 14.34,-22.51 23.55,-33.79 28,-34.4 0.53,-6.56 33.24,-32.72 -27.99,419.65 -217.22,968.97 -331.39,1351.71 -244.5,819.66 -731.02,1102.3 -1161.43,2155.24 -78,190.84 -140.2,416.47 -214.48,610.1l-221.74 603.8c-11.83,-106.93 70.02,-370.69 84.9,-516.13 23.72,-231.91 61.74,-295.91 135.91,-492.27 84.71,-224.28 19.4,-345.49 56.61,-573.64 50.13,-307.32 0.99,-397.78 36.89,-559.05zm-359.53 -3567.29c111.71,-52.56 164.38,-118.07 323.27,-101.68 -53.9,38.84 -61.05,80.38 -196.7,135.37 -381.8,154.79 -296.38,227.01 -475.27,577.71 -182.56,357.9 -194.21,485.22 -231.62,821.21 -15.91,142.96 -65.6,154.82 -88.82,243.16l257.68 14.41c-13.37,86.74 -261.69,189.23 -286.46,376.59 -19.99,151.14 -21.51,155.6 -64.62,288.1 -49.53,152.22 -135.21,764.22 -131.92,887 3.54,131.45 -50.59,133.3 -31.14,290.98 18.74,152.02 -10.84,166.79 -19.61,291.01l112.5 -32c-105.84,110.3 -82.65,271.69 -140.64,457.95l-22.51 53.43c-1.04,-2.63 -4.42,8.77 -7.18,12.8 -4.26,-451.27 -30.81,-872.71 -1.47,-1322.74 25.66,-393.65 181.77,-827.29 130.56,-1233.08 -47.92,-379.71 90,-858.16 255.04,-1120.79 30.49,-48.54 484.53,-638.72 542.06,-671.25 63.49,-35.87 15,-15.51 40.27,-0.59l36.58 32.41zm-814.19 -510.99c94.75,-23.54 182.01,-110.41 247.76,-165.63 95.92,-80.57 140.01,-148.55 213.71,-186.34 -36.82,198.98 -78.26,331.2 -100.53,563.42 -18.65,194.49 -19.85,423.43 -41.37,617.18l-278.73 90.14c29.36,-99.85 94.73,-215.73 141.34,-307.57 -2.82,-1.97 -8.35,-1.9 -10.1,-2.22l-31.75 -5.12c-2.77,-0.49 -8.77,-1.18 -11.33,-1.64l-34.3 -8.56c-6.25,-158.6 43.35,-215.92 -17.45,-368.48 -615.15,-58.91 -908.33,1125.33 -1210.7,1408.87 -2.97,-3.67 -6.23,-9.01 -7.85,-11.77l-20.24 -36.19c-85.92,-183.59 -124.93,-213.81 -77.5,-325.07 97.08,-227.71 -1,-304.93 -25.57,-397.71 22.67,19.12 151.07,262.35 236.78,327.06 32.95,-116.68 48.7,-169.06 106.92,-261.67 106.17,-168.96 -55.06,-112.59 4.36,-256.46l249.49 -487.5c-5.18,45.08 -16.52,108.54 7.37,145.3 101.31,-78.41 48.2,-142.75 193.86,-175.39 161.46,-36.19 85.87,-69.81 200.72,-148.9 78.03,-53.75 150.82,-85.21 229.76,-139.07 71.53,-48.8 122.96,-116.84 205.53,-149.57 -49.21,91.38 -156.26,159.44 -170.18,282.89zm-3744.11 -603.4c10.74,45.93 22.12,73.99 38.99,119.58 91.17,246.43 -114.54,397.53 -245.21,611.5 -141.53,231.74 -336.72,461.24 -561.04,632.58 72.12,-125.27 141.63,-227.27 228.15,-351.02 192.01,-274.68 192.47,-411.42 481.87,-676.33 164.55,-150.63 -9.25,-162.94 21.34,-458.84 25.13,43.13 22.35,64.46 35.9,122.53zm6759.21 874.23c21.93,-255.52 193.21,-634.44 50.29,-875.17 -39.69,-66.86 -84.17,-82.41 -130.28,-133.5 -46.85,-51.9 -57.78,-107.9 -103.08,-160.13 -202.53,-233.51 -611.87,18.5 -774.42,85.34 -150.68,61.95 -222.48,72.07 -278.41,230.87 -23.42,66.44 -32.72,146.77 -62.55,200.34 -34.57,62.09 -86.86,93.44 -117.6,146.82 -61.21,106.27 -52.55,294.62 -98.96,407.07 -1.52,-342.53 165.5,-645.23 293.17,-898.58 165.24,-327.9 512.97,-293.95 781.04,-417.32 -29.68,-103.02 -92.55,-67.32 -177.44,-122.82 113.03,-72.43 250.69,10.38 312.34,44.4 47.46,-36.89 81.8,-89.43 125.18,-115.51 84.9,522.36 28.23,374.44 213.89,468.47 79.58,40.3 45.67,61.98 117.13,94.6 50.1,-41.53 40.71,-57.81 89.46,-90.47 23.58,118.72 64.95,193.36 85.21,302.27 18.03,96.78 30.62,229.41 31.17,330.78 -43.36,-22.7 -51.86,-55.4 -76.32,-93.66 -35.33,-55.23 -37.98,-69.77 -94.43,-78.75 -67.83,83.21 -44.28,326.28 -185.39,674.95zm-7732.98 -1568.71c28.36,-91.13 171.3,-265.96 231.84,-317.08 -88.95,311.01 72.2,245.14 -53.35,400.01 -52.83,65.13 -41.45,85.86 -80.28,165.16 -42.72,87.26 -69.89,88.25 -106.2,140.63 -43.66,62.99 -31.13,332.72 -51.59,438.3 -77.17,398.27 -69.3,313.77 -43.42,692.51 -86.74,17.76 -95.02,17.97 -138.4,73.46l-34.35 45.01 -156.26 -3.14c-87.03,111.63 -70.82,341.54 -129.51,495.71l-232.56 351.01c-2.44,3.1 -7.35,8.17 -9.42,10.66l-20.83 20.84c10.92,-168.52 131.08,-381.93 189.7,-541.63 35.15,-95.76 73.95,-161.06 107.94,-242.42 51.69,-123.69 32.68,-175.2 54.33,-295.62 88.1,36.3 72.51,107.97 209.23,84.61 25.14,-143.27 4.09,-304.1 23.1,-449.92 17.68,-135.61 68.67,-233.75 90.04,-384.26 21.4,-150.73 10.14,-287.74 97.55,-376.33 59.18,-60 87.29,-40.27 121.71,-123.62 21.09,-51.07 50.8,-124.57 60.48,-178.4l-129.75 -5.49zm3702.25 -79.7c27.33,7.98 210.32,287.03 266.83,341.03 42.12,40.24 83.78,48.51 110.63,98.67 81.54,152.35 9.45,144.06 243.29,177.61 131.52,18.87 250.02,14.25 379.34,27.48 -111.92,83.47 -378.42,164.07 -557.11,152.19 -249.66,-16.58 -426.06,-356.12 -535.74,-552.89 -44.99,-80.7 -91.16,-151.14 -128.92,-221.82 -41.26,-77.24 -77.67,-182.05 -125.53,-243.19 -59.26,-75.71 -125.14,-112.82 -172.86,-179.78 84.52,26.6 137.22,94.61 224.92,88.97l8.24 -222.7c63.82,12.28 219.27,164.92 284.07,214.84 90.02,69.34 195.93,117.65 300.86,178.69 -180.05,-14.44 -263.57,-82.47 -406.19,-110.33 9.18,53.04 70.04,381.45 78.08,397.3 26.53,-45.79 20.28,-82.64 30.09,-146.07zm2548.88 -1208.68c101.81,-6.56 109.45,3.57 168.12,-53.38 -4.57,-100.97 -59.21,-145.48 -72.77,-230.69l150.63 237.72c84.38,-23.54 58.11,-62.6 168.19,-66.2 -248.31,168.73 -61.47,259.89 -38.75,368.74 53.29,255.34 11.94,135.3 210.47,111.96l-31.9 29.29c-171.06,140.68 -147.09,107.62 -70.16,283.6 23.48,53.74 19.05,116.16 33.6,175.15 74.53,-0.01 112.86,-40.19 190.38,-63.46 -12.02,172.19 -46.06,183.12 -210.16,198.27 -409.12,37.76 -540.65,321.38 -801.49,416.88 19.1,-56.26 127.79,-195.77 162.13,-229.91 49.69,-49.41 155.06,-98.16 232.2,-135.82 212.71,-103.81 315.6,-186.97 187.41,-454.44 -135.38,-8.83 -178.19,44.94 -277.86,44.26 -107.34,-0.72 -2.87,-34.71 -287.93,-43.44 73.84,-66.79 151.89,-59.62 246.91,-52.62 66.32,4.88 188.37,18.42 238.57,-18.94 130.46,-97.02 13.98,-358.4 -34.62,-428.26 -247.12,-10.57 -305.79,229.3 -527.52,104.91 -44.72,-25.06 -120.52,-43.53 -153.25,-66.75 139.74,-83.15 260.85,48.68 363.9,-49.36 62.3,-59.28 15.79,-68.59 153.9,-77.51zm-5306.55 1225.72c30.7,-40.17 30.1,-48.41 75.96,-100.59 191.27,-217.6 502.82,-507.16 527.1,-823.82 16.75,-218.57 186.48,-319.36 197.43,-577.21 8.12,-191.25 -36.28,-568.11 32.09,-727.8 77.11,119.35 18.91,710.39 13.01,887.02 82.36,-38.54 479.55,-577.02 564.34,-649.57 -19.38,105.81 -111.16,277.92 -157.37,382.47 -49.4,111.8 -150.17,232.51 -226.05,318.43 -225.68,255.56 -236.84,142.09 -278.08,264.7 -40.19,119.48 -10.52,102.65 -81.7,200.34 -41.59,57.06 -69.93,96.8 -90.12,169.32l286.32 -158.83c-59.4,84.78 -121.34,143.17 -176.24,255.02 -66.43,135.34 -133.95,77.72 -240.89,180.71 -80.76,77.76 -355.97,350.86 -445.8,379.81zm5528.92 -1908.93c127.15,50.99 112.2,10.22 231.3,39.35 87.69,21.45 84.9,80.38 162.71,88.24 117.29,11.84 192.33,-179.04 280.43,-231.32 -20.12,52.18 -60.5,137.62 -89.85,176.41 -52.35,69.21 -65.67,67.39 -55.36,175.16 11.33,118.42 71.08,83.16 145.08,368.72 81.43,314.15 151.24,503.58 132.26,874.34 -35.65,-140.75 -72.27,-399.54 -118.17,-520.03 -48.56,-127.54 -73.29,-64.82 -105.19,-228.82 -27.2,-139.77 -78.46,-98.92 -126.8,-195.19 14.69,-15.18 9.46,-8.97 31.46,-26.14l57.43 -44.03c-82.26,-131.14 -70.49,35.29 -182.92,-249.21 -149.54,-31.02 -325.39,-89.57 -362.38,-227.48zm-3713.61 5.68c173.33,96.72 190.09,-66.32 294.02,-122.62 -115.25,241.12 -255.12,215.97 -189.48,649.73 46.9,309.89 197.23,169.91 406.56,505.79 -126.02,-31.11 -445.81,-163.91 -474.18,-299.73l-36.92 -733.17zm6528.52 -55.38c-13.13,-134.63 -217.97,-319.36 -310.77,-448.45 91.43,56.91 191.65,116.45 245.55,213.9 59.43,107.42 97.92,204.47 204.16,253.6 197.58,-43.26 160.98,-141.72 178.19,-340.04 70,131.76 65.17,429.38 -33.26,536.11 -52.57,6.55 -88.81,2.23 -139.61,16.85 -95.95,27.61 -110.13,106.76 -328.8,-14.19 -131.02,-72.47 -279.45,-114.71 -409.59,-182.68 76.47,-38.93 423.24,82.27 461.48,46.48 2.05,-1.92 6.77,-7.02 9.35,-9.29l123.3 -72.29zm-3215.83 0c-6.85,-94.58 -117.36,-239.56 -161.75,-343.6 -92.68,-217.17 -25.55,-256.85 -72.07,-437.76 -39.09,-152.05 -174.9,-222.98 -178.18,-318.51 -5.16,-150.42 -89.21,-221.69 -166.51,-318.54 -124.55,-155.99 -139.45,-106.41 -331.16,-177.83l-1049.17 -472c232.48,7.97 615.05,165.52 810.3,236.51 143.23,52.07 214.77,123.8 366.23,159.68 219.77,52.09 194.78,105.32 324.13,191.8 33.25,-117.18 3.49,-147.83 138.96,-174.83 315.03,-62.8 420.92,-184.56 764.22,-168.83 -58.33,64.48 -200.64,66.28 -300,105.64 -450.02,178.29 -408.93,73.6 -477.96,329.41 -21.8,80.81 83.04,159.8 131.46,242.39 142.27,242.62 122.96,346.92 174.58,635.85 32.89,183.99 180.97,494.62 154.84,651 -257.18,221.3 -926.1,198.32 -1307.64,163.67 83.96,-79.63 211.96,-70.93 309.67,-62.77 439.52,36.72 253.49,38.45 470.29,-65.28 73.07,-34.97 283.91,-90.15 399.76,-176zm-4153.8 -1950.41c152.59,11.49 -14.01,-83.55 372.21,-168.37 225.11,-49.44 156.93,-105.57 422.22,-47.08 185.68,40.93 529.36,348.27 595.67,465.6 -209.6,-44.7 -203.06,-103 -352.57,-163.26 -180.92,-72.89 -168.42,-140 -287.68,-217.21 -123.05,21.13 -239.55,244.18 -340.14,316.1 -85.63,61.21 -134.2,61.27 -171.3,162.49 -32.27,88.1 -38.59,144.59 -92.99,211.69 13.86,-141.1 84.11,-278.16 92.45,-443.44 -340.56,1.97 -375.59,80.75 -554.59,237.54 -73.82,64.67 -132.95,98.88 -211.79,174.12 -68.26,65.13 -115.1,120.26 -183.68,185.02 -161.72,152.72 -196.95,228.61 -241.2,515.96 -21.88,142.13 -96.75,179.14 -81.44,296.47 4.21,32.3 61.92,124.32 -107.9,236.41 -86.2,-533.41 34.2,-477.41 74.39,-649.87 32.66,-140.13 6.96,-207.07 93.73,-310.6 73.97,-88.24 146.66,-116.57 203.9,-182.03 56.97,-65.15 112.41,-170.8 165.66,-237.83 64.37,-81.02 108.91,-130.84 199.17,-186.99 227.45,-141.51 249.79,-337.67 372.96,-372.84l32.92 178.12zm5445.3 230.87c46.63,-46.86 24.87,1.17 60.03,-72.18 72.1,-150.43 217.96,-191.18 343.47,-289.39 49.97,-39.11 75.92,-87.85 115.7,-127.81 65.98,131.72 -115.15,90.28 -140.54,243.74 183.43,145.59 226.28,47.78 321.73,30.47 72.36,98.73 268.49,255.83 326.19,338.35 -142.12,-76.71 -239.44,-133.52 -417.96,-194.63 -117.29,-40.13 -365.27,-36.17 -401.39,181.2 -31.56,189.83 72.46,340.92 123.19,481.96 27.5,76.44 42.72,178.9 65.11,237.2 18.83,49.06 49.17,57.07 65.43,88.05 21.27,40.53 12.25,1.59 -0.32,28.67 -60.94,131.46 -1.56,-46.03 -25.18,34.28l76.76 72.88 -32.26 120.36c-1.95,2.82 -5.91,7.16 -7.73,9.62 -25.98,34.88 -6.17,-26.96 -22.45,27.94 80.23,88.23 126.87,98.77 183.79,200.41 -138.46,-129.92 -180.56,-136.15 -299.7,-296.1 -277.07,-371.95 -244.08,-489.29 -407.69,-820.56 -57.42,-116.28 -185.36,-292.23 -211.88,-380.59 59.31,31.32 287.21,372.74 298.32,436.64 30.15,173.27 176.5,417.17 282.31,454.03 -12.49,-108.05 -126.66,-263.91 -164.11,-398.03l-130.82 -406.51zm-1281.37 -624.95l89.57 -102.01c3.46,193.04 -306.16,474.42 -413.54,549.86 -229.64,161.31 -795.96,-259.04 -981.85,-400.99 -96.66,-73.79 -157.99,-151.51 -250.06,-223.98 -181.89,-143.15 -324.67,-294.99 -375.93,-581.31 104.13,80.32 210.33,248.22 306.11,370.42 311.83,397.77 450.8,337.68 576.3,459.1 132.93,128.63 164.8,206.89 431.39,253.73 151.76,26.66 186.25,-4.54 204.63,-132.54l48.73 38.02c50.54,20.75 218.96,-81.33 253.37,-113.46 34.33,-32.04 80.16,-78.25 111.28,-116.84zm-1863.32 -1140.51c-203.59,58.34 -301.49,-328.28 -336.7,-480.03 -24.85,-107.03 12.61,-268.54 137.27,-209.92 62.93,29.6 176.11,201.58 185.89,232.04 -76.27,-35.21 -41.32,-25.54 -109.94,-95.21 -35.67,-36.25 -63.09,-71.28 -107.92,-95.7 -131.98,55.74 -93.22,175.31 -33.44,254.54 130.69,173.14 44.73,191.42 188.15,196.28 -12.78,60.72 -12.83,28 -34.17,86.09 87.94,21.31 121.8,27.17 110.86,111.91zm2796.39 -761.19c-23.36,-57.59 -51.88,-70.8 -81.6,-147.66 276.69,62.38 55.64,467.26 283.67,529.51l34.24 -113.55 62.3 465.02 112.82 -33c-31.83,83 -43.01,72.2 -122.96,110.92l-53.86 -90.78c-49.36,-56.81 -49.16,-54.84 -124.58,-89.16l15.12 -99.73c-191.22,-3.57 -241.47,218.51 -546.8,125.62 147.36,-42.05 374.15,-137.64 438.37,-271.18 -23.88,-58.26 -3.29,22.58 -60.4,-70.57l-91.84 -122.44c33.88,-73.14 96.26,-129.45 135.52,-193zm-1816.59 -85.5c41.8,-78.45 133.73,-174.78 222.71,-217.66 198.1,-95.42 193.92,-29.84 220.76,-102.24 6.08,-16.35 1.34,-14.95 4.47,-31.75 8.08,-43.33 -9.42,-5.48 7.77,-29.11 177.89,136.68 190.01,148.84 426.22,88.8 -35.21,122.64 -62.46,101.78 -165.8,149.34 5.06,86.81 41.07,129.36 20.32,169.33 -47.14,-57.43 -83.02,-108.4 -121.13,-153.22 -54.74,-64.36 -116.82,-76.25 -210.96,-32.59 -114.73,53.19 -116.54,13.81 -217.22,63.6 -62.83,31.06 -134.57,75.09 -187.14,95.5zm900.88 1620.76c-136.27,-178.6 52.23,-179.1 -219.96,-266.52 -89.84,-28.83 -70.4,-63.81 -121.39,-127.42 -71.02,-88.59 -386.69,-65.27 -557.59,-178.68 -390.24,-258.96 -166.58,-92.54 -380.92,-356.28 -110.24,-135.66 -289.19,-251.18 -334.51,-402.34 -29.47,-98.27 -38.83,-360.9 -23.53,-466.87 16.94,-117.27 119.22,-199.89 171.7,-319.79 60.57,-138.35 96.51,-207.75 171.51,-319.47 101.38,-151.05 112.25,-123.83 290.54,-200.94 331.85,-143.5 454.3,-229.46 770.35,-214.11 264.01,12.8 606.49,83.69 720.94,261.83 151.82,236.31 298.99,333.98 380.96,581.77 -108.81,-103.49 -213.22,-313.27 -329.76,-439.73 -194.44,-211.01 -242.78,-123.5 -390.51,-190.31 -76.45,-34.59 -17.01,-56.83 -117.25,-54.61 0.68,118.39 128.53,264.57 68.18,379.67 -110.46,-78.45 -141.04,-313.24 -245.65,-417.19 -73.58,-4.61 -114.27,2.75 -180.34,10.47 -247.07,28.82 -169.89,-64.37 -381.14,153.48 -71.66,-7.53 -223.2,-86.7 -321.34,119.35 43.15,52.71 56.54,38.21 98.33,105.27 -55.59,86.07 1.74,-47.12 -76.61,102.72 -20.7,39.59 41.24,7.84 -44.59,45.24 -25,10.89 -32.78,8.09 -63.61,13.07l-13.29 -123.15c-79.84,27.2 -242.51,160.92 -271.05,234.59 -1.64,4.25 -44.32,442.15 -44.19,442.84 16.29,88.05 52.99,61.84 47.34,189.77 -3.38,76.5 16.94,104.67 65.41,157.3 144.5,156.87 207.83,21.99 297.5,211.01 -207.05,-0.7 -258.14,-102.9 -383.6,-87.8 19.83,55.3 273.02,281.9 337.39,327.15 73.18,51.47 162.8,70.42 246.12,105.46 38.16,16.03 78.74,29.78 119.76,55.08 214.75,132.51 63.95,7.63 364.77,-96.86 -34.98,88.19 -85.89,142.56 -22.61,246.22 36.73,60.14 101.8,68.69 183.73,97.22 127.09,44.27 68.36,70.49 116.23,181.63 38.27,88.85 109.3,56.03 193.95,85.53 137.15,47.81 136.13,117.04 411.45,-51.12 86.62,-52.92 265.62,-173.11 370.26,-190.46 -69.91,156.72 -332.75,286.5 -359.12,363.35 91.55,-21.55 229.21,-173.39 448.31,-216.68 -136.73,89.25 -420.37,235.86 -451.28,381.94 41.59,111.33 144.47,79.16 186.29,211.64 33.4,105.79 41.63,231.08 91.88,325.73l195.5 -27.91c-46.95,37.53 -124.04,77.69 -196.4,80.6 -179.47,-225.77 -168.01,-714.39 -818.16,-721.69zm-2053.27 -2564.06c13.37,-127.19 -63.15,-109.73 -57.75,-196.97 3.8,-60.99 66.36,-131.25 100.18,-156.95l16.01 172.35c15.95,7.13 1.81,15.46 61.47,-12.41 35.26,-16.47 4.29,-12.8 65.12,-29.24 -10.39,40.83 -20.92,64.84 -33.07,110.57 -55.43,208.54 -144.37,62.55 -147.42,261.38l-93.55 7.34c-4.48,56.91 2.96,73.1 -22.43,112.33 -53.08,-52.83 -64.8,-120.16 -75.63,-204.66 4.62,-2.03 11.23,-2.95 14.56,-4.28 3.27,-1.28 10.26,-3.03 14.12,-4.78l25.41 -12.34c42.28,-28.2 17.22,-20.09 38.39,-52.77l94.59 10.43zm219.91 1203.97c-204.16,-310.21 -38.48,-452.01 29.73,-585.93 59.06,-115.99 20.11,-235.16 86.12,-334.16 88.04,-132.04 76.8,-50.93 147,-258.64 67.8,-200.68 280.86,-235.1 500.48,-324.54 251.32,-102.38 187.46,-122 231.14,-187.93 51.49,-77.71 88.73,-43.65 137.07,-75.9 36.11,-24.09 30.15,-86.87 44.28,-145.74 34.04,47.16 33.76,101 46.62,163.52 102.49,-28.67 149.12,-105.71 212.51,-156.18 16.03,85.12 3.59,61.46 -11.75,131.86 191.48,-24.17 298.76,-87.92 454.26,-133.6 -107.15,100.77 -163.54,65.58 -255.94,226.91 -144.96,-2.68 -248.59,7.9 -389.24,33.55 -146.89,26.76 -169.73,69.59 -264.09,139.12 -212.82,156.81 -203.63,-29.85 -535.03,289.45 -206.11,198.58 -126.24,288.03 -212.51,419.87 -242.71,370.88 -57.68,290.72 -174.76,438.73 -83.73,105.85 -36.14,196.02 -45.89,359.61zm475.78 -2007.96c95.58,-49.1 55.67,-26.28 173.4,-49.47 117.38,-23.11 7.57,-65.55 159.28,-70.5 -14.97,28.34 -156.74,194.96 -192.24,226.6l-121.75 -13.34c-2.08,3.14 -5.4,8.04 -7.59,11.47 -2.11,3.33 -4.96,8.07 -6.99,11.37 -10.09,16.5 -12.76,26.69 -23.99,45.26l-204.52 3.16c34.44,-69.33 127.3,-157.28 170.64,-226.42 67.5,33.91 -6.32,0.74 53.76,61.87z"/>
   <path class="fil1" d="M8135.59 18452.42c-80.43,-8.67 -37.54,-18.33 -102.17,-62.92 -26.89,116.34 -27.02,287.38 -54.03,420.18 -26.62,130.8 -73.68,249.68 -82.37,383.05 -7.69,117.96 -18.07,324.89 -61.6,418.3 -95.22,204.33 -53.44,116.85 -96.27,380.9 -24.77,152.59 -61.8,229.27 -65.67,410.38 -11.89,555.78 -98.26,482.26 -214.92,727.2 -26.47,55.57 -41.93,99.47 -67.65,160.35 -46.64,110.37 -40.24,75.34 -98.03,148.75 -87.22,-319.12 -57.58,-299.63 -24.86,-623.69 11.8,-116.88 3.46,-235.68 16.2,-354.32 11.72,-109.13 38.13,-238.49 43.41,-342.96 -89.14,144.63 -112.52,477.11 -133.51,677.59 -15.61,149.11 -50.21,199.25 -45.39,361.87 4.1,137.86 -7,241.63 -118.56,278.17 -14.95,-8.79 -153.57,-124.7 -180.94,-150.08 -69.77,-64.74 -82.6,-166.19 -69,-282.75l-77.03 102.64c-39.6,-57.31 -24.2,-123.06 -73.74,-196.88 -130.5,-194.48 79.88,-218.7 101.38,-590.9 -80.82,77.5 -150.95,321.32 -205.08,436.79 -98.67,-41.5 -205.66,-291.58 -196.61,-439.48 -59,-26.01 32.21,3.78 -66.52,16.15 -26.73,-181.29 74.68,-330.79 74.57,-479.24 -29.49,68.19 -101.64,125.26 -134.05,214.86 -51.09,141.3 4.43,211.72 33.05,324.14 51.63,202.7 -125.79,226.58 119.68,422.71 41.38,33.05 61.08,31.44 108.41,80.4 17.11,333.78 -54.98,173.71 129.93,383.31 45.16,51.18 56.41,107.48 94.17,168.94 36.73,59.81 78.09,88 126.38,136.95 98.14,99.48 119.13,156.08 298.85,208.61 106.18,31.05 125.97,0.06 181.42,-53.56 262.3,-253.7 147.4,-186.47 330.38,-442.08 261.55,-365.37 212.3,-477.29 268.02,-784.72 25.6,-141.29 68.42,-297.09 89.39,-437.02 50.22,-335.09 -29.78,-353.98 132.26,-903.52 82.56,-279.99 186.43,-513.26 273.78,-777.89 208.64,-632.08 86.81,-932.2 -68.76,-1526.7 -21.95,-83.83 -26.24,-137.37 -94.37,-166.52 28.8,345.11 145.32,510.48 95.46,884.06 -13.41,100.51 2.94,165.72 -2.68,257.83 -6.84,112.11 -34.9,113.63 -24.79,244.84 8.24,107.06 8.13,154.24 -55.54,208.38 -101.92,86.64 -52.58,14.33 -102.6,157.88z"/>
   <path class="fil1" d="M813.81 15140.03c17.48,91.07 116.83,227.57 171.69,270.48 52.19,40.84 216.83,110.29 287.52,151.16 99.26,57.42 183.09,81.64 282.13,156.01 78.06,58.62 243.66,87.91 366.43,81.87 -45.85,-61.85 -176.11,-109.02 -184.6,-198.57 199.02,-15.66 166,140.56 593.42,-20.16 75.95,-28.55 138.68,-14.44 207.91,-36.47 36.7,-62.9 17.05,-134.53 30.58,-212.9 52.33,-67.29 62.43,-10.23 96.07,-82.98 24.55,-53.06 -1.31,-66.9 42.9,-133.47 49.71,-74.87 99.22,-107.51 122.81,-217.72 -167.18,37.66 -233.14,175.96 -344.64,193.7 25.72,-121.61 112.09,-158.68 158.21,-250.06 25.01,-49.51 23.87,-93.09 49.73,-143.4 25.38,-49.43 65.01,-66.79 74.96,-139.09 13.86,-100.62 -155.58,-507.86 -193.11,-618.31l-21.43 57.92c-7.77,25.87 -11.47,42.37 -20.01,68.82 -65.21,202.29 44.18,80.19 54.37,425.13 -49.42,47.72 -165.68,174.47 -243.44,198.66 -57.12,-77.63 -22.73,-108.87 -131.67,-142.49 7.6,65.32 37.82,113.99 18.49,177.22 -15.4,50.35 -61.6,82.9 -57.47,147.69 6.81,106.59 81.45,42.59 89.81,341.42 -144.09,28.48 -331.45,35.27 -504.94,73.54 -74.94,16.54 -100.12,39.64 -176.52,54.59 27.36,-109.2 156.14,-177.69 211.11,-264.47 91.27,-144.08 -43.37,-217.68 -82.7,-323.91 -28.51,-77 -8.34,-135.67 -29.76,-199.62 -46.55,-138.96 -154.95,-121.14 6.87,-302.36 68.78,-77.04 25.32,-63.11 -0.69,-149.06 71.38,-96.51 187.87,-188.2 234.98,-315.83 -214.27,45.34 -387.59,361.63 -470.3,277.71 -27.14,-48.39 -12.1,-113.72 -26.66,-184.16 -19.04,-92.13 -36.99,-117.75 -84.63,-147.3 -113.62,333.82 75.48,624.23 124.19,934.43 40.19,255.97 -42.44,266.81 -188.34,367.35 -117.12,80.73 -299.57,109.02 -463.27,104.63z"/>
   <path class="fil1" d="M9001.87 4180.75c650.15,7.3 638.69,495.92 818.16,721.69 72.36,-2.91 149.45,-43.07 196.4,-80.6l-195.5 27.91c-50.25,-94.65 -58.48,-219.94 -91.88,-325.73 -41.82,-132.48 -144.7,-100.31 -186.29,-211.64 30.91,-146.08 314.55,-292.69 451.28,-381.94 -219.1,43.29 -356.76,195.13 -448.31,216.68 26.37,-76.85 289.21,-206.63 359.12,-363.35 -104.64,17.35 -283.64,137.54 -370.26,190.46 -275.32,168.16 -274.3,98.93 -411.45,51.12 -84.65,-29.5 -155.68,3.32 -193.95,-85.53 -47.87,-111.14 10.86,-137.36 -116.23,-181.63 -81.93,-28.53 -147,-37.08 -183.73,-97.22 -63.28,-103.66 -12.37,-158.03 22.61,-246.22 -300.82,104.49 -150.02,229.37 -364.77,96.86 -41.02,-25.3 -81.6,-39.05 -119.76,-55.08 -83.32,-35.04 -172.94,-53.99 -246.12,-105.46 -64.37,-45.25 -317.56,-271.85 -337.39,-327.15 125.46,-15.1 176.55,87.1 383.6,87.8 -89.67,-189.02 -153,-54.14 -297.5,-211.01 -48.47,-52.63 -68.79,-80.8 -65.41,-157.3 5.65,-127.93 -31.05,-101.72 -47.34,-189.77 -0.13,-0.69 42.55,-438.59 44.19,-442.84 28.54,-73.67 191.21,-207.39 271.05,-234.59l13.29 123.15c30.83,-4.98 38.61,-2.18 63.61,-13.07 85.83,-37.4 23.89,-5.65 44.59,-45.24 78.35,-149.84 21.02,-16.65 76.61,-102.72 -41.79,-67.06 -55.18,-52.56 -98.33,-105.27 98.14,-206.05 249.68,-126.88 321.34,-119.35 211.25,-217.85 134.07,-124.66 381.14,-153.48 66.07,-7.72 106.76,-15.08 180.34,-10.47 104.61,103.95 135.19,338.74 245.65,417.19 60.35,-115.1 -67.5,-261.28 -68.18,-379.67 100.24,-2.22 40.8,20.02 117.25,54.61 147.73,66.81 196.07,-20.7 390.51,190.31 116.54,126.46 220.95,336.24 329.76,439.73 -81.97,-247.79 -229.14,-345.46 -380.96,-581.77 -114.45,-178.14 -456.93,-249.03 -720.94,-261.83 -316.05,-15.35 -438.5,70.61 -770.35,214.11 -178.29,77.11 -189.16,49.89 -290.54,200.94 -75,111.72 -110.94,181.12 -171.51,319.47 -52.48,119.9 -154.76,202.52 -171.7,319.79 -15.3,105.97 -5.94,368.6 23.53,466.87 45.32,151.16 224.27,266.68 334.51,402.34 214.34,263.74 -9.32,97.32 380.92,356.28 170.9,113.41 486.57,90.09 557.59,178.68 50.99,63.61 31.55,98.59 121.39,127.42 272.19,87.42 83.69,87.92 219.96,266.52z"/>
   <path class="fil1" d="M8907.62 14952.36l-17.05 -22.09c-99.46,-162.71 -9.5,-491.42 -97.17,-641.14 -35.9,161.27 13.24,251.73 -36.89,559.05 -37.21,228.15 28.1,349.36 -56.61,573.64 -74.17,196.36 -112.19,260.36 -135.91,492.27 -14.88,145.44 -96.73,409.2 -84.9,516.13l221.74 -603.8c74.28,-193.63 136.48,-419.26 214.48,-610.1 430.41,-1052.94 916.93,-1335.58 1161.43,-2155.24 114.17,-382.74 303.4,-932.06 331.39,-1351.71 -32.71,26.16 -5.24,-1.68 -33.24,32.72 -9.21,11.28 -16.51,22.85 -23.55,33.79 -43.87,68.28 -85.75,138.22 -176.71,179.69 -139.1,-198.57 -250.98,-764.38 -301.82,-853.67 4.67,161.98 80.36,357.64 110.77,517.18 45.73,239.98 73.98,328.81 68.75,589.67 -3.37,166.98 -32.58,136.4 -62.11,252.96 -25.88,102.2 -12.07,186.15 -61.32,276.47 -43.11,79.06 -181.26,173.1 -213.84,436.76 -14.29,115.57 32.37,175.11 -15.92,298.98 -61.46,157.66 -267.29,463.38 -359.07,605.23 -83.96,129.78 -138.15,294.86 -229.57,419.96 -218.58,299.19 -113.1,150.12 -171.62,388.33l-31.26 64.92z"/>
   <path class="fil1" d="M7619.68 10210.85c13.92,-123.45 120.97,-191.51 170.18,-282.89 -82.57,32.73 -134,100.77 -205.53,149.57 -78.94,53.86 -151.73,85.32 -229.76,139.07 -114.85,79.09 -39.26,112.71 -200.72,148.9 -145.66,32.64 -92.55,96.98 -193.86,175.39 -23.89,-36.76 -12.55,-100.22 -7.37,-145.3l-249.49 487.5c-59.42,143.87 101.81,87.5 -4.36,256.46 -58.22,92.61 -73.97,144.99 -106.92,261.67 -85.71,-64.71 -214.11,-307.94 -236.78,-327.06 24.57,92.78 122.65,170 25.57,397.71 -47.43,111.26 -8.42,141.48 77.5,325.07l20.24 36.19c1.62,2.76 4.88,8.1 7.85,11.77 302.37,-283.54 595.55,-1467.78 1210.7,-1408.87 60.8,152.56 11.2,209.88 17.45,368.48l34.3 8.56c2.56,0.46 8.56,1.15 11.33,1.64l31.75 5.12c1.75,0.32 7.28,0.25 10.1,2.22 -46.61,91.84 -111.98,207.72 -141.34,307.57l278.73 -90.14c21.52,-193.75 22.72,-422.69 41.37,-617.18 22.27,-232.22 63.71,-364.44 100.53,-563.42 -73.7,37.79 -117.79,105.77 -213.71,186.34 -65.75,55.22 -153.01,142.09 -247.76,165.63z"/>
   <path class="fil1" d="M8433.87 10721.84l-36.58 -32.41c-25.27,-14.92 23.22,-35.28 -40.27,0.59 -57.53,32.53 -511.57,622.71 -542.06,671.25 -165.04,262.63 -302.96,741.08 -255.04,1120.79 51.21,405.79 -104.9,839.43 -130.56,1233.08 -29.34,450.03 -2.79,871.47 1.47,1322.74 2.76,-4.03 6.14,-15.43 7.18,-12.8l22.51 -53.43c57.99,-186.26 34.8,-347.65 140.64,-457.95l-112.5 32c8.77,-124.22 38.35,-138.99 19.61,-291.01 -19.45,-157.68 34.68,-159.53 31.14,-290.98 -3.29,-122.78 82.39,-734.78 131.92,-887 43.11,-132.5 44.63,-136.96 64.62,-288.1 24.77,-187.36 273.09,-289.85 286.46,-376.59l-257.68 -14.41c23.22,-88.34 72.91,-100.2 88.82,-243.16 37.41,-335.99 49.06,-463.31 231.62,-821.21 178.89,-350.7 93.47,-422.92 475.27,-577.71 135.65,-54.99 142.8,-96.53 196.7,-135.37 -158.89,-16.39 -211.56,49.12 -323.27,101.68z"/>
   <path class="fil1" d="M8974.38 6891.68c-115.85,85.85 -326.69,141.03 -399.76,176 -216.8,103.73 -30.77,102 -470.29,65.28 -97.71,-8.16 -225.71,-16.86 -309.67,62.77 381.54,34.65 1050.46,57.63 1307.64,-163.67 26.13,-156.38 -121.95,-467.01 -154.84,-651 -51.62,-288.93 -32.31,-393.23 -174.58,-635.85 -48.42,-82.59 -153.26,-161.58 -131.46,-242.39 69.03,-255.81 27.94,-151.12 477.96,-329.41 99.36,-39.36 241.67,-41.16 300,-105.64 -343.3,-15.73 -449.19,106.03 -764.22,168.83 -135.47,27 -105.71,57.65 -138.96,174.83 -129.35,-86.48 -104.36,-139.71 -324.13,-191.8 -151.46,-35.88 -223,-107.61 -366.23,-159.68 -195.25,-70.99 -577.82,-228.54 -810.3,-236.51l1049.17 472c191.71,71.42 206.61,21.84 331.16,177.83 77.3,96.85 161.35,168.12 166.51,318.54 3.28,95.53 139.09,166.46 178.18,318.51 46.52,180.91 -20.61,220.59 72.07,437.76 44.39,104.04 154.9,249.02 161.75,343.6z"/>
   <path class="fil1" d="M4820.58 4941.27l-32.92 -178.12c-123.17,35.17 -145.51,231.33 -372.96,372.84 -90.26,56.15 -134.8,105.97 -199.17,186.99 -53.25,67.03 -108.69,172.68 -165.66,237.83 -57.24,65.46 -129.93,93.79 -203.9,182.03 -86.77,103.53 -61.07,170.47 -93.73,310.6 -40.19,172.46 -160.59,116.46 -74.39,649.87 169.82,-112.09 112.11,-204.11 107.9,-236.41 -15.31,-117.33 59.56,-154.34 81.44,-296.47 44.25,-287.35 79.48,-363.24 241.2,-515.96 68.58,-64.76 115.42,-119.89 183.68,-185.02 78.84,-75.24 137.97,-109.45 211.79,-174.12 179,-156.79 214.03,-235.57 554.59,-237.54 -8.34,165.28 -78.59,302.34 -92.45,443.44 54.4,-67.1 60.72,-123.59 92.99,-211.69 37.1,-101.22 85.67,-101.28 171.3,-162.49 100.59,-71.92 217.09,-294.97 340.14,-316.1 119.26,77.21 106.76,144.32 287.68,217.21 149.51,60.26 142.97,118.56 352.57,163.26 -66.31,-117.33 -409.99,-424.67 -595.67,-465.6 -265.29,-58.49 -197.11,-2.36 -422.22,47.08 -386.22,84.82 -219.62,179.86 -372.21,168.37z"/>
   <path class="fil1" d="M8786.6 16636.59c-91.93,31.67 -140.28,42.93 -177.88,132.2l140.95 -9.71c15.28,-24.66 0.43,22 -0.34,-16.67 -0.89,-45.19 -23.43,17.33 0.37,-26.5 147.46,55.48 129.27,118.26 345.07,49.47 172.81,-55.07 183.3,-63.31 304.62,56.94 167.8,166.35 353.72,221.49 438.87,473.76 41.28,-64.54 10.02,-89.85 39.79,-149.57 30.04,-60.25 57.65,-20.86 91.66,-121.53 31.69,-93.79 53.14,-229.25 78.31,-324.91 -3.53,-3.14 -9.93,-11.26 -11.97,-7.55 -2.04,3.65 -9.28,-5.77 -12.11,-7.1 -71.33,-33.31 -262.15,-109.67 -286.77,0.88l-10.21 148.59c-156.53,22.55 -232.38,-129.99 -326.15,-171.09 -130.99,-57.41 -200.15,2.94 -305.3,-80.85l-91.44 -58.35c52.69,-163.34 204.28,-105.91 95.82,-367.95 -58.34,-140.96 -23.19,-311.34 56.47,-418.69 131.55,-177.29 381.19,-362.48 454.16,-613.94 -65.82,33.44 -252.56,218.97 -316.7,278.02 -256.46,236.14 -546.93,390.55 -450.04,730.85 26.02,91.39 5.83,173.42 -28.03,247.29 -79.65,173.71 -37.42,91.87 -29.15,256.41z"/>
   <path class="fil1" d="M10328.88 8989c-61.65,-34.02 -199.31,-116.83 -312.34,-44.4 84.89,55.5 147.76,19.8 177.44,122.82 -268.07,123.37 -615.8,89.42 -781.04,417.32 -127.67,253.35 -294.69,556.05 -293.17,898.58 46.41,-112.45 37.75,-300.8 98.96,-407.07 30.74,-53.38 83.03,-84.73 117.6,-146.82 29.83,-53.57 39.13,-133.9 62.55,-200.34 55.93,-158.8 127.73,-168.92 278.41,-230.87 162.55,-66.84 571.89,-318.85 774.42,-85.34 45.3,52.23 56.23,108.23 103.08,160.13 46.11,51.09 90.59,66.64 130.28,133.5 142.92,240.73 -28.36,619.65 -50.29,875.17 141.11,-348.67 117.56,-591.74 185.39,-674.95 56.45,8.98 59.1,23.52 94.43,78.75 24.46,38.26 32.96,70.96 76.32,93.66 -0.55,-101.37 -13.14,-234 -31.17,-330.78 -20.26,-108.91 -61.63,-183.55 -85.21,-302.27 -48.75,32.66 -39.36,48.94 -89.46,90.47 -71.46,-32.62 -37.55,-54.3 -117.13,-94.6 -185.66,-94.03 -128.99,53.89 -213.89,-468.47 -43.38,26.08 -77.72,78.62 -125.18,115.51z"/>
   <path class="fil1" d="M6308.9 8521.54c-87.7,5.64 -140.4,-62.37 -224.92,-88.97 47.72,66.96 113.6,104.07 172.86,179.78 47.86,61.14 84.27,165.95 125.53,243.19 37.76,70.68 83.93,141.12 128.92,221.82 109.68,196.77 286.08,536.31 535.74,552.89 178.69,11.88 445.19,-68.72 557.11,-152.19 -129.32,-13.23 -247.82,-8.61 -379.34,-27.48 -233.84,-33.55 -161.75,-25.26 -243.29,-177.61 -26.85,-50.16 -68.51,-58.43 -110.63,-98.67 -56.51,-54 -239.5,-333.05 -266.83,-341.03 -9.81,63.43 -3.56,100.28 -30.09,146.07 -8.04,-15.85 -68.9,-344.26 -78.08,-397.3 142.62,27.86 226.14,95.89 406.19,110.33 -104.93,-61.04 -210.84,-109.35 -300.86,-178.69 -64.8,-49.92 -220.25,-202.56 -284.07,-214.84l-8.24 222.7z"/>
   <path class="fil1" d="M9321.05 7571.21c-58.67,56.95 -66.31,46.82 -168.12,53.38 -138.11,8.92 -91.6,18.23 -153.9,77.51 -103.05,98.04 -224.16,-33.79 -363.9,49.36 32.73,23.22 108.53,41.69 153.25,66.75 221.73,124.39 280.4,-115.48 527.52,-104.91 48.6,69.86 165.08,331.24 34.62,428.26 -50.2,37.36 -172.25,23.82 -238.57,18.94 -95.02,-7 -173.07,-14.17 -246.91,52.62 285.06,8.73 180.59,42.72 287.93,43.44 99.67,0.68 142.48,-53.09 277.86,-44.26 128.19,267.47 25.3,350.63 -187.41,454.44 -77.14,37.66 -182.51,86.41 -232.2,135.82 -34.34,34.14 -143.03,173.65 -162.13,229.91 260.84,-95.5 392.37,-379.12 801.49,-416.88 164.1,-15.15 198.14,-26.08 210.16,-198.27 -77.52,23.27 -115.85,63.45 -190.38,63.46 -14.55,-58.99 -10.12,-121.41 -33.6,-175.15 -76.93,-175.98 -100.9,-142.92 70.16,-283.6l31.9 -29.29c-198.53,23.34 -157.18,143.38 -210.47,-111.96 -22.72,-108.85 -209.56,-200.01 38.75,-368.74 -110.08,3.6 -83.81,42.66 -168.19,66.2l-150.63 -237.72c13.56,85.21 68.2,129.72 72.77,230.69z"/>
   <path class="fil1" d="M10265.88 5172.14l130.82 406.51c37.45,134.12 151.62,289.98 164.11,398.03 -105.81,-36.86 -252.16,-280.76 -282.31,-454.03 -11.11,-63.9 -239.01,-405.32 -298.32,-436.64 26.52,88.36 154.46,264.31 211.88,380.59 163.61,331.27 130.62,448.61 407.69,820.56 119.14,159.95 161.24,166.18 299.7,296.1 -56.92,-101.64 -103.56,-112.18 -183.79,-200.41 16.28,-54.9 -3.53,6.94 22.45,-27.94 1.82,-2.46 5.78,-6.8 7.73,-9.62l32.26 -120.36 -76.76 -72.88c23.62,-80.31 -35.76,97.18 25.18,-34.28 12.57,-27.08 21.59,11.86 0.32,-28.67 -16.26,-30.98 -46.6,-38.99 -65.43,-88.05 -22.39,-58.3 -37.61,-160.76 -65.11,-237.2 -50.73,-141.04 -154.75,-292.13 -123.19,-481.96 36.12,-217.37 284.1,-221.33 401.39,-181.2 178.52,61.11 275.84,117.92 417.96,194.63 -57.7,-82.52 -253.83,-239.62 -326.19,-338.35 -95.45,17.31 -138.3,115.12 -321.73,-30.47 25.39,-153.46 206.52,-112.02 140.54,-243.74 -39.78,39.96 -65.73,88.7 -115.7,127.81 -125.51,98.21 -271.37,138.96 -343.47,289.39 -35.16,73.35 -13.4,25.32 -60.03,72.18z"/>
   <path class="fil1" d="M3846.38 8850.31c89.83,-28.95 365.04,-302.05 445.8,-379.81 106.94,-102.99 174.46,-45.37 240.89,-180.71 54.9,-111.85 116.84,-170.24 176.24,-255.02l-286.32 158.83c20.19,-72.52 48.53,-112.26 90.12,-169.32 71.18,-97.69 41.51,-80.86 81.7,-200.34 41.24,-122.61 52.4,-9.14 278.08,-264.7 75.88,-85.92 176.65,-206.63 226.05,-318.43 46.21,-104.55 137.99,-276.66 157.37,-382.47 -84.79,72.55 -481.98,611.03 -564.34,649.57 5.9,-176.63 64.1,-767.67 -13.01,-887.02 -68.37,159.69 -23.97,536.55 -32.09,727.8 -10.95,257.85 -180.68,358.64 -197.43,577.21 -24.28,316.66 -335.83,606.22 -527.1,823.82 -45.86,52.18 -45.26,60.42 -75.96,100.59z"/>
   <path class="fil1" d="M2901.8 8912.97l129.75 5.49c-9.68,53.83 -39.39,127.33 -60.48,178.4 -34.42,83.35 -62.53,63.62 -121.71,123.62 -87.41,88.59 -76.15,225.6 -97.55,376.33 -21.37,150.51 -72.36,248.65 -90.04,384.26 -19.01,145.82 2.04,306.65 -23.1,449.92 -136.72,23.36 -121.13,-48.31 -209.23,-84.61 -21.65,120.42 -2.64,171.93 -54.33,295.62 -33.99,81.36 -72.79,146.66 -107.94,242.42 -58.62,159.7 -178.78,373.11 -189.7,541.63l20.83 -20.84c2.07,-2.49 6.98,-7.56 9.42,-10.66l232.56 -351.01c58.69,-154.17 42.48,-384.08 129.51,-495.71l156.26 3.14 34.35 -45.01c43.38,-55.49 51.66,-55.7 138.4,-73.46 -25.88,-378.74 -33.75,-294.24 43.42,-692.51 20.46,-105.58 7.93,-375.31 51.59,-438.3 36.31,-52.38 63.48,-53.37 106.2,-140.63 38.83,-79.3 27.45,-100.03 80.28,-165.16 125.55,-154.87 -35.6,-89 53.35,-400.01 -60.54,51.12 -203.48,225.95 -231.84,317.08z"/>
   <path class="fil1" d="M7168.51 2820.66c9.75,-163.59 -37.84,-253.76 45.89,-359.61 117.08,-148.01 -67.95,-67.85 174.76,-438.73 86.27,-131.84 6.4,-221.29 212.51,-419.87 331.4,-319.3 322.21,-132.64 535.03,-289.45 94.36,-69.53 117.2,-112.36 264.09,-139.12 140.65,-25.65 244.28,-36.23 389.24,-33.55 92.4,-161.33 148.79,-126.14 255.94,-226.91 -155.5,45.68 -262.78,109.43 -454.26,133.6 15.34,-70.4 27.78,-46.74 11.75,-131.86 -63.39,50.47 -110.02,127.51 -212.51,156.18 -12.86,-62.52 -12.58,-116.36 -46.62,-163.52 -14.13,58.87 -8.17,121.65 -44.28,145.74 -48.34,32.25 -85.58,-1.81 -137.07,75.9 -43.68,65.93 20.18,85.55 -231.14,187.93 -219.62,89.44 -432.68,123.86 -500.48,324.54 -70.2,207.71 -58.96,126.6 -147,258.64 -66.01,99 -27.06,218.17 -86.12,334.16 -68.21,133.92 -233.89,275.72 -29.73,585.93z"/>
   <path class="fil1" d="M7296.34 22484.03l267.74 -108.76c73.87,-40.23 13,-29.11 83.81,-59.13 -22.21,232.98 55.25,219.48 -68.51,424.97 -67.42,111.95 -93.49,242.28 -120.94,386.72 -45.53,239.61 -84.12,709.29 -19.1,937.74 8.42,-23.15 66.68,-357.23 74.59,-405.49 25.12,-153.32 15.33,-319.14 41.73,-470.03 39.53,-226.05 131.73,-145.97 213.23,-276.95 26.3,-42.28 125.4,-314.99 140.32,-374.54 -83.18,56.44 -109.34,159.53 -214.57,194.95 7.02,-218.64 118.9,-571.4 103.69,-804.09l-501.99 554.61z"/>
   <path class="fil1" d="M9074.08 4445.18l-89.57 102.01c-31.12,38.59 -76.95,84.8 -111.28,116.84 -34.41,32.13 -202.83,134.21 -253.37,113.46l-48.73 -38.02c-18.38,128 -52.87,159.2 -204.63,132.54 -266.59,-46.84 -298.46,-125.1 -431.39,-253.73 -125.5,-121.42 -264.47,-61.33 -576.3,-459.1 -95.78,-122.2 -201.98,-290.1 -306.11,-370.42 51.26,286.32 194.04,438.16 375.93,581.31 92.07,72.47 153.4,150.19 250.06,223.98 185.89,141.95 752.21,562.3 981.85,400.99 107.38,-75.44 417,-356.82 413.54,-549.86z"/>
   <path class="fil1" d="M8810.71 18524.88c0.17,115.98 61.18,232.54 28.68,319.28 -32.75,87.41 -117.45,110.87 -166.92,207.11 28.24,203.7 27.19,144.09 -12.86,348.85 -21.53,110.09 -43.68,239.65 -45.88,352.86 134.4,-414.46 6.9,-322.29 310.07,-527.53 208.37,-141.06 143.87,67.52 274.57,-275.68 -82.36,18.59 -182.04,142.6 -314.17,171.76 12.07,-67.67 38.01,-90.05 28.21,-165.99 -16.27,-125.94 -30.08,-78.28 31.95,-166.99 68.14,-97.45 -60.86,-172.42 21.6,-328.2 276.86,-523.01 120.59,-209.56 358.86,-474.03 -306.46,119.95 -514.59,223.84 -514.11,538.56z"/>
   <path class="fil1" d="M1447.16 12492.73c73.05,-8.67 115.87,-30.66 172.71,-42.06 85.89,-17.21 119.11,7.56 207.42,-22.28 132.91,-44.89 250.16,-20.72 355.91,45.19 12.98,276.55 -60.78,344.51 -69.47,384.9 -19.44,90.3 49.5,239.54 -133.58,335.84 -213.14,112.09 -540.56,82.05 -760.32,186.08 35.43,29.96 -34.06,26.78 85.42,17.04 170.39,-13.87 290.89,-21.58 454.3,-73.21 97.19,-30.71 106.84,-9.26 200.41,-11.21 175.26,-3.66 167.77,-112 245.01,-174.7 79.72,-64.71 36.44,9.04 103.34,-107.12 29.24,-50.78 60.66,-81.89 80.48,-130.92 -62.22,8.74 -92.32,55.53 -152.04,77.47 25.54,-130.82 26.65,-415.91 21.1,-561.63 -95.58,-42.3 -307.34,-205.72 -403.1,-138.8 -149.84,104.72 -19.1,44.39 -222.34,81.82 -42.95,7.91 -57.07,23.28 -99.72,53.79 -15.66,11.22 -23.32,14.59 -40.5,29.44 -38.48,33.27 -17.16,6.68 -45.03,50.36z"/>
   <path class="fil1" d="M6902.45 18370.95c76.39,-35.42 116.95,-91.03 292.52,-172.41 90.69,-42.03 261.67,-81.84 329.08,-129.87 -59.5,-37.92 -127.95,-33.33 -213.19,-27.88 -90.82,5.79 -139.42,24.42 -234.29,-1.11 -21.16,-176.03 55.43,-271.37 145.91,-337.66 -19.32,-122.61 -66.86,-75.23 -5.26,-199.46 54.82,-110.58 64.6,-594.32 51.27,-728.96 -52.23,106.83 -70.76,259.7 -83.59,394.18l-129.39 610.85c-116.78,218.15 -75.52,1.05 -100.92,395.14 -6.04,93.55 -34.67,112.52 -52.14,197.18z"/>
   <path class="fil1" d="M9375.3 6941.38c36.99,137.91 212.84,196.46 362.38,227.48 112.43,284.5 100.66,118.07 182.92,249.21l-57.43 44.03c-22,17.17 -16.77,10.96 -31.46,26.14 48.34,96.27 99.6,55.42 126.8,195.19 31.9,164 56.63,101.28 105.19,228.82 45.9,120.49 82.52,379.28 118.17,520.03 18.98,-370.76 -50.83,-560.19 -132.26,-874.34 -74,-285.56 -133.75,-250.3 -145.08,-368.72 -10.31,-107.77 3.01,-105.95 55.36,-175.16 29.35,-38.79 69.73,-124.23 89.85,-176.41 -88.1,52.28 -163.14,243.16 -280.43,231.32 -77.81,-7.86 -75.02,-66.79 -162.71,-88.24 -119.1,-29.13 -104.15,11.64 -231.3,-39.35z"/>
   <path class="fil1" d="M12190.21 6891.68l-123.3 72.29c-2.58,2.27 -7.3,7.37 -9.35,9.29 -38.24,35.79 -385.01,-85.41 -461.48,-46.48 130.14,67.97 278.57,110.21 409.59,182.68 218.67,120.95 232.85,41.8 328.8,14.19 50.8,-14.62 87.04,-10.3 139.61,-16.85 98.43,-106.73 103.26,-404.35 33.26,-536.11 -17.21,198.32 19.39,296.78 -178.19,340.04 -106.24,-49.13 -144.73,-146.18 -204.16,-253.6 -53.9,-97.45 -154.12,-156.99 -245.55,-213.9 92.8,129.09 297.64,313.82 310.77,448.45z"/>
   <path class="fil1" d="M9917.58 2645.49c-39.26,63.55 -101.64,119.86 -135.52,193l91.84 122.44c57.11,93.15 36.52,12.31 60.4,70.57 -64.22,133.54 -291.01,229.13 -438.37,271.18 305.33,92.89 355.58,-129.19 546.8,-125.62l-15.12 99.73c75.42,34.32 75.22,32.35 124.58,89.16l53.86 90.78c79.95,-38.72 91.13,-27.92 122.96,-110.92l-112.82 33 -62.3 -465.02 -34.24 113.55c-228.03,-62.25 -6.98,-467.13 -283.67,-529.51 29.72,76.86 58.24,90.07 81.6,147.66z"/>
   <path class="fil1" d="M7822.44 27245.4c49.69,113.33 151.21,99.74 173.12,212.45 15.88,81.66 -10.29,92.33 31.57,159.3l294.83 319.34c47.13,50.51 151.15,153.24 251.02,82.84 -34.82,-29.2 -117.54,-37.21 -157.91,-52.51l5.14 -117.45c-110.13,-5.06 -127.82,-3.07 -119.44,-125.53 81.95,-47.05 95.94,-18.44 100.91,-143.57 2.88,-72.55 5.96,-172.8 -20.45,-230.36 -82.87,122.21 -10.1,208.87 -230.68,211.05 -15.72,-171.05 -15.99,-124.85 -102.71,-228.03 -80.44,-95.7 -1.93,-153 12.6,-257.83 -79.01,17.71 -209.09,109.35 -238,170.3z"/>
   <path class="fil1" d="M3108.31 10971.11c224.32,-171.34 419.51,-400.84 561.04,-632.58 130.67,-213.97 336.38,-365.07 245.21,-611.5 -16.87,-45.59 -28.25,-73.65 -38.99,-119.58 -13.55,-58.07 -10.77,-79.4 -35.9,-122.53 -30.59,295.9 143.21,308.21 -21.34,458.84 -289.4,264.91 -289.86,401.65 -481.87,676.33 -86.52,123.75 -156.03,225.75 -228.15,351.02z"/>
   <path class="fil1" d="M5661.69 6947.06l36.92 733.17c28.37,135.82 348.16,268.62 474.18,299.73 -209.33,-335.88 -359.66,-195.9 -406.56,-505.79 -65.64,-433.76 74.23,-408.61 189.48,-649.73 -103.93,56.3 -120.69,219.34 -294.02,122.62z"/>
   <path class="fil1" d="M8100.99 2559.99c52.57,-20.41 124.31,-64.44 187.14,-95.5 100.68,-49.79 102.49,-10.41 217.22,-63.6 94.14,-43.66 156.22,-31.77 210.96,32.59 38.11,44.82 73.99,95.79 121.13,153.22 20.75,-39.97 -15.26,-82.52 -20.32,-169.33 103.34,-47.56 130.59,-26.7 165.8,-149.34 -236.21,60.04 -248.33,47.88 -426.22,-88.8 -17.19,23.63 0.31,-14.22 -7.77,29.11 -3.13,16.8 1.61,15.4 -4.47,31.75 -26.84,72.4 -22.66,6.82 -220.76,102.24 -88.98,42.88 -180.91,139.21 -222.71,217.66z"/>
   <path class="fil1" d="M6910.78 25701.11c-9.84,-172.73 -106.97,-202.88 -88.01,-417.54 78.38,-2.29 35.6,0.43 97.35,26.47 4.06,-91.01 17.08,-80.47 68.87,-105.44l26.37 -12.13c-71.8,-115.49 0.08,-89.56 28.26,-179.84 20.18,-64.67 35.86,-157.26 4.09,-203.18 -92.91,132.2 -369.7,547.44 -303.04,703.45 13.51,31.62 137.96,170.09 166.11,188.21z"/>
   <path class="fil1" d="M6948.6 1616.69l-94.59 -10.43c-21.17,32.68 3.89,24.57 -38.39,52.77l-25.41 12.34c-3.86,1.75 -10.85,3.5 -14.12,4.78 -3.33,1.33 -9.94,2.25 -14.56,4.28 10.83,84.5 22.55,151.83 75.63,204.66 25.39,-39.23 17.95,-55.42 22.43,-112.33l93.55 -7.34c3.05,-198.83 91.99,-52.84 147.42,-261.38 12.15,-45.73 22.68,-69.74 33.07,-110.57 -60.83,16.44 -29.86,12.77 -65.12,29.24 -59.66,27.87 -45.52,19.54 -61.47,12.41l-16.01 -172.35c-33.82,25.7 -96.38,95.96 -100.18,156.95 -5.4,87.24 71.12,69.78 57.75,196.97z"/>
   <path class="fil1" d="M6935.22 26394.27c-101.07,-139.06 -268.51,-172.48 -370.23,-367.87 -196.22,-5.29 -89.52,31.94 -168.52,-323.61 -229.04,304.27 296.27,645.12 538.75,691.48z"/>
   <path class="fil1" d="M7121.19 3406.68c10.94,-84.74 -22.92,-90.6 -110.86,-111.91 21.34,-58.09 21.39,-25.37 34.17,-86.09 -143.42,-4.86 -57.46,-23.14 -188.15,-196.28 -59.78,-79.23 -98.54,-198.8 33.44,-254.54 44.83,24.42 72.25,59.45 107.92,95.7 68.62,69.67 33.67,60 109.94,95.21 -9.78,-30.46 -122.96,-202.44 -185.89,-232.04 -124.66,-58.62 -162.12,102.89 -137.27,209.92 35.21,151.75 133.11,538.37 336.7,480.03z"/>
   <path class="fil1" d="M7644.29 812.7c-60.08,-61.13 13.74,-27.96 -53.76,-61.87 -43.34,69.14 -136.2,157.09 -170.64,226.42l204.52 -3.16c11.23,-18.57 13.9,-28.76 23.99,-45.26 2.03,-3.3 4.88,-8.04 6.99,-11.37 2.19,-3.43 5.51,-8.33 7.59,-11.47l121.75 13.34c35.5,-31.64 177.27,-198.26 192.24,-226.6 -151.71,4.95 -41.9,47.39 -159.28,70.5 -117.73,23.19 -77.82,0.37 -173.4,49.47z"/>
  </g>
 </g>
</svg>
