<svg width="137" height="137" viewBox="0 0 137 137" fill="none" xmlns="http://www.w3.org/2000/svg">
<g clip-path="url(#clip0_18_1102)">
<path fill-rule="evenodd" clip-rule="evenodd" d="M76.4109 115.265C76.4398 114.892 76.8181 114.427 77.0254 114.177C78.0098 112.987 77.8917 113.008 79.1062 113.42C83.1255 114.783 83.6924 119.244 81.6683 121.642C81.1824 122.218 80.0518 123.347 79.3065 123.542C79.4169 123.143 81.5978 121.583 80.4709 118.198C79.8368 116.293 78.5335 115.287 76.4109 115.265ZM62.7716 119.448C62.7716 120.108 62.7634 121.767 63.1976 122.264C64.3187 121.526 64.8412 120.34 65.2449 120.046C64.3082 118.661 64.2165 116.156 64.8173 115.009C64.829 115.027 64.8384 115.038 64.8412 115.07L64.9915 115.946C65.0779 116.596 65.315 117.476 65.5768 118.09C65.7421 118.477 65.5817 118.321 65.8391 118.423C66.0493 117.531 66.6613 117.155 66.6939 114.416L69.0789 115.352C69.0777 116.369 68.8716 117.347 68.5404 118.056C68.354 118.455 68.1715 118.786 67.976 119.111C67.4759 119.941 66.8141 120.176 68.4444 121.448C68.6549 121.612 68.7058 121.703 68.9082 121.837C70.2542 120.94 70.3174 118.235 70.2713 116.718C70.2445 115.819 69.9398 115.271 69.9317 114.754C70.5214 114.755 70.8818 114.622 71.3103 114.515C71.6764 114.423 72.3668 114.25 72.7479 114.242C72.7279 115.254 72.7491 115.974 72.5822 116.812C72.2719 118.369 71.8756 119.425 71.0219 120.712L70.1492 121.885C69.9602 122.121 69.9207 122.071 69.8462 122.351C70.187 122.53 70.4509 122.592 70.8659 122.69C70.8163 123.425 69.0393 124.312 68.567 124.571C68.3804 124.292 68.1088 124.156 67.8628 123.909C66.6324 122.673 66.9338 123.094 66.1824 121.75C66.173 121.734 66.1613 121.712 66.1519 121.696L66.0101 121.498C65.6766 121.583 64.8202 122.359 64.1852 122.742C63.9302 122.897 63.701 122.989 63.4517 123.116C63.707 123.49 64.008 123.905 64.2214 124.316C63.1728 124.304 63.0673 123.048 62.0034 123.544C62.122 123.109 62.1969 123.355 62.4295 123.033C62.3537 122.704 62.1464 122.387 62.0026 122.096C61.5759 121.23 61.1425 119.887 60.9446 118.888C60.3956 116.116 60.6848 115.977 60.8973 113.729C61.3665 113.769 62.3843 114.33 62.9051 114.535C63.1767 114.643 63.4056 114.724 63.626 114.839C63.2008 115.699 62.7716 118.364 62.7716 119.448ZM75.4713 118.083C75.6053 119.66 76.7399 120.988 78.1849 121.509C78.7502 121.713 79.2063 121.754 79.9903 121.751C79.7855 122.596 79.322 123.177 78.7367 123.66C78.4386 123.905 78.2301 123.8 77.4791 123.668C76.2687 123.455 75.1671 122.854 74.4336 121.938C73.5352 120.816 73.5951 119.706 73.5951 118.424C73.5951 117.391 74.2597 116.135 74.702 115.522C75.1027 114.965 76.2292 113.871 76.8332 113.56C76.8214 114.423 75.1956 114.705 75.4713 118.083ZM53.481 115.95C54.2997 115.928 55.5654 115.125 56.0883 114.718C56.2749 114.573 56.4365 114.449 56.6092 114.302C56.8112 114.13 56.8732 114.025 57.0976 113.852C57.629 113.444 57.4852 113.427 58.1691 112.963L60.6395 113.901C60.2497 114.504 57.9007 115.836 57.0629 116.209C56.8259 116.314 56.6777 116.379 56.3909 116.473C56.1975 116.537 55.7874 116.633 55.6151 116.719C55.7789 116.942 55.9592 116.979 56.1845 117.169C56.3054 117.271 56.3302 117.313 56.4516 117.412L57.0124 117.961C57.8803 119.07 58.8068 120.515 58.8521 122.094L58.7555 122.168C58.6167 122.261 58.7233 122.199 58.5991 122.268C58.4843 122.331 58.3646 122.38 58.244 122.424C57.3912 122.741 56.6813 122.937 55.6978 122.95C55.9723 121.752 56.1368 120.215 55.8786 118.926C55.7584 118.326 55.5744 117.759 55.1598 117.34C54.9692 117.148 54.7191 117.044 54.4226 116.966C53.9445 116.841 53.9034 116.975 53.3923 116.973C53.3747 117.24 53.2757 117.791 53.2456 118.024C53.1882 118.467 53.3845 119.673 53.5136 120.184C53.6199 120.604 53.7384 120.786 53.736 121.241C52.8131 121.242 52.6262 121.666 50.4131 121.668C50.4147 120.476 50.6114 119.13 50.9776 118.051C51.0953 117.704 51.2863 117.257 51.347 116.976C50.9992 116.802 50.5622 116.786 50.2421 116.633C50.4844 116.309 50.8859 116.376 51.4357 116.375C51.7982 115.957 52.3672 114.464 52.6441 114.001C52.9622 113.469 53.6427 112.098 54.2479 111.937C54.1929 112.699 53.4822 114.487 53.481 115.95ZM87.4881 111.512C87.6481 111.275 88.4187 110.684 88.6794 110.486C88.8952 110.323 89.0765 110.196 89.3159 110.014C89.5643 109.825 89.6539 109.63 89.9601 109.551C90.6859 110.395 91.7526 112.872 92.0559 113.937C92.431 115.256 92.677 116.837 92.6038 118.254C92.5773 118.764 92.4323 119.242 92.431 119.791C92.0621 119.653 92.3765 119.692 91.8535 118.918C91.7143 118.711 91.6719 118.669 91.5212 118.483C90.1711 116.811 87.2425 115.381 85.2775 114.927C85.3683 116.568 86.8324 118.681 88.3678 119.593C88.5425 119.696 88.5633 119.714 88.7421 119.814L89.1082 120.046C88.9371 120.304 87.4473 121.403 87.089 121.694C86.9403 121.815 86.9285 121.838 86.7635 121.964C86.5012 122.165 86.634 122.152 86.2931 122.179C86.2011 121.825 85.6806 121.126 85.4693 120.702C85.1785 120.119 84.959 119.675 84.7488 119.033C84.548 118.421 84.3969 117.906 84.2727 117.206C84.1367 116.439 84.1664 115.795 84.1631 114.925L83.8553 114.723C83.4321 114.496 83.0379 114.378 82.5415 114.324C82.7736 113.904 83.7543 112.406 83.8231 112.107C84.471 112.167 85.6061 112.645 86.1282 112.874C87.1513 113.323 88.6276 114.235 89.4707 114.989C89.6519 115.151 89.7024 115.238 89.9101 115.401C90.6346 115.966 91.184 116.767 91.4943 116.97C91.2874 116.088 90.3447 114.579 89.8404 113.936C89.4686 113.461 89.1183 113.101 88.7038 112.684L87.4881 111.512ZM35.328 114.074C35.3398 113.473 35.9535 111.884 36.1779 111.425C37.0202 109.706 37.7289 108.682 39.234 107.487C39.6088 107.19 40.9397 106.35 41.4626 106.305C41.2863 106.569 41.3217 106.375 41.2956 106.732C42.3855 106.818 43.9751 107.562 44.8682 108.102L46.5791 109.206C46.4618 109.64 45.3268 110.673 45.0429 110.74C44.9733 110.488 44.4064 109.835 44.2108 109.614L43.3186 108.63C43.0986 108.415 42.9788 108.365 42.7631 108.162C42.3085 107.736 41.6769 107.279 41.123 106.988C40.4774 107.427 39.2186 108.765 39.162 109.376C40.2522 109.404 43.3756 110.896 44.0207 111.853C43.8859 112.058 43.8517 112.037 43.6675 112.183L42.6571 113.217C42.5712 113.156 40.5259 110.259 38.9922 109.89C38.5629 110.387 38.3483 111.257 38.2379 112.037C38.064 113.268 37.9492 113.805 38.5983 114.294C39.7309 115.147 40.919 115.619 42.9133 115.606L42.3525 116.327C42.1216 116.62 42.0084 116.765 41.7212 116.975C40.8163 117.636 40.1301 117.162 39.4686 116.496C38.5262 115.548 38.1508 114.56 37.7989 114.158C36.8581 114.158 36.2533 114.063 35.328 114.074ZM97.2054 105.962C97.9755 104.847 98.7514 104.018 100.113 103.499C101.261 103.062 102.171 103.029 103.327 103.333C104.91 103.75 106.211 105.294 106.635 106.935C106.945 108.135 106.732 109.515 106.268 110.346C105.928 110.957 104.981 112.105 104.445 112.453C104.365 112.292 104.315 112.183 104.232 111.985L104.023 111.597C103.643 111.859 102.734 113.756 102.659 114.071C102.308 113.98 101.144 112.682 100.805 112.344L99.1139 110.453C98.5934 109.779 98.0615 109.066 97.6339 108.351C97.3553 107.885 96.5554 106.471 96.4369 105.964L97.2054 105.962ZM30.0421 102.465C30.6611 101.929 30.809 102.874 31.5636 102.634C33.0738 102.154 35.5491 101.653 37.1175 102.376C37.0068 102.457 37.1717 102.367 36.9529 102.471C36.505 102.683 36.2969 102.602 35.9267 102.805L37.3737 103.064C37.3668 105.803 36.0338 108.558 34.1982 110.381C33.6215 110.954 33.1215 111.59 32.0894 111.683C32.0874 111.249 32.0776 111.294 32.3154 111.056C33.0298 110.342 33.4407 109.729 33.8545 108.757C34.3571 107.577 34.531 107.272 33.8496 107.366C31.4915 107.693 32.6983 107.986 32.0353 105.761C31.9664 105.531 31.9086 105.383 31.8344 105.194C31.7372 104.945 31.7408 104.873 31.5771 104.684C30.4661 105.26 29.9574 106.817 29.4463 107.417C29.4284 107.405 29.4014 107.394 29.3884 107.389C29.3754 107.384 29.3457 107.369 29.3294 107.362C29.3131 107.355 29.2874 107.344 29.2691 107.337L26.5485 106.306L27.8462 104.788C28.0599 104.568 28.1226 104.535 28.3503 104.355C28.5494 104.197 28.6428 104.091 28.8607 103.927L30.552 102.89C30.3895 102.7 30.328 102.543 30.0421 102.465ZM104.529 98.6301C104.541 98.6639 104.585 98.8132 104.589 98.8275C104.621 98.9466 104.641 99.0644 104.669 99.173C105.396 102.071 109.224 103.624 111.746 102.089C111.926 101.979 112.086 101.873 112.254 101.747C112.471 101.586 112.51 101.494 112.719 101.357C112.861 102.014 113.233 102.536 113.042 103.297C112.831 104.139 110.329 105.768 107.847 104.868C105.185 103.902 104.461 100.994 104.448 98.4519L104.504 98.5689C104.511 98.5857 104.522 98.6109 104.529 98.6301ZM105.045 96.6616C105.481 96.2869 105.967 96.0418 106.517 95.8314C107.948 95.2829 109.698 95.3762 111.01 96.1519C111.62 96.5124 112.23 96.9826 112.67 97.5621C113.797 99.0436 114.037 101.653 113.484 102.295C113.45 100.889 112.105 98.8328 110.729 98.1403C110.341 97.945 109.32 97.6877 108.966 97.6857C108.325 97.682 107.425 97.9164 106.949 98.1395L105.386 98.9662C105.207 98.1763 105.134 96.7999 105.045 96.6616ZM24.3445 102.111C24.0263 101.855 23.145 101.335 22.9683 101.1C24.2655 99.1986 27.1521 97.6848 30.3834 97.6848C30.3532 97.3264 30.0226 96.8427 29.8356 96.5283C28.2978 93.9453 29.7126 94.807 31.6651 94.7813C31.7139 95.5072 32.3159 97.043 32.6885 97.6828C33.5116 99.0951 33.7694 98.9491 34.5599 99.6488C34.4963 99.7047 34.6259 99.7932 34.1237 99.7556C33.8806 99.7373 33.6508 99.7005 33.512 99.6736C32.6465 99.5073 31.4557 99.0587 30.9768 98.3695C30.3871 98.6595 29.7994 98.5526 28.3198 99.5452C27.5879 100.036 27.0161 100.68 26.5531 101.446C26.3523 101.777 26.2802 101.926 26.1189 102.292C26.0032 102.556 25.8994 102.902 25.7821 103.149C25.1647 103.099 24.7843 102.467 24.3445 102.111ZM25.7813 69.0109C25.7813 68.3291 25.8904 67.182 25.9772 66.4744C26.4383 62.7075 27.2703 59.0561 28.7042 55.5519C29.3461 53.9843 30.429 51.4311 31.3054 49.9626C31.6475 49.3893 31.9436 48.796 32.3102 48.2377C33.5951 46.2794 35.3361 43.6882 37.0104 42.0216C37.2772 41.7561 37.3928 41.5567 37.6498 41.2965C40.0649 38.8493 43.0057 36.3389 45.9527 34.5902C48.3015 33.196 50.629 31.8955 53.2334 30.9593C58.0758 29.2179 59.4858 29.1107 64.3534 28.4345C65.1883 28.3187 66.1006 28.3477 66.8857 28.2416C68.4741 28.028 70.6929 28.3008 72.2319 28.3029C72.7838 28.3037 72.6176 28.3603 73.0839 28.3876C77.0727 28.6229 83.1405 30.3627 86.6357 32.1427C87.201 32.4305 87.7736 32.7127 88.3409 32.9966C90.4994 34.0752 94.3025 36.6488 96.0329 38.1809C97.0995 39.1258 99.2434 40.8736 100.017 41.8731C100.359 42.3156 100.863 42.789 101.269 43.265L103.494 46.1562C104.29 47.3327 106.336 50.6876 106.799 51.8083C106.949 52.1712 107.032 52.34 107.205 52.683C107.497 53.2642 107.774 53.8355 108.006 54.4411L108.746 56.3439C111.14 62.5755 111.761 69.7808 110.909 76.589C110.525 79.6503 109.963 82.0703 109.043 84.9603C108.444 86.8448 107.596 88.6305 106.722 90.4032C106.435 90.9847 106.131 91.5364 105.818 92.0589L103.819 95.1769C102.881 96.5899 100.428 99.458 99.1448 100.739C95.791 104.085 91.8552 107.164 87.2894 109.434C84.4976 110.822 82.9055 111.375 79.8938 112.271C78.5677 112.665 77.1574 112.92 75.6782 113.17C74.3423 113.396 72.4754 113.644 71.0387 113.644L68.9094 113.734C67.0707 113.628 64.8763 113.593 63.1585 113.343C55.3655 112.204 49.2996 109.936 43.0962 105.268L40.271 102.975C39.9872 102.763 39.8649 102.585 39.5998 102.368C39.0243 101.899 38.6517 101.426 38.2742 101.135C37.6592 100.661 35.701 98.3997 35.1916 97.7362C30.9454 92.2049 28.5348 87.0234 26.9575 80.3795C26.5946 78.8507 25.8599 74.2368 25.8644 72.5127C25.866 72.0172 25.7813 71.6706 25.7813 71.3153V69.0109ZM111.866 61.5001C112.639 61.9156 113.732 62.3846 114.847 62.4396C117.945 62.5937 121.779 61.5237 121.749 57.8295C122.655 57.8356 124.025 58.8139 124.392 59.3673C124.349 59.9093 123.863 60.7799 123.622 61.1567C121.373 64.6682 116.545 65.4186 113.104 62.8193C112.802 62.5909 111.953 61.8353 111.866 61.5001ZM15.4673 62.5245C15.3887 62.2162 14.478 61.2619 14.0545 59.7592C13.7837 58.7976 13.681 58.0105 13.8223 57.0359C13.8622 56.7606 13.8631 56.4531 14.0195 56.2088C14.5314 56.3357 15.0164 56.635 15.5182 56.843L16.9155 57.4897C16.3274 58.4032 15.4783 59.8154 15.8909 61.4198C16.2542 62.832 17.3749 63.6553 18.7857 63.5485C20.2991 63.4334 21.3217 62.6439 21.9986 61.6399C23.0982 60.0079 22.46 58.7816 22.2014 57.661C23.1406 57.8816 23.8936 58.1296 24.746 58.4399C25.3097 58.6451 25.4225 58.6511 25.4998 58.9664L25.506 60.8835C24.8071 66.038 17.4397 66.1604 14.3474 62.2818C14.0838 61.9515 13.956 61.6204 13.7645 61.2407C14.2459 61.292 14.7786 62.0502 15.4673 62.5245ZM111.523 60.649C111.523 58.8457 112.009 57.8552 112.949 56.9547C114.858 55.125 118.802 54.9997 121.035 55.9034C121.919 56.2611 123.547 57.2214 123.798 58.1741C123.353 58.1341 122.991 57.5579 121.395 57.1643C120.238 56.8797 119.108 56.8907 117.948 57.1819C116.366 57.5791 115.031 58.3454 114.305 59.8489C114.118 60.2371 113.784 61.4075 113.999 61.8467C112.901 61.8263 112.206 61.1045 111.523 60.649ZM25.357 57.4902C24.3367 57.4636 21.5722 56.5481 20.6115 56.0972C20.3496 55.974 20.1419 55.8945 19.902 55.7832C18.3068 55.0434 15.9756 53.2144 14.9554 51.6876C15.3313 51.717 16.9221 52.3418 17.3684 52.5155C20.1997 53.6181 22.1664 54.1691 25.2702 54.1609C25.2702 54.5903 25.3565 54.8158 25.3565 55.3562L25.357 57.4902ZM25.8676 56.8879C25.8587 55.5413 25.7663 54.5973 25.5866 53.4175C25.3528 51.885 24.9753 51.3862 24.7562 50.4924L26.3307 51.2227C26.8471 51.4348 27.3227 51.7451 27.7407 52.0294C27.7472 53.6218 26.5897 56.3728 25.8676 56.8879ZM107.69 48.8693C107.976 48.7939 108.718 48.3314 109.025 48.1601L113.068 46.2354C114.417 45.6836 117.742 44.567 119.276 44.4308C119.206 44.7652 119.021 44.9459 118.853 45.2003C119.055 45.5796 119.317 45.819 119.57 46.1893C121.57 49.1213 120.289 51.6664 117.423 53.4118C114.438 55.2298 109.539 54.6866 108.71 51.0898C109.037 51.0604 109.409 50.9438 109.734 50.9189C109.154 49.8076 107.851 49.5006 107.69 48.8693ZM31.4227 43.1365C31.5518 43.338 31.6312 43.457 31.7535 43.6581C31.9388 43.9635 32.2442 44.4659 32.2613 44.9446L31.7111 45.2497C30.6546 45.7121 29.1376 47.0758 28.938 48.0166C29.5701 48.4492 29.9032 48.2197 30.0417 48.6133C29.8612 48.7009 29.0271 48.8489 28.7658 48.8701L28.7625 50.4051C28.4391 50.0263 28.255 49.5732 28.2522 48.868C24.2675 48.8995 20.0205 47.1558 18.1129 43.4946L19.4475 42.7833C19.7575 42.6096 20.5357 42.1965 20.8371 42.1288C21.7905 43.9313 22.8482 45.4006 24.5363 46.5322C25.418 47.1235 26.9987 47.7581 28.0823 47.8466L28.6236 46.0848C28.835 45.4638 29.0846 45.0279 29.3644 44.5201C27.4413 44.3309 25.4531 43.579 24.1111 42.7768C23.0196 42.1239 20.9785 40.2183 20.7569 39.1433C20.9564 39.0398 21.1682 38.9769 21.4069 38.8574C21.6398 38.7409 21.8194 38.6487 22.0316 38.5422C22.2931 38.4117 23.0009 38.0039 23.2249 37.9476C23.4301 38.34 23.7344 38.7735 24.0032 39.1294C25.0156 40.4703 25.0792 40.4601 26.2269 41.5971C26.8703 42.2344 28.2159 43.1141 29.0036 43.5961C29.538 43.9231 29.7269 44.1719 30.6021 43.0292C30.7992 42.7723 30.809 42.7315 31.0619 42.5554C31.211 42.7642 31.2794 42.9135 31.4227 43.1365ZM26.3792 35.0458C26.3755 34.2901 25.8269 32.6386 26.1653 32.1011C27.6425 29.7566 31.6736 29.967 31.7473 33.3379C32.03 33.2678 32.1981 33.1568 32.5101 33.0777C34.5391 32.5623 36.0965 33.6915 36.8267 35.593C37.254 36.7059 37.2455 38.0664 36.7888 39.0683C36.2041 40.3521 35.4245 40.5266 34.5587 40.9335C34.63 40.1249 36.0599 39.4423 36.0928 38.0317C36.132 34.7721 32.1175 34.5124 31.4028 37.2589C31.0086 38.773 31.718 39.1359 32.6283 39.5405L33.9661 39.9928L33.4521 43.1532C32.5223 42.517 31.7868 42.106 30.7471 41.3373L29.4659 40.3166C28.297 39.2326 27.1469 38.0957 26.406 36.6382C25.949 35.7398 25.2718 34.443 25.1826 33.4252C25.4616 33.4961 25.4314 33.5614 25.5817 33.7946L26.0859 34.6531C26.1784 34.7954 26.1315 34.7301 26.2244 34.8561L26.3792 35.0458ZM96.6088 35.4719C97.1191 34.6852 98.8748 32.4717 99.5696 31.7801C99.805 31.5456 99.8791 31.4657 100.153 31.2541C100.388 31.0726 100.47 30.9381 100.685 30.7639C101.487 30.1109 102.352 29.5507 103.389 29.1196C104.329 28.7302 105.771 28.2473 106.835 28.2152C107.082 29.2554 107.046 29.7285 106.831 30.7725C106.734 31.2427 106.415 32.6397 106.238 32.995C107.594 33.0031 108.677 32.3042 111.777 33.0826C111.785 33.9382 111.234 35.2345 110.928 35.8116C110.491 35.7113 110.655 35.5893 110.245 35.5572C110.185 35.8141 110.045 36.1024 109.934 36.354C109.813 36.6252 109.751 36.8082 109.622 37.066C109.192 37.9305 108.07 39.5801 107.434 40.0813C106.954 40.4597 105.066 42.1064 104.347 42.159C104.053 42.1802 102.009 40.7513 101.89 40.5939C102.082 40.5033 102.3 40.4707 102.543 40.3904C103.695 40.0086 105.408 39.2138 106.374 38.5088L107.798 37.3739C108.439 36.8351 109.304 35.9445 109.733 35.2998C109.326 35.0857 108.473 34.8798 107.93 34.8027C107.183 34.6963 106.578 34.7085 105.729 34.7032C105.453 35.2133 105.261 35.7888 104.99 36.3544C104.748 36.8625 104.461 37.4371 104.108 37.8616L101.043 37.8604C101.126 37.5207 102.364 36.2072 102.678 35.8316C102.877 35.5938 103.056 35.4103 103.084 35.0486C102.916 35.1278 102.32 35.2081 101.124 35.8116C101.222 35.4376 101.545 35.2917 101.825 35.0621C103.213 33.919 104.065 34.0177 104.449 33.3388C104.986 32.3873 106.062 30.5641 106.07 29.156C105.455 29.2057 104.126 30.0392 103.694 30.3638C102.31 31.4058 101.312 32.5961 100.447 34.1086C99.8856 35.0906 99.6466 35.9082 99.3366 36.4943L96.6088 35.4719ZM93.4537 33.4239C93.4965 32.9244 93.986 32.5884 94.287 32.2936C95.5536 31.0514 97.332 28.2038 98.1702 26.5382C98.7787 25.3291 98.9689 24.3704 99.2503 23.7783C99.7647 23.901 101.824 24.2252 102.063 24.3769C101.853 25.3039 101.132 26.6451 100.664 27.4142C100.091 28.357 99.4213 29.107 98.6748 29.8602C97.9019 30.6403 97.2209 31.2764 96.2854 31.9053C95.8097 32.225 94.0043 33.3795 93.4537 33.4239ZM79.3908 22.8436C79.3949 23.8171 78.6638 24.757 78.079 25.1962C76.0162 26.7455 72.9458 26.2393 72.4926 25.5661C72.2351 25.184 72.2372 23.0121 72.2291 22.2442C73.1548 22.7367 73.9282 24.1029 75.6342 24.3015C76.81 24.4381 77.8086 24.1196 78.6859 23.4145C78.9106 23.2339 79.1791 22.9777 79.3908 22.8436ZM44.8711 22.8412C44.9663 21.871 45.2083 20.7626 45.4807 19.9495C45.9185 18.6429 45.9963 18.7485 46.5766 17.6323C46.7754 17.689 48.5022 18.6531 48.7168 19.0878C48.9086 19.4772 48.639 19.4801 48.5389 19.8541C48.8052 20.208 49.654 20.7271 50.1569 21.3894C50.7495 22.1691 50.8285 22.0651 51.4846 23.1332C52.7166 25.1395 52.6136 25.8629 53.0571 27.7094C52.6319 27.9207 52.223 28.251 51.8499 28.5475C51.4146 28.8933 51.1083 29.2228 50.754 29.4133C50.7478 27.5068 50.5161 25.6905 50.0412 24.2371C49.7823 23.4451 48.6835 20.841 48.0265 20.3674C47.5427 20.6961 46.1054 23.4292 46.3881 23.9622C46.5595 24.2856 48.1439 25.4866 48.6455 26.2389C48.9282 26.663 48.2412 28.2645 48.0754 28.864L47.8579 29.4977C47.4115 28.656 46.8739 27.9349 46.391 27.1247C46.2362 26.8649 46.1225 26.5897 45.8957 26.4274C45.7267 28.5084 45.8586 27.2658 45.9808 28.7294C44.8882 27.9358 45.6265 25.9856 44.399 24.3394C43.8549 23.6103 41.8068 22.2234 41.039 21.8192C41.0199 23.9255 42.3028 26.6891 43.4497 28.0214C44.6014 29.359 44.7057 29.3509 45.9743 30.4434L46.0672 30.5216C45.8562 30.8287 44.5741 32.6231 44.2764 32.8261C43.6713 32.393 41.9783 29.5865 41.5763 28.7869C40.2103 26.071 39.8384 23.7664 40.5259 20.7916C41.1649 21.0975 41.5522 20.8747 43.8879 22.2902C44.1713 22.4615 44.5868 22.7616 44.8711 22.8412ZM87.0637 23.0968C87.8513 23.0968 88.2207 23.2282 88.7522 22.4007L89.6665 21.0106C90.1483 20.3715 91.3221 18.9753 91.9224 18.5731C91.7985 19.0952 91.1502 20.1456 90.8994 20.7084L90.0436 22.9288C92.7731 22.8889 94.3082 21.0587 95.5853 20.1958C95.9547 20.3899 97.5829 21.5326 97.7169 21.7332C97.2176 21.9868 96.8356 22.2196 96.3249 22.4717C95.4171 22.9202 94.414 23.4003 93.437 23.6763L91.8344 24.1209C92.3252 24.8467 92.6135 24.9539 93.0183 26.1798C93.6512 28.0961 93.6052 28.9753 93.4553 30.8646C92.6176 31.2544 91.4458 31.3724 90.2156 31.3764C90.3495 30.7957 91.2557 29.4063 91.6055 27.3049C91.7391 26.5032 91.7016 25.5534 91.4654 24.8328C91.1347 23.8231 90.9368 23.9512 89.7053 23.9504C89.0003 25.2733 88.683 26.8641 88.6818 28.9006C88.1657 28.9002 87.5333 29.0282 87.058 29.067C86.4023 29.1205 85.9453 28.9834 85.4416 28.9875C85.6822 27.9879 86.0451 26.995 86.465 26.1688C88.1507 22.8477 87.9784 23.9051 87.0637 23.0968ZM55.2701 16.6109C55.341 16.3091 55.7177 15.597 55.8709 15.332C56.2814 14.6215 56.3922 14.6579 56.6365 14.3088C60.4778 14.5804 62.9401 20.571 60.9832 24.5506C60.7266 25.0722 59.9296 26.2732 59.3615 26.4253C60.2966 24.664 60.3894 22.0064 59.5827 19.9735C58.3547 16.8804 55.9393 16.9212 55.3769 16.6753L55.2701 16.6109ZM52.9703 19.9392C52.9703 19.1118 53.3955 17.6959 53.6509 17.123C53.9493 16.4538 54.526 15.5465 55.1024 15.1594C55.029 15.4686 54.9166 15.5763 54.7945 15.8776C53.8334 18.2469 54.2886 22.3155 56.4141 23.9162C57.1993 24.5074 58.009 24.8022 59.3615 24.8039C59.344 25.6366 58.6142 26.5742 58.2526 27.1087C56.3694 27.1076 55.3215 26.493 54.4434 25.4633C53.0335 23.8106 52.9695 21.8942 52.9703 19.9392ZM72.9108 16.1851C72.954 16.0811 72.9023 15.991 73.3263 15.9845C73.7107 15.9783 73.481 16.1194 73.7905 15.8727C74.0935 15.6313 74.1114 15.4938 74.5142 15.2272C76.2883 14.0523 78.8565 13.554 80.6709 14.7338L79.3061 17.2075C78.6581 16.7747 78.0941 16.409 77.2307 16.13C76.5469 15.9094 75.1964 15.7723 74.5329 16.101L76.1718 17.36C77.6001 18.6066 78.6423 19.914 79.3029 21.7438C79.5065 22.307 79.1594 22.4326 78.6854 22.8162C78.501 22.9655 78.3214 23.081 78.1161 23.1866C77.7992 23.3497 77.137 23.609 76.6646 23.6098C76.7204 22.9549 76.8319 22.0215 76.716 21.2528C76.4153 19.264 75.5874 17.78 73.9367 16.6965C73.3458 17.0916 73.3356 17.6478 72.9153 18.1474C72.908 17.1992 73.2024 17.1552 73.3364 16.5256C73.1926 16.3539 73.1739 16.2532 72.9108 16.1851ZM64.9057 13.5417C65.1268 13.4267 65.3597 13.3908 65.583 13.2836C65.7197 13.861 65.945 14.3961 66.0761 15.009C66.4475 16.7511 66.351 17.6499 66.351 19.427C66.351 20.8886 65.6338 23.8639 64.9337 25.2631C64.8641 25.4021 64.8348 25.478 64.7484 25.6007C64.4776 25.9845 64.6438 25.7712 64.5627 25.7426C64.2125 25.6023 64.4091 25.7398 64.4418 25.3887C64.5875 23.8309 64.313 20.396 64.131 19.0902C63.988 18.0663 63.6842 16.6031 63.3087 15.6468C63.1878 15.3385 62.9675 14.9601 62.9418 14.6497L64.9057 13.5417ZM68.6525 13.282C69.5456 13.5079 69.8905 13.5095 70.6 13.9781C70.9078 14.1815 71.0802 14.3634 70.9743 14.7435C70.631 15.9742 69.5056 17.9737 68.0559 18.3187C68.1523 17.2303 68.6529 17.2042 68.6521 13.7946L68.6525 13.282ZM66.0223 10.621C65.3349 10.7602 63.4968 10.7667 62.6612 10.8666C61.5176 11.0028 60.4644 11.1337 59.4251 11.3004C56.3779 11.7899 53.4733 12.4378 50.6371 13.4202C48.1971 14.2651 46.5127 14.8361 44.1058 16.0125C38.9303 18.5418 34.1221 21.6626 29.845 25.4604C29.2321 26.0049 28.6277 26.6973 27.9712 27.2552C27.8372 27.369 27.6661 27.4799 27.5101 27.6393L24.8943 30.4866C24.2463 31.3634 23.4566 32.1006 22.8135 33.0137C21.7901 34.4663 20.7577 35.7778 19.7932 37.3298C17.913 40.3553 16.2134 43.5956 14.8593 46.9795C12.9329 51.7928 10.862 59.284 10.785 64.7477C10.7765 65.3574 10.6518 65.4797 10.6604 66.3655C10.6664 67.0123 10.6119 67.6089 10.6086 68.243C10.579 74.0688 11.281 78.7263 12.7069 84.413C14.3417 90.9317 18.2285 98.6942 22.2711 104.017C24.1013 106.427 26.0725 108.602 28.2335 110.764C28.4807 111.011 28.8162 111.407 29.1771 111.696C30.4005 112.674 31.6035 113.851 33.1052 115.013C33.9294 115.65 34.4553 116.011 35.2213 116.569C35.5621 116.817 35.884 117.052 36.2704 117.309C37.9202 118.409 39.6169 119.462 41.3543 120.411L44.3872 121.98C45.236 122.398 46.11 122.748 46.9326 123.098C51.5204 125.051 59.566 127.147 64.7342 127.213C65.2897 127.22 65.7854 127.3 66.4365 127.3H70.1011C72.6942 127.3 76.0504 126.913 78.444 126.52C79.4409 126.356 80.536 126.141 81.5278 125.937C83.4488 125.542 85.3841 125.102 87.2588 124.427C89.0356 123.787 90.8415 123.197 92.5756 122.408C95.064 121.276 97.4592 120.075 99.7118 118.628C101.152 117.703 102.688 116.7 104.036 115.621C105.374 114.551 106.762 113.536 107.963 112.3L112.049 108.198C112.197 108.034 112.355 107.908 112.526 107.737L114.175 105.802C116.719 102.745 118.837 99.4469 120.7 95.8665C121.531 94.2679 122.288 92.5474 123.016 90.8473C124.52 87.335 125.598 83.3001 126.329 79.5696L127.023 74.8864C127.224 73.1101 127.291 71.3761 127.291 69.6083C127.291 69.0109 127.289 68.4135 127.292 67.8161C127.302 65.3142 126.863 61.9711 126.5 59.4765C126.216 57.5301 125.744 55.3415 125.211 53.4294C124.187 49.7579 122.879 46.1942 121.217 42.8299C119.245 38.8371 116.888 35.1444 114.095 31.7858C113.079 30.5633 110.48 27.5896 109.243 26.5737L107.796 25.2912C106.882 24.3969 105.815 23.6221 104.805 22.8261C101.967 20.5893 99.089 18.7579 95.9889 17.0618C95.604 16.8511 95.1984 16.6761 94.7895 16.4693L92.945 15.5848C88.7889 13.6167 84.2817 12.2262 79.7011 11.4334C76.1938 10.8258 73.1459 10.5534 69.59 10.5534C68.5205 10.5534 66.979 10.4278 66.0223 10.621Z" fill="#192D2B"/>
<path fill-rule="evenodd" clip-rule="evenodd" d="M57.508 80.7665C57.427 79.34 60.0298 78.1179 60.9857 77.5498C63.3979 76.1156 68.7245 74.8236 71.5517 74.8094C73.7929 74.7979 74.8734 75.9129 75.8228 77.1914C77.0237 78.8087 77.4555 81.0319 74.3623 80.2772C73.5514 80.0794 72.6738 79.7633 71.7892 79.5281C71.0333 79.327 69.6946 79.141 68.9041 79.088C60.0738 78.493 59.4918 80.9496 57.508 80.7665ZM56.2162 79.5822C56.5318 78.3005 56.9912 77.4776 57.6832 76.5458C59.0512 74.7034 60.2734 73.4624 62.1765 72.1701C65.2562 70.0786 68.3092 69.1561 72.0755 68.7703C72.4209 68.7352 73.9391 68.6688 74.1595 68.6997C74.6295 68.7662 74.6873 68.727 74.8986 69.0717C75.6725 70.3317 75.6892 72.3087 75.2941 73.694C71.0643 73.8682 67.6428 74.0843 64.2299 75.1649C59.32 76.7208 58.9335 78.1488 56.2162 79.5822ZM59.6417 73.0787C59.3176 70.5189 62.0422 67.9164 63.6394 66.8064C64.4865 66.2175 66.1584 65.3546 67.5215 65.5345C68.9828 65.7273 70.185 66.3904 69.9891 68.1272C69.579 68.44 66.0639 69.0741 64.2821 70.0965C63.0692 70.7922 60.24 73.1015 59.6417 73.0787ZM29.9558 71.7419C29.9558 70.1747 30.4099 67.4751 30.8081 65.9378C31.8666 61.8516 33.4643 58.6529 35.7845 55.3884C36.3409 54.6054 38.6761 51.6709 39.2707 51.1122C40.3186 50.1274 40.756 49.5022 42.1216 48.5039C45.7801 45.8304 51.7477 44.8574 56.0081 46.6839C57.8888 47.4905 59.8922 48.8326 61.1633 50.3936C63.9307 53.7939 64.3102 57.6932 62.6672 61.7358C61.4321 64.7738 58.7523 67.9057 55.5508 69.1194C52.989 70.0908 49.9345 70.2898 47.2254 69.3873C45.8468 68.9277 43.6493 67.7712 42.5891 66.7709C42.3459 66.5413 41.5261 65.7644 41.2965 65.6824C39.6405 68.3849 37.9064 73.1077 37.8868 77.1187C37.8836 77.7994 37.7443 77.9739 37.8563 78.7687C37.928 79.2764 37.906 79.9371 37.9593 80.4565C38.0762 81.5915 38.2253 82.4976 38.4461 83.5754C38.5991 84.3229 39.0072 85.5736 39.287 86.2983L40.317 88.7634C41.2235 90.9093 43.0216 93.4347 44.4458 95.2988C45.1398 96.2073 47.113 98.44 47.7992 99.0224C49.9871 100.88 50.9539 102.01 53.7673 103.715C56.7383 105.516 58.8524 106.608 62.1867 107.742C62.9048 107.987 63.2607 107.966 63.4297 108.323C59.4353 108.228 55.6937 107.09 52.1956 105.624L50.1548 104.601C49.2023 104.113 48.4073 103.608 47.4841 103.012C46.3897 102.306 44.2499 100.631 43.3153 99.7548L39.6401 96.0985C37.651 94.0293 34.926 89.9241 33.5938 87.3891C32.5345 85.3726 31.887 83.5465 31.1841 81.3537C30.0351 77.7683 29.9558 75.3701 29.9558 71.7419ZM101.308 53.1422C102.098 54.1695 103.582 57.301 104.17 58.7075C107.262 66.0964 107.401 72.6697 105.152 80.4656C104.273 83.5085 103.384 86.1808 102.065 88.8112C99.5167 93.8931 96.5 97.8406 91.838 101.359C84.726 106.729 73.9334 108.708 64.5533 106.912C63.0367 106.622 61.5493 106.036 60.3284 105.422C58.8858 104.697 58.0155 104.101 56.8808 103.158C55.9246 102.363 54.9521 101.241 54.2137 100.11C53.4607 98.9556 52.8677 97.6106 52.489 96.1172C51.3274 91.5418 52.6588 86.5119 56.4728 83.6989C60.2184 80.9361 65.9457 80.4619 70.185 82.1526C75.3165 84.1989 77.9373 89.0374 77.7751 94.5313C77.7523 95.3037 77.4286 96.618 77.4436 97.076C79.4307 97.1787 84.4267 95.8526 86.4414 94.9326C88.2505 94.1068 89.063 93.7699 90.8101 92.5625C95.1145 89.5868 98.6427 84.9905 100.599 79.922C102.474 75.0618 102.913 72.1461 103.336 66.8737C103.459 65.3513 103.24 61.8769 103.05 60.4263C102.767 58.258 102.403 56.841 101.857 54.8774C101.711 54.3518 101.349 53.5733 101.308 53.1422ZM69.5053 32.7417C70.0009 32.7388 70.3377 32.8265 70.6977 32.8269C72.6416 32.8294 74.7301 33.1997 76.4585 33.543C78.1548 33.8803 80.0152 34.4092 81.5094 34.9732C84.7423 36.1942 87.3854 37.6064 89.9251 39.5185C92.7422 41.6387 94.2564 43.4591 96.2528 46.1521C97.1016 47.2972 98.0647 48.9198 98.6056 50.2844C100.547 55.1784 99.8901 61.3659 96.2434 65.147C95.916 65.4871 95.8704 65.667 95.4635 65.9867C95.1218 66.2558 94.9361 66.4503 94.59 66.7342C91.8531 68.9778 88.2378 69.9354 84.7431 69.1145C81.5579 68.3666 78.0716 65.7542 76.2047 63.0709C75.9584 62.7165 75.7991 62.4531 75.5711 62.0828C74.4678 60.2922 74.1937 58.3221 74.1913 56.0388C74.1871 52.0685 76.7619 48.2148 80.0782 46.2297C80.3955 46.0397 81.2455 45.6139 81.432 45.3712C80.2099 43.4488 75.2954 40.7704 73.3425 39.9067C71.8385 39.2412 69.9647 38.6376 68.0933 38.335C67.0438 38.1655 66.1315 38.0443 64.9843 38.0329C64.445 38.0276 64.019 37.9408 63.3654 37.9432C61.4756 37.9497 58.7295 38.2763 56.9391 38.6777C54.9003 39.1348 54.5346 39.2485 52.6196 39.8998C50.2127 40.7186 47.2356 42.1456 45.1594 43.5255C41.7664 45.7807 38.8468 48.1903 36.2891 51.2847L33.8826 54.4105C34.1384 53.4869 35.6485 50.7203 36.1328 49.9325C37.1888 48.2148 37.6681 47.5787 38.8716 46.0188L41.2337 43.3489C44.959 39.6062 49.5061 36.834 54.4935 35.0336C56.9777 34.1368 62.8229 32.8289 65.5841 32.8257L69.5053 32.7417ZM27.4881 68.4991C27.4898 71.5588 27.4315 73.0252 27.9068 76.2709C28.5136 80.4154 29.6035 84.8698 31.4614 88.5836C33.7429 93.1432 34.3196 93.7199 37.1652 97.3822C37.4078 97.6943 37.5773 97.8288 37.7989 98.1122L40.4192 100.866C40.6757 101.126 40.8444 101.225 41.1014 101.463C41.3775 101.717 41.5066 101.897 41.8039 102.125C42.278 102.49 42.7626 102.936 43.2432 103.33C48.5364 107.668 54.8254 110.277 61.6511 111.439C62.387 111.564 63.2293 111.666 63.9803 111.752C64.7163 111.837 65.6888 111.947 66.4361 111.94L68.9933 112.023C71.3534 112.022 73.5959 111.829 75.9091 111.438C77.2894 111.205 78.6206 110.911 79.8738 110.545C85.3043 108.96 88.4101 107.275 92.8078 104.206L94.1566 103.168C95.0848 102.365 97.269 100.522 97.9226 99.6859L101.25 95.8469C102.732 93.8503 104.334 91.4716 105.447 89.2116C105.605 88.8903 105.683 88.6427 105.84 88.3263C106.669 86.6551 107.242 84.9342 107.826 83.1452C108.662 80.5854 109.565 75.3954 109.565 72.7663V69.3523C109.565 62.4025 107.337 56.0307 104.476 50.8916C102.666 47.6406 99.976 44.238 97.3992 41.6774C96.9631 41.2438 96.6303 40.8605 96.1327 40.4707C95.6854 40.1196 95.2709 39.6649 94.818 39.3126C92.093 37.1912 92.0575 37.1007 89.0079 35.2309C84.8706 32.6936 78.8528 30.7471 74.1 30.1869C72.6444 30.0151 70.2062 29.8382 68.7376 29.8386C68.2737 29.8386 68.125 29.9263 67.6322 29.9275C65.0278 29.9328 62.253 30.3263 59.7525 30.8271C56.8532 31.4078 54.8266 32.152 52.1925 33.2409C47.9385 34.9989 44.8946 37.1606 41.5245 39.9691C41.2187 40.224 41.1193 40.2913 40.8448 40.5694L38.9298 42.4073C38.6997 42.6418 38.6016 42.8131 38.3735 43.0455C37.5419 43.8922 36.1955 45.5702 35.5328 46.516C35.1842 47.0134 34.8397 47.46 34.5106 47.9673C31.5086 52.5957 28.9815 58.4873 28.0204 63.9991C27.7952 65.2894 27.4869 67.1179 27.4881 68.4991Z" fill="#192D2B"/>
<path fill-rule="evenodd" clip-rule="evenodd" d="M6.00364 65.9385C6.0012 64.2164 6.43576 60.8492 6.72537 59.0614C8.73313 46.6583 14.2027 35.1065 22.8217 26.022C24.3456 24.4153 27.0361 21.8665 28.6651 20.5232C30.0787 19.3577 31.4036 18.3811 32.9161 17.2699L35.2135 15.73C36.0203 15.2545 36.7741 14.7684 37.548 14.3141C38.3487 13.8443 39.1856 13.4459 39.9647 12.9766C40.7479 12.5047 41.6919 12.1422 42.4856 11.7458C47.5582 9.21418 54.4454 7.40518 60.0177 6.59818C61.5689 6.37347 65.3654 5.94769 66.8625 5.94651C70.8309 5.94361 73.0753 5.84208 77.1292 6.41468C83.7986 7.35663 90.3283 9.13384 96.3237 12.116C99.8359 13.8631 102.889 15.7357 105.838 17.9525C108.648 20.0653 113.518 24.1229 115.943 26.949L116.869 27.9864C117.182 28.3241 117.456 28.6295 117.734 28.9977L119.428 31.1403C120.971 33.2237 122.684 35.8801 123.912 38.1744C125.408 40.9723 126.427 42.9958 127.595 46.0037C129.776 51.6199 131.146 57.0236 131.644 63.1166C131.856 65.7154 131.805 65.8827 131.805 68.5844C131.805 73.5216 131.236 78.1599 130.353 82.4878C129.5 86.6694 128.148 90.5818 126.642 94.1349C124.479 99.2402 121.503 104.283 118.004 108.529L116.664 110.089C116.478 110.313 116.44 110.389 116.234 110.596C115.601 111.23 115.019 111.869 114.396 112.512C113.457 113.48 112.337 114.438 111.415 115.33C111.144 115.592 110.696 115.981 110.414 116.201C110.075 116.466 109.73 116.81 109.366 117.117L106.178 119.643C100.108 124.14 93.2293 127.804 85.6288 129.79C82.9136 130.499 78.8068 131.375 75.8973 131.566C74.8001 131.639 73.5278 131.819 72.4026 131.819L69.6751 131.907C68.2447 131.946 66.4825 131.815 65.0726 131.738C63.8104 131.669 62.719 131.602 61.5073 131.468C53.5082 130.578 47.6147 128.633 40.6094 125.251C39.7932 124.857 38.8985 124.362 38.1222 123.903C36.4109 122.889 34.9908 121.987 33.4207 120.93C31.1108 119.374 28.4831 117.233 26.358 115.373C26.1751 115.213 26.0618 115.073 25.8803 114.911L21.1201 110.035C19.9818 108.805 18.7372 107.069 17.7113 105.681C14.4625 101.289 11.6744 95.6288 9.76799 90.4219C7.79769 85.0398 6.01794 76.8525 6.00446 71.0593L5.92176 69.0966C5.90674 67.7271 6.00527 67.1305 6.00364 65.9385ZM0.814288 68.6695C0.976783 69.6838 0.938965 71.6363 0.979679 72.7684L1.32946 76.6828C2.03572 83.1554 3.97182 90.9753 6.72247 96.8032C8.08523 99.6912 8.82442 101.158 10.3838 103.803C10.664 104.278 10.9397 104.678 11.2029 105.115C11.9722 106.39 13.791 108.972 14.7208 110.128C18.1202 114.359 20.7751 117.351 25.031 121.053L28.5992 123.882C31.8695 126.198 34.1197 127.663 37.8567 129.548C42.9821 132.133 47.3622 133.837 53.4102 135.225C57.9173 136.259 63.4219 136.946 68.6524 136.946C69.8364 136.946 71.8026 137.063 72.8917 136.922C73.3751 136.859 74.3574 136.788 74.873 136.772C75.5841 136.75 76.1572 136.659 76.8324 136.601C81.1388 136.23 86.7757 134.795 90.7367 133.456C94.0919 132.322 99.5574 129.96 102.473 128.221C104.561 126.977 108.252 124.803 110.209 123.166C111.002 122.503 111.785 121.944 112.576 121.27C113.37 120.592 114.073 119.942 114.861 119.289L120.064 113.919C122.238 111.673 126.447 105.733 128.086 102.747C130.585 98.1942 132.342 94.6105 133.887 89.4399C134.065 88.843 134.218 88.3169 134.366 87.7859C135.915 82.2578 136.92 75.1589 136.918 69.0966C136.918 67.717 136.99 66.1868 136.851 64.9024C136.794 64.3791 136.757 63.3616 136.751 62.8666C136.744 62.1974 136.626 61.5706 136.578 60.9067C136.324 57.3723 134.701 50.2958 133.454 46.9658C132.682 44.9047 132.013 42.8494 131.043 40.9327C130.814 40.4805 130.589 39.945 130.361 39.4798C130.134 39.0132 129.894 38.541 129.649 38.0581C128.546 35.8887 127.083 33.3452 125.74 31.3079C124.367 29.2236 121.727 25.6383 120.195 24.0581C119.993 23.85 119.895 23.6768 119.684 23.459L117.123 20.8185C111.764 15.3988 105.053 10.3389 97.126 6.79101C89.7305 3.48176 79.5733 0.849822 71.1241 0.822922C70.4424 0.820839 69.7602 0.822466 69.0785 0.822466C54.476 0.822466 41.1331 5.04196 30.0922 12.9052C28.044 14.3639 24.3249 17.2821 22.4746 19.1897C22.2511 19.4202 22.1602 19.4597 21.9245 19.6616L18.8133 22.8612C18.446 23.2371 18.1606 23.5907 17.7887 23.9683C17.4507 24.3117 17.1342 24.7297 16.8015 25.1146C12.8656 29.6722 9.29109 35.1224 6.88624 40.7044C3.97634 47.4571 2.23404 53.1916 1.312 60.7249C1.23175 61.3826 0.701102 67.9592 0.814288 68.6695Z" fill="#2F80B7"/>
<path fill-rule="evenodd" clip-rule="evenodd" d="M66.0223 10.621C66.979 10.4278 68.5205 10.5534 69.5899 10.5534C73.1458 10.5534 76.1938 10.8258 79.7011 11.4334C84.2816 12.2262 88.7889 13.6167 92.945 15.5848L94.7894 16.4693C95.1984 16.6761 95.604 16.8511 95.9889 17.0618C99.089 18.7579 101.967 20.5893 104.805 22.8261C105.815 23.6221 106.882 24.3969 107.796 25.2912L109.243 26.5737C110.48 27.5896 113.079 30.5633 114.095 31.7858C116.888 35.1444 119.245 38.8371 121.217 42.8299C122.879 46.1942 124.187 49.7579 125.211 53.4294C125.744 55.3415 126.216 57.5301 126.5 59.4765C126.863 61.9711 127.302 65.3142 127.292 67.8161C127.289 68.4135 127.291 69.0109 127.291 69.6083C127.291 71.3761 127.224 73.1101 127.023 74.8864L126.329 79.5696C125.598 83.3001 124.519 87.335 123.016 90.8473C122.288 92.5474 121.531 94.2679 120.7 95.8665C118.837 99.4469 116.719 102.745 114.175 105.802L112.525 107.737C112.355 107.908 112.197 108.034 112.049 108.198L107.963 112.3C106.762 113.536 105.374 114.551 104.036 115.621C102.688 116.7 101.152 117.703 99.7117 118.628C97.4591 120.075 95.0639 121.276 92.5756 122.408C90.8414 123.197 89.0356 123.787 87.2587 124.427C85.3841 125.102 83.4488 125.542 81.5277 125.937C80.536 126.141 79.4409 126.356 78.4439 126.52C76.0504 126.913 72.6942 127.3 70.101 127.3H66.4365C65.7853 127.3 65.2897 127.22 64.7342 127.213C59.566 127.147 51.5204 125.051 46.9325 123.098C46.1099 122.748 45.2359 122.398 44.3872 121.98L41.3543 120.411C39.6169 119.462 37.9202 118.409 36.2703 117.309C35.8839 117.052 35.5621 116.817 35.2213 116.569C34.4552 116.011 33.9294 115.65 33.1051 115.013C31.6035 113.851 30.4004 112.674 29.177 111.696C28.8162 111.407 28.4806 111.011 28.2334 110.764C26.0724 108.602 24.1013 106.427 22.2711 104.017C18.2285 98.6942 14.3416 90.9317 12.7068 84.413C11.281 78.7263 10.5789 74.0688 10.6086 68.243C10.6118 67.6089 10.6664 67.0123 10.6603 66.3655C10.6517 65.4797 10.7764 65.3574 10.7849 64.7477C10.8619 59.284 12.9328 51.7928 14.8592 46.9795C16.2134 43.5956 17.9129 40.3553 19.7932 37.3298C20.7577 35.7778 21.7901 34.4663 22.8135 33.0137C23.4566 32.1006 24.2462 31.3634 24.8942 30.4866L27.5101 27.6393C27.6661 27.4799 27.8372 27.369 27.9711 27.2552C28.6276 26.6973 29.232 26.0049 29.8449 25.4604C34.1221 21.6626 38.9303 18.5418 44.1058 16.0125C46.5127 14.8361 48.1971 14.2651 50.6371 13.4202C53.4732 12.4378 56.3779 11.7899 59.425 11.3004C60.4643 11.1337 61.5176 11.0028 62.6612 10.8666C63.4968 10.7667 65.3348 10.7602 66.0223 10.621ZM7.13131 70.7179C7.24215 71.3692 7.16805 71.9099 7.20098 72.5979C7.22541 73.1064 7.32521 73.8563 7.36104 74.391C7.69951 79.4546 9.08904 85.5835 10.8815 90.2438C12.4657 94.3633 14.7965 99.4294 17.3448 103.063C18.5442 104.774 19.7244 106.533 21.0696 108.123C21.1836 108.258 21.3657 108.516 21.4765 108.656L23.2929 110.672C23.5018 110.885 23.5034 110.961 23.7112 111.195C24.891 112.523 27.7374 115.152 29.2214 116.343C31.0525 117.813 32.8269 119.185 34.748 120.456C36.5644 121.657 40.058 123.821 42.0829 124.715C43.9269 125.529 45.6619 126.341 47.5227 127.037C52.5712 128.926 57.8705 130.166 63.2798 130.547L68.8263 130.803C71.6849 130.759 74.9834 130.489 77.7503 130.097C82.9882 129.354 88.068 127.978 92.9559 125.951C98.1657 123.79 105.359 119.542 109.622 115.582C112.486 112.923 114.598 110.934 117.159 107.684C118.258 106.289 119.469 104.741 120.402 103.165C120.671 102.71 120.922 102.359 121.17 101.968C122.431 99.9767 123.502 97.905 124.557 95.7124C124.971 94.8531 125.402 93.9723 125.764 93.084C127.302 89.2993 128.692 85.3742 129.471 81.3554C130.494 76.0838 130.717 72.7231 130.703 67.1305C130.7 65.9618 130.502 64.6074 130.444 63.4632C130.384 62.2708 130.211 61.1233 130.052 60.012C129.158 53.7776 127.501 47.7209 124.765 42.097C123.116 38.7049 121.167 35.4837 118.957 32.4644L113.634 26.188C113.287 25.8425 113.005 25.5591 112.655 25.2104L108.044 21.1187C105.675 19.2868 103.282 17.3183 100.67 15.8711C99.862 15.4229 99.0976 14.8969 98.2545 14.4499C92.7804 11.5484 87.6595 9.58082 81.3497 8.25257C79.3525 7.83259 76.671 7.41704 74.5317 7.3098C73.3963 7.25265 70.0836 7.02514 68.9917 7.05204C68.4032 7.06626 67.864 7.13201 67.2034 7.13645C58.1837 7.20084 48.9636 9.74593 42.1997 13.0776C40.488 13.9206 38.6786 14.8125 37.1623 15.805C34.7981 17.3526 32.5622 18.8431 30.3756 20.6125L28.303 22.3779C27.6095 22.9248 26.9672 23.6025 26.3099 24.2276C24.1013 26.327 22.1285 28.3428 20.2396 30.7748L18.9815 32.4171C16.1918 36.1395 13.8085 40.4849 12.0837 44.7978C10.5369 48.6658 9.27642 52.4669 8.42766 56.5841C7.92552 59.0199 7.77035 60.9434 7.41559 63.3384C7.26658 64.3432 6.98601 69.8579 7.13131 70.7179Z" fill="#DD0B0E"/>
<path fill-rule="evenodd" clip-rule="evenodd" d="M61.834 98.3748C64.0047 98.3794 64.2829 97.3252 64.8494 95.6695C65.479 93.8307 65.8329 92.9234 67.7854 93.0053C67.9218 95.3808 66.8026 96.2433 66.8698 98.361C67.2726 98.4809 67.5263 98.6281 68.0228 98.7447C71.052 99.4543 75.1935 98.3487 74.6156 102.627C73.6862 102.654 73.1136 102.351 72.4294 102.012C71.7232 101.662 71.3081 101.415 70.4627 101.167C67.4783 100.291 62.8424 99.9746 59.9394 101.257C59.4784 101.461 59.4849 101.444 59.1216 101.086C58.9183 100.886 58.707 100.592 58.6019 100.324C58.3385 99.6496 58.2403 99.0114 58.2623 98.082L61.834 98.3748ZM61.8442 83.9612C65.5157 84.1472 65.8729 83.2594 68.8227 83.2606C70.1039 83.2615 71.7904 84.3184 70.9364 85.209C69.7691 86.4263 66.5322 86.1641 64.7374 86.1678C64.5012 86.9846 64.2641 87.3945 64.098 88.4315C64.0275 88.8719 64.0161 89.3596 64.0756 89.8111C64.1672 90.5072 64.1868 90.7213 64.6641 90.8383C65.8024 91.1168 67.2302 89.8511 68.1654 89.517C70.1804 88.7964 70.9644 91.8019 70.3894 91.9899C70.3739 91.9948 70.3438 92.0079 70.3242 92.0136L70.1858 92.0515C70.1788 92.0531 69.9875 92.0874 69.9658 92.0914L68.459 92.3712C67.1732 92.6065 63.4468 93.0926 62.1769 92.6494C61.5289 92.423 61.5856 89.2238 61.5791 88.2965C61.5762 87.8222 61.6304 86.6049 61.6996 86.1188C61.7945 85.4533 61.7945 84.6401 61.8442 83.9612ZM104.17 58.7075C103.582 57.301 102.098 54.1695 101.308 53.1422C101.349 53.5733 101.711 54.3517 101.857 54.8774C102.403 56.8409 102.767 58.258 103.05 60.4263C103.24 61.8769 103.458 65.3513 103.336 66.8737C102.913 72.1461 102.474 75.0618 100.599 79.922C98.6426 84.9905 95.1145 89.5868 90.8101 92.5625C89.0629 93.7699 88.2504 94.1068 86.4414 94.9326C84.4266 95.8526 79.4306 97.1787 77.4436 97.076C77.4286 96.618 77.7523 95.3037 77.7751 94.5313C77.9372 89.0374 75.3165 84.1989 70.185 82.1526C65.9457 80.4619 60.2184 80.9361 56.4728 83.6989C52.6587 86.5119 51.3274 91.5418 52.4889 96.1172C52.8677 97.6106 53.4606 98.9556 54.2137 100.11C54.952 101.241 55.9246 102.363 56.8808 103.158C58.0155 104.101 58.8858 104.697 60.3283 105.422C61.5493 106.036 63.0366 106.622 64.5533 106.912C73.9334 108.708 84.7259 106.729 91.838 101.359C96.5 97.8406 99.5166 93.8931 102.065 88.8112C103.384 86.1808 104.273 83.5085 105.151 80.4656C107.401 72.6697 107.262 66.0964 104.17 58.7075Z" fill="#2F80B7"/>
<path fill-rule="evenodd" clip-rule="evenodd" d="M42.5688 59.9578C42.3467 59.4276 42.1582 56.8344 42.2433 56.0527C42.462 54.0382 42.6799 53.7674 43.8581 53.402C45.701 52.8307 49.7191 52.4449 49.6959 55.1001C48.558 55.8252 45.3418 55.3737 44.9248 56.5233C44.5024 57.6888 46.3828 57.376 46.8804 57.2814C48.2619 57.0188 48.4346 56.8785 49.4625 57.3067C49.5338 58.9314 48.4741 59.6396 47.1598 59.9496C45.442 60.3553 44.2157 59.9986 42.5688 59.9578ZM42.6017 49.8326C43.5633 49.7346 43.8305 49.8158 44.7512 49.5189C46.0606 49.0968 47.5818 48.5545 48.7392 49.1805C49.702 49.7012 50.3276 51.9046 45.3833 51.9453C43.9388 51.9576 42.4315 51.4486 42.6017 49.8326ZM55.9487 66.9511C55.5174 66.9804 55.0368 67.0025 54.6185 66.9327C54.0512 66.8382 54.0699 66.8483 53.6622 66.536C53.7583 65.9606 53.7775 65.2428 53.8643 64.592C54.1086 62.7658 54.6706 61.3275 54.6702 59.1112C54.6702 58.2295 54.5427 56.3096 53.7127 56.1407C51.7664 55.7456 53.6329 60.9781 51.5155 61.0433C49.3334 61.1111 50.4102 56.2023 50.4114 54.4174C50.4127 53.2499 50.51 51.5865 50.9772 50.5466C51.2406 49.9594 51.4284 49.4896 52.2096 49.7151C53.6484 50.1298 53.3515 51.9857 53.3128 52.8812C53.2859 53.5031 53.101 54.3273 53.1658 54.9031C54.447 54.9488 54.9301 54.052 54.9276 52.796C54.9239 51.1718 54.4104 48.6442 55.2815 47.6052C55.6684 47.5925 55.9641 47.7157 56.2574 47.8829C58.9908 49.4419 56.2952 59.1703 56.2952 63.6345C56.2952 65.4561 56.5896 65.7623 55.9487 66.9511ZM29.9557 71.7419C29.9557 75.3701 30.0351 77.7683 31.1841 81.3537C31.887 83.5465 32.5345 85.3726 33.5938 87.3891C34.926 89.9241 37.651 94.0294 39.6401 96.0985L43.3153 99.7548C44.2499 100.631 46.3897 102.306 47.4841 103.012C48.4073 103.608 49.2023 104.113 50.1548 104.602L52.1956 105.624C55.6937 107.09 59.4353 108.228 63.4297 108.323C63.2607 107.966 62.9047 107.987 62.1867 107.742C58.8524 106.608 56.7383 105.516 53.7673 103.715C50.9539 102.01 49.9871 100.88 47.7992 99.0224C47.113 98.44 45.1398 96.2073 44.4458 95.2988C43.0216 93.4347 41.2235 90.9093 40.317 88.7634L39.287 86.2983C39.0072 85.5736 38.5991 84.3229 38.446 83.5754C38.2253 82.4976 38.0762 81.5915 37.9593 80.4565C37.906 79.9371 37.928 79.2764 37.8563 78.7687C37.7443 77.9739 37.8835 77.7994 37.8868 77.1188C37.9063 73.1077 39.6405 68.385 41.2965 65.6825C41.5261 65.7644 42.3459 66.5413 42.5891 66.7709C43.6492 67.7712 45.8468 68.9278 47.2254 69.3873C49.9345 70.2898 52.989 70.0908 55.5507 69.1194C58.7522 67.9057 61.4321 64.7738 62.6672 61.7358C64.3102 57.6932 63.9307 53.7939 61.1633 50.3937C59.8922 48.8326 57.8888 47.4905 56.0081 46.6839C51.7477 44.8574 45.78 45.8304 42.1215 48.5039C40.756 49.5022 40.3186 50.1274 39.2707 51.1123C38.6761 51.6709 36.3408 54.6055 35.7845 55.3884C33.4643 58.6529 31.8666 61.8516 30.8081 65.9378C30.4098 67.4752 29.9557 70.1748 29.9557 71.7419Z" fill="#DD0B0E"/>
<path fill-rule="evenodd" clip-rule="evenodd" d="M93.8789 63.5493C93.8834 64.2119 93.6378 64.3804 93.4561 64.8297C93.1779 65.5181 93.4883 65.4843 92.6334 65.7147C90.8875 66.1853 88.4802 66.045 87.0568 64.9198C86.0798 64.1471 86.4491 63.1435 86.645 62.4445C87.1973 62.8026 87.1321 63.1088 88.1169 63.2605C89.9316 63.5399 92.4966 62.3002 93.8789 63.5493ZM83.2207 56.6415C82.5911 56.7843 82.2942 56.7631 81.6214 57.1636C81.1629 57.4364 80.8371 57.6692 80.367 57.9526C79.4678 58.4945 78.6394 59.0712 77.2694 58.59C76.8446 58.4412 76.2516 58.1198 76.4263 57.4307C76.5945 56.7647 78.1556 55.9377 78.7807 55.6836C80.1687 55.1193 83.2199 53.088 82.9544 51.6236C82.8652 51.1338 82.3158 50.8341 81.9289 50.5964C80.7515 49.8725 80.4745 49.1075 81.7814 48.3612C82.6033 47.8919 83.7584 47.5052 85.0168 47.5052C86.1482 47.5052 86.5372 47.2495 86.7855 49.2331C86.9501 50.5442 86.687 51.3846 86.6434 52.2838C86.889 52.4665 87.2099 52.5322 87.4975 52.6141C88.0115 52.7609 89.4959 53.1442 89.0573 54.2755C88.7563 55.0507 86.4915 54.9627 85.5311 55.1926L85.4432 56.8071C85.4404 58.3653 85.0656 59.7837 84.5085 60.8215C83.9355 61.8891 82.6856 62.6835 81.4434 62.69C81.0879 61.4287 80.982 61.0054 82.0201 59.6103C82.6497 58.7642 83.2652 58.1418 83.2207 56.6415ZM90.5039 48.4085C90.3255 47.6256 89.9842 46.5722 89.6299 46.0649C90.7906 45.881 91.9753 45.8761 92.798 46.883C93.4732 47.7091 93.2835 51.1289 93.2835 52.1986C93.2835 55.0202 92.8489 57.8376 92.8595 60.6482C91.7163 61.3981 89.9121 61.6396 88.0115 61.5788C88.2521 61.2191 88.6463 60.9972 89.0088 60.7207C90.6668 59.455 90.6936 58.9477 90.6334 57.0734C89.7374 57.0412 88.9445 57.5746 87.9996 57.5759C87.5859 57.5762 87.4824 57.617 87.1663 57.4698C86.9599 57.3735 86.7065 57.2369 86.7135 57.0217C86.7135 57.0159 86.7098 56.9882 86.7106 56.9804C86.77 56.3912 87.392 56.0752 87.8518 55.8908C89.9609 55.0454 90.354 55.6853 90.6786 53.9427C91.0342 52.0314 90.9368 50.31 90.5039 48.4085ZM65.5841 32.8257C62.8229 32.8289 56.9778 34.1368 54.4935 35.0336C49.5061 36.834 44.959 39.6062 41.2337 43.3489L38.8716 46.0188C37.6682 47.5787 37.1888 48.2148 36.1328 49.9325C35.6485 50.7203 34.1384 53.4869 33.8826 54.4105L36.2891 51.2847C38.8468 48.1903 41.7665 45.7807 45.1594 43.5255C47.2356 42.1456 50.2127 40.7186 52.6196 39.8998C54.5346 39.2485 54.9003 39.1348 56.9391 38.6777C58.7295 38.2763 61.4756 37.9497 63.3654 37.9432C64.019 37.9408 64.445 38.0276 64.9843 38.0329C66.1315 38.0443 67.0438 38.1655 68.0933 38.335C69.9647 38.6376 71.8385 39.2412 73.3426 39.9067C75.2954 40.7704 80.2099 43.4488 81.432 45.3712C81.2456 45.6139 80.3955 46.0397 80.0782 46.2297C76.7619 48.2148 74.1871 52.0685 74.1913 56.0388C74.1938 58.3221 74.4678 60.2922 75.5711 62.0828C75.7992 62.4531 75.9584 62.7165 76.2048 63.0709C78.0717 65.7542 81.5579 68.3666 84.7431 69.1145C88.2378 69.9354 91.8532 68.9778 94.59 66.7342C94.9361 66.4503 95.1218 66.2558 95.4635 65.9867C95.8704 65.667 95.916 65.4871 96.2434 65.147C99.8901 61.3659 100.547 55.1784 98.6056 50.2844C98.0647 48.9199 97.1016 47.2972 96.2528 46.1521C94.2564 43.4591 92.7422 41.6387 89.9251 39.5185C87.3855 37.6064 84.7423 36.1942 81.5094 34.9732C80.0152 34.4092 78.1548 33.8803 76.4585 33.543C74.7301 33.1997 72.6416 32.8294 70.6978 32.8269C70.3377 32.8265 70.0009 32.7388 69.5053 32.7417L65.5841 32.8257Z" fill="#ECDB00"/>
<path fill-rule="evenodd" clip-rule="evenodd" d="M7.13136 70.7179C6.98606 69.8579 7.26662 64.3432 7.41564 63.3384C7.7704 60.9434 7.92556 59.0199 8.4277 56.5841C9.27646 52.4669 10.537 48.6658 12.0838 44.7978C13.8085 40.4849 16.1918 36.1395 18.9816 32.4171L20.2396 30.7748C22.1285 28.3428 24.1013 26.327 26.31 24.2276C26.9673 23.6025 27.6096 22.9248 28.3031 22.3779L30.3757 20.6125C32.5622 18.8431 34.7982 17.3526 37.1623 15.805C38.6786 14.8125 40.488 13.9206 42.1998 13.0776C48.9637 9.74593 58.1837 7.20085 67.2035 7.13645C67.864 7.13201 68.4032 7.06626 68.9917 7.05204C70.0836 7.02514 73.3963 7.25266 74.5318 7.30981C76.6711 7.41705 79.3525 7.83259 81.3498 8.25258C87.6595 9.58082 92.7805 11.5484 98.2545 14.4499C99.0976 14.8969 99.862 15.4229 100.67 15.8711C103.282 17.3183 105.675 19.2868 108.044 21.1187L112.655 25.2104C113.005 25.5592 113.288 25.8426 113.634 26.188L118.957 32.4644C121.167 35.4837 123.116 38.7049 124.765 42.097C127.501 47.7209 129.158 53.7776 130.052 60.012C130.211 61.1233 130.384 62.2708 130.444 63.4632C130.502 64.6074 130.7 65.9618 130.703 67.1305C130.717 72.7231 130.494 76.0838 129.471 81.3554C128.692 85.3742 127.302 89.2993 125.764 93.084C125.402 93.9723 124.971 94.8531 124.557 95.7124C123.502 97.905 122.431 99.9767 121.17 101.968C120.922 102.359 120.671 102.71 120.402 103.165C119.469 104.741 118.258 106.289 117.159 107.684C114.599 110.934 112.486 112.923 109.623 115.582C105.359 119.542 98.1658 123.79 92.956 125.951C88.068 127.978 82.9882 129.354 77.7504 130.097C74.9834 130.489 71.6849 130.759 68.8264 130.803L63.2798 130.547C57.8705 130.166 52.5712 128.926 47.5227 127.037C45.6619 126.341 43.9269 125.529 42.0829 124.715C40.058 123.821 36.5644 121.657 34.748 120.456C32.827 119.185 31.0525 117.813 29.2215 116.343C27.7374 115.152 24.891 112.523 23.7112 111.195C23.5035 110.961 23.5019 110.885 23.2929 110.672L21.4765 108.656C21.3657 108.516 21.1837 108.258 21.0697 108.123C19.7245 106.533 18.5442 104.774 17.3449 103.063C14.7966 99.4294 12.4657 94.3633 10.8815 90.2438C9.08908 85.5835 7.69955 79.4546 7.36108 74.391C7.32525 73.8563 7.22546 73.1064 7.20103 72.5979C7.1681 71.9099 7.24219 71.3692 7.13136 70.7179ZM6.00367 65.9385C6.0053 67.1305 5.90677 67.7271 5.92179 69.0966L6.00448 71.0593C6.01796 76.8525 7.79772 85.0399 9.76802 90.4219C11.6744 95.6288 14.4626 101.289 17.7114 105.681C18.7372 107.069 19.9819 108.805 21.1202 110.035L25.8803 114.911C26.0619 115.073 26.1752 115.213 26.358 115.373C28.4831 117.233 31.1108 119.374 33.4208 120.93C34.9908 121.987 36.4109 122.889 38.1223 123.903C38.8985 124.362 39.7933 124.857 40.6095 125.251C47.6148 128.633 53.5083 130.578 61.5074 131.468C62.719 131.602 63.8104 131.669 65.0726 131.738C66.4826 131.815 68.2448 131.946 69.6751 131.907L72.4026 131.819C73.5279 131.819 74.8001 131.639 75.8973 131.566C78.8069 131.375 82.9137 130.499 85.6289 129.79C93.2293 127.804 100.108 124.14 106.178 119.643L109.366 117.117C109.73 116.81 110.075 116.466 110.414 116.201C110.696 115.981 111.145 115.592 111.415 115.33C112.337 114.438 113.457 113.48 114.396 112.512C115.019 111.869 115.601 111.23 116.234 110.596C116.441 110.389 116.478 110.313 116.664 110.089L118.004 108.529C121.503 104.283 124.479 99.2402 126.643 94.135C128.148 90.5818 129.5 86.6694 130.353 82.4878C131.236 78.1599 131.805 73.5216 131.805 68.5844C131.805 65.8827 131.856 65.7154 131.644 63.1166C131.146 57.0236 129.776 51.6199 127.596 46.0037C126.427 42.9958 125.409 40.9723 123.912 38.1744C122.684 35.8801 120.971 33.2237 119.428 31.1403L117.734 28.9977C117.456 28.6295 117.182 28.3241 116.869 27.9864L115.943 26.949C113.518 24.1229 108.648 20.0653 105.838 17.9525C102.889 15.7357 99.836 13.8631 96.3237 12.116C90.3284 9.13385 83.7986 7.35663 77.1293 6.41468C73.0754 5.84208 70.8309 5.94362 66.8626 5.94651C65.3655 5.94769 61.5689 6.37347 60.0177 6.59818C54.4454 7.40518 47.5582 9.21419 42.4857 11.7458C41.6919 12.1422 40.7479 12.5047 39.9647 12.9766C39.1856 13.4459 38.3487 13.8443 37.548 14.3141C36.7742 14.7684 36.0203 15.2545 35.2135 15.73L32.9162 17.2699C31.4036 18.3811 30.0787 19.3577 28.6651 20.5232C27.0361 21.8665 24.3456 24.4153 22.8217 26.022C14.2027 35.1065 8.73315 46.6583 6.7254 59.0614C6.43578 60.8492 6.00122 64.2164 6.00367 65.9385Z" fill="#1A2B2B"/>
<path fill-rule="evenodd" clip-rule="evenodd" d="M27.4881 68.4991C27.4869 67.1179 27.7952 65.2894 28.0204 63.9991C28.9815 58.4873 31.5086 52.5957 34.5106 47.9673C34.8397 47.46 35.1842 47.0134 35.5328 46.516C36.1955 45.5702 37.5419 43.8922 38.3735 43.0455C38.6016 42.8131 38.6998 42.6418 38.9299 42.4073L40.8448 40.5693C41.1193 40.2913 41.2187 40.224 41.5245 39.9691C44.8947 37.1606 47.9386 34.9989 52.1925 33.2409C54.8266 32.152 56.8532 31.4078 59.7525 30.8271C62.2531 30.3263 65.0278 29.9328 67.6322 29.9275C68.1251 29.9263 68.2737 29.8386 68.7376 29.8386C70.2062 29.8381 72.6444 30.0151 74.1 30.1869C78.8528 30.7471 84.8706 32.6936 89.008 35.2309C92.0575 37.1007 92.093 37.1912 94.8181 39.3126C95.2709 39.6649 95.6855 40.1196 96.1327 40.4707C96.6303 40.8605 96.9631 41.2438 97.3993 41.6774C99.976 44.238 102.666 47.6406 104.476 50.8916C107.337 56.0307 109.565 62.4025 109.565 69.3523V72.7663C109.565 75.3954 108.662 80.5854 107.826 83.1452C107.242 84.9342 106.669 86.6551 105.84 88.3263C105.683 88.6427 105.605 88.8903 105.447 89.2116C104.334 91.4716 102.732 93.8503 101.25 95.8469L97.9226 99.6859C97.269 100.522 95.0848 102.365 94.1566 103.168L92.8078 104.206C88.4101 107.275 85.3043 108.96 79.8739 110.545C78.6207 110.911 77.2894 111.205 75.9091 111.438C73.5959 111.829 71.3534 112.022 68.9934 112.023L66.4361 111.94C65.6888 111.947 64.7163 111.837 63.9804 111.752C63.2293 111.666 62.3871 111.564 61.6511 111.439C54.8254 110.277 48.5364 107.668 43.2432 103.33C42.7626 102.936 42.278 102.49 41.8039 102.125C41.5066 101.897 41.3775 101.717 41.1014 101.463C40.8444 101.225 40.6758 101.126 40.4192 100.866L37.7989 98.1123C37.5773 97.8288 37.4079 97.6943 37.1652 97.3822C34.3196 93.7199 33.7429 93.1432 31.4614 88.5836C29.6035 84.8698 28.5136 80.4154 27.9068 76.2709C27.4315 73.0252 27.4898 71.5588 27.4881 68.4991ZM25.7813 69.0109V71.3153C25.7813 71.6705 25.866 72.0172 25.8644 72.5127C25.8599 74.2368 26.5946 78.8507 26.9575 80.3795C28.5348 87.0234 30.9454 92.2048 35.1916 97.7362C35.701 98.3997 37.6592 100.661 38.2742 101.135C38.6517 101.426 39.0243 101.899 39.5998 102.368C39.8649 102.585 39.9872 102.763 40.271 102.975L43.0962 105.268C49.2996 109.936 55.3655 112.204 63.1585 113.343C64.8763 113.593 67.0707 113.628 68.9094 113.734L71.0387 113.644C72.4754 113.644 74.3423 113.396 75.6782 113.17C77.1574 112.92 78.5677 112.665 79.8938 112.271C82.9055 111.375 84.4976 110.822 87.2894 109.434C91.8552 107.164 95.791 104.085 99.1448 100.739C100.428 99.458 102.881 96.5899 103.819 95.1769L105.818 92.0588C106.131 91.5364 106.435 90.9847 106.722 90.4032C107.596 88.6305 108.444 86.8448 109.043 84.9603C109.963 82.0703 110.525 79.6503 110.909 76.589C111.761 69.7808 111.14 62.5755 108.746 56.3439L108.006 54.441C107.774 53.8355 107.497 53.2642 107.205 52.683C107.032 52.34 106.949 52.1712 106.799 51.8083C106.336 50.6876 104.29 47.3327 103.494 46.1562L101.269 43.265C100.863 42.789 100.359 42.3156 100.017 41.8731C99.2434 40.8736 97.0995 39.1258 96.0329 38.1809C94.3025 36.6488 90.4994 34.0752 88.3409 32.9966C87.7736 32.7127 87.201 32.4305 86.6357 32.1427C83.1405 30.3627 77.0727 28.6229 73.0839 28.3876C72.6176 28.3603 72.7838 28.3037 72.2319 28.3029C70.6929 28.3008 68.4741 28.028 66.8857 28.2416C66.1006 28.3477 65.1883 28.3187 64.3534 28.4345C59.4858 29.1107 58.0758 29.2179 53.2334 30.9593C50.629 31.8955 48.3015 33.196 45.9527 34.5902C43.0057 36.3389 40.0649 38.8493 37.6498 41.2965C37.3928 41.5567 37.2772 41.7561 37.0104 42.0216C35.3361 43.6882 33.5951 46.2794 32.3102 48.2377C31.9436 48.7959 31.6475 49.3893 31.3054 49.9626C30.429 51.4311 29.3461 53.9843 28.7042 55.5519C27.2703 59.0561 26.4383 62.7075 25.9772 66.4744C25.8904 67.182 25.7813 68.3291 25.7813 69.0109Z" fill="#EADC06"/>
<path fill-rule="evenodd" clip-rule="evenodd" d="M56.2162 79.5822C58.9335 78.1488 59.32 76.7208 64.2299 75.1649C67.6428 74.0843 71.0642 73.8682 75.2941 73.694C75.6892 72.3087 75.6725 70.3317 74.8986 69.0717C74.6873 68.727 74.6294 68.7662 74.1595 68.6997C73.9391 68.6688 72.4208 68.7352 72.0755 68.7703C68.3091 69.1561 65.2562 70.0786 62.1765 72.1702C60.2734 73.4624 59.0512 74.7034 57.6832 76.5458C56.9912 77.4776 56.5318 78.3005 56.2162 79.5822Z" fill="#EBDB03"/>
<path fill-rule="evenodd" clip-rule="evenodd" d="M83.2207 56.6415C83.2651 58.1419 82.6497 58.7642 82.0201 59.6103C80.982 61.0054 81.0878 61.4287 81.4434 62.69C82.6856 62.6835 83.9355 61.8891 84.5085 60.8215C85.0656 59.7837 85.4404 58.3653 85.4432 56.8071L85.5311 55.1926C86.4914 54.9627 88.7562 55.0507 89.0573 54.2755C89.4959 53.1443 88.0114 52.7609 87.4974 52.6141C87.2099 52.5322 86.889 52.4665 86.6433 52.2838C86.687 51.3846 86.9501 50.5442 86.7855 49.2331C86.5371 47.2495 86.1482 47.5052 85.0168 47.5052C83.7583 47.5052 82.6033 47.8919 81.7814 48.3612C80.4745 49.1075 80.7514 49.8725 81.9289 50.5964C82.3158 50.8341 82.8651 51.1338 82.9544 51.6236C83.2199 53.088 80.1687 55.1193 78.7807 55.6836C78.1556 55.9377 76.5945 56.7647 76.4263 57.4307C76.2516 58.1198 76.8446 58.4412 77.2694 58.59C78.6394 59.0712 79.4678 58.4945 80.367 57.9527C80.837 57.6693 81.1628 57.4364 81.6214 57.1636C82.2942 56.7631 82.5911 56.7843 83.2207 56.6415Z" fill="#192D2B"/>
<path fill-rule="evenodd" clip-rule="evenodd" d="M54.9276 52.796C54.9301 54.052 54.447 54.9488 53.1658 54.9031C53.101 54.3273 53.286 53.5031 53.3128 52.8812C53.3515 51.9857 53.6484 50.1298 52.2096 49.7151C51.4284 49.4896 51.2407 49.9594 50.9772 50.5466C50.5101 51.5865 50.4127 53.2498 50.4114 54.4174C50.4103 56.2023 49.3334 61.1111 51.5155 61.0433C53.6329 60.9781 51.7664 55.7456 53.7127 56.1407C54.5428 56.3096 54.6702 58.2295 54.6702 59.1111C54.6706 61.3275 54.1086 62.7658 53.8643 64.5919C53.7775 65.2428 53.7583 65.9606 53.6622 66.536C54.0699 66.8483 54.0512 66.8382 54.6185 66.9327C55.0368 67.0024 55.5174 66.9804 55.9487 66.9511C56.5896 65.7623 56.2952 65.4561 56.2952 63.6345C56.2952 59.1703 58.9908 49.4419 56.2574 47.8829C55.9641 47.7157 55.6684 47.5925 55.2815 47.6052C54.4104 48.6442 54.9239 51.1717 54.9276 52.796Z" fill="#1C2C2B"/>
<path fill-rule="evenodd" clip-rule="evenodd" d="M44.8711 22.8412C44.5868 22.7616 44.1713 22.4615 43.8879 22.2902C41.5522 20.8747 41.1649 21.0975 40.5259 20.7916C39.8384 23.7664 40.2103 26.071 41.5763 28.7869C41.9783 29.5865 43.6712 32.393 44.2764 32.8261C44.5741 32.6231 45.8562 30.8287 46.0671 30.5216L45.9743 30.4434C44.7057 29.3509 44.6014 29.359 43.4497 28.0215C42.3028 26.6891 41.0199 23.9255 41.039 21.8192C41.8068 22.2234 43.8549 23.6103 44.399 24.3394C45.6265 25.9857 44.8882 27.9358 45.9808 28.7294C45.8586 27.2658 45.7267 28.5084 45.8957 26.4274C46.1225 26.5897 46.2362 26.8649 46.391 27.1247C46.8739 27.935 47.4115 28.656 47.8579 29.4977L48.0754 28.864C48.2412 28.2645 48.9282 26.663 48.6455 26.2389C48.1439 25.4866 46.5595 24.2856 46.3881 23.9622C46.1054 23.4292 47.5427 20.6961 48.0265 20.3675C48.6835 20.841 49.7823 23.4451 50.0412 24.2371C50.5161 25.6905 50.7478 27.5068 50.754 29.4133C51.1083 29.2228 51.4146 28.8933 51.8499 28.5475C52.223 28.2511 52.6319 27.9207 53.0571 27.7094C52.6136 25.8629 52.7166 25.1395 51.4846 23.1332C50.8285 22.0651 50.7495 22.1691 50.1569 21.3894C49.654 20.7271 48.8052 20.208 48.5389 19.8541C48.639 19.4801 48.9086 19.4772 48.7168 19.0878C48.5022 18.6531 46.7754 17.689 46.5766 17.6323C45.9963 18.7485 45.9185 18.6429 45.4807 19.9495C45.2083 20.7626 44.9663 21.871 44.8711 22.8412Z" fill="#F4F6F4"/>
<path fill-rule="evenodd" clip-rule="evenodd" d="M96.6088 35.4719L99.3366 36.4943C99.6466 35.9082 99.8856 35.0906 100.447 34.1086C101.312 32.5961 102.31 31.4058 103.694 30.3638C104.126 30.0392 105.455 29.2057 106.07 29.156C106.062 30.5641 104.986 32.3873 104.449 33.3388C104.065 34.0177 103.213 33.919 101.825 35.0621C101.545 35.2917 101.222 35.4376 101.124 35.8116C102.32 35.2081 102.916 35.1278 103.084 35.0486C103.056 35.4103 102.877 35.5938 102.678 35.8316C102.364 36.2072 101.126 37.5207 101.043 37.8604L104.108 37.8616C104.461 37.4371 104.748 36.8625 104.99 36.3544C105.261 35.7888 105.453 35.2134 105.729 34.7032C106.578 34.7085 107.183 34.6963 107.93 34.8027C108.473 34.8798 109.326 35.0857 109.733 35.2998C109.304 35.9445 108.439 36.8351 107.798 37.3739L106.374 38.5088C105.408 39.2138 103.695 40.0086 102.543 40.3904C102.3 40.4707 102.082 40.5033 101.89 40.5939C102.009 40.7513 104.053 42.1802 104.347 42.159C105.066 42.1064 106.954 40.4597 107.434 40.0813C108.07 39.5801 109.192 37.9305 109.622 37.066C109.751 36.8082 109.813 36.6252 109.934 36.354C110.045 36.1024 110.185 35.8141 110.245 35.5572C110.655 35.5893 110.491 35.7113 110.928 35.8116C111.234 35.2345 111.785 33.9382 111.777 33.0826C108.677 32.3042 107.594 33.0031 106.238 32.995C106.415 32.6397 106.734 31.2427 106.831 30.7725C107.046 29.7285 107.082 29.2554 106.835 28.2152C105.771 28.2473 104.329 28.7302 103.389 29.1196C102.352 29.5507 101.487 30.111 100.685 30.7639C100.47 30.9381 100.388 31.0726 100.153 31.2541C99.8791 31.4657 99.805 31.5456 99.5696 31.7801C98.8748 32.4717 97.1191 34.6852 96.6088 35.4719Z" fill="#F4F6F4"/>
<path fill-rule="evenodd" clip-rule="evenodd" d="M62.7716 119.448C62.7716 118.364 63.2008 115.699 63.6259 114.839C63.4056 114.724 63.1767 114.643 62.9051 114.535C62.3842 114.33 61.3665 113.769 60.8973 113.729C60.6847 115.977 60.3956 116.116 60.9446 118.888C61.1424 119.887 61.5758 121.23 62.0026 122.096C62.1464 122.387 62.3536 122.704 62.4295 123.033C62.1968 123.355 62.1219 123.109 62.0034 123.544C63.0672 123.048 63.1727 124.304 64.2214 124.316C64.008 123.905 63.707 123.49 63.4517 123.116C63.7009 122.989 63.9302 122.897 64.1852 122.742C64.8201 122.359 65.6766 121.583 66.0101 121.498L66.1518 121.696C66.1613 121.712 66.173 121.734 66.1823 121.75C66.9337 123.094 66.6324 122.673 67.8627 123.909C68.1087 124.156 68.3804 124.292 68.5669 124.571C69.0393 124.312 70.8162 123.425 70.8659 122.69C70.4509 122.592 70.187 122.53 69.8462 122.351C69.9206 122.071 69.9602 122.121 70.1492 121.885L71.0219 120.712C71.8755 119.425 72.2718 118.369 72.5822 116.812C72.7491 115.974 72.7279 115.254 72.7479 114.242C72.3667 114.25 71.6764 114.423 71.3102 114.515C70.8818 114.622 70.5214 114.755 69.9317 114.754C69.9398 115.271 70.2444 115.819 70.2713 116.718C70.3174 118.235 70.2542 120.94 68.9082 121.837C68.7058 121.703 68.6549 121.612 68.4443 121.448C66.814 120.176 67.4759 119.941 67.9759 119.111C68.1714 118.786 68.3539 118.455 68.5404 118.056C68.8716 117.347 69.0777 116.369 69.0788 115.352L66.6939 114.416C66.6613 117.155 66.0492 117.531 65.8391 118.423C65.5817 118.321 65.7421 118.477 65.5768 118.09C65.3149 117.476 65.0779 116.596 64.9915 115.946L64.8412 115.07C64.8384 115.038 64.829 115.027 64.8172 115.009C64.2165 116.156 64.3081 118.661 65.2448 120.046C64.8412 120.34 64.3187 121.526 63.1975 122.264C62.7634 121.767 62.7716 120.108 62.7716 119.448Z" fill="#F4F6F4"/>
<path fill-rule="evenodd" clip-rule="evenodd" d="M57.508 80.7665C59.4918 80.9496 60.0738 78.493 68.9041 79.088C69.6946 79.141 71.0333 79.327 71.7892 79.5281C72.6738 79.7633 73.5514 80.0794 74.3623 80.2772C77.4555 81.0319 77.0237 78.8086 75.8227 77.1914C74.8734 75.9129 73.7929 74.7979 71.5517 74.8094C68.7245 74.8236 63.3979 76.1156 60.9857 77.5498C60.0298 78.1178 57.4269 79.34 57.508 80.7665Z" fill="#DD0B0E"/>
<path fill-rule="evenodd" clip-rule="evenodd" d="M30.723 38.6287C30.3887 38.4505 30.1105 38.2523 29.7586 38.0606C29.0093 37.6536 27.6348 36.8091 27.2304 36.1554C26.8088 35.4744 26.9391 34.4238 27.3607 33.8109C28.0217 32.8502 28.7926 32.6549 29.7871 32.656C29.9867 32.6565 31.2684 33.1548 30.991 33.8489C30.857 34.1841 29.9623 35.2301 29.6463 36.2737C29.3335 37.3062 30.4942 37.7711 30.723 38.6287ZM26.3792 35.0458L26.2244 34.8561C26.1315 34.7301 26.1784 34.7954 26.0859 34.6531L25.5817 33.7946C25.4314 33.5614 25.4616 33.4961 25.1826 33.4252C25.2718 34.443 25.949 35.7398 26.406 36.6382C27.1469 38.0957 28.297 39.2326 29.4659 40.3166L30.7471 41.3373C31.7868 42.106 32.5223 42.517 33.4521 43.1532L33.9661 39.9928L32.6283 39.5405C31.718 39.136 31.0086 38.773 31.4028 37.2589C32.1175 34.5124 36.132 34.7721 36.0928 38.0317C36.0598 39.4423 34.63 40.1249 34.5587 40.9335C35.4245 40.5266 36.2041 40.3521 36.7888 39.0683C37.2454 38.0664 37.254 36.7059 36.8267 35.593C36.0965 33.6915 34.5391 32.5623 32.5101 33.0777C32.1981 33.1568 32.0299 33.2678 31.7473 33.3379C31.6736 29.967 27.6425 29.7566 26.1653 32.1011C25.8269 32.6386 26.3755 34.2901 26.3792 35.0458Z" fill="#F4F6F4"/>
<path fill-rule="evenodd" clip-rule="evenodd" d="M61.8442 83.9612C61.7945 84.6402 61.7945 85.4533 61.6996 86.1188C61.6304 86.6049 61.5762 87.8222 61.5791 88.2965C61.5856 89.2238 61.529 92.423 62.177 92.6494C63.4468 93.0926 67.1732 92.6065 68.459 92.3712L69.9659 92.0915C69.9875 92.0874 70.1788 92.0531 70.1858 92.0515L70.3242 92.0136C70.3438 92.0079 70.3739 91.9948 70.3894 91.9899C70.9645 91.8019 70.1805 88.7964 68.1654 89.517C67.2302 89.8511 65.8024 91.1168 64.6641 90.8383C64.1868 90.7213 64.1672 90.5072 64.0756 89.8111C64.0162 89.3596 64.0276 88.8719 64.098 88.4315C64.2642 87.3945 64.5012 86.9846 64.7374 86.1678C66.5322 86.1641 69.7692 86.4263 70.9364 85.209C71.7904 84.3184 70.1039 83.2615 68.8227 83.2606C65.8729 83.2594 65.5157 84.1472 61.8442 83.9612Z" fill="#182E2C"/>
<path fill-rule="evenodd" clip-rule="evenodd" d="M20.7569 39.1433C20.9785 40.2183 23.0196 42.1239 24.1111 42.7768C25.4531 43.579 27.4413 44.3309 29.3644 44.5201C29.0846 45.0279 28.835 45.4638 28.6236 46.0848L28.0823 47.8466C26.9987 47.7581 25.418 47.1235 24.5363 46.5322C22.8482 45.4006 21.7905 43.9313 20.8371 42.1288C20.5357 42.1965 19.7575 42.6096 19.4475 42.7833L18.1129 43.4946C20.0205 47.1558 24.2675 48.8995 28.2522 48.868C28.255 49.5732 28.4391 50.0263 28.7625 50.4051L28.7658 48.8701C29.0271 48.8489 29.8612 48.7009 30.0417 48.6133C29.9032 48.2197 29.5701 48.4492 28.938 48.0166C29.1376 47.0758 30.6546 45.7121 31.7111 45.2497L32.2613 44.9446C32.2442 44.4659 31.9388 43.9635 31.7535 43.6581C31.6312 43.457 31.5518 43.338 31.4227 43.1365C31.2794 42.9135 31.211 42.7642 31.0619 42.5554C30.809 42.7315 30.7992 42.7723 30.6021 43.0292C29.7269 44.1719 29.538 43.9232 29.0036 43.5961C28.2159 43.1141 26.8703 42.2344 26.2269 41.5971C25.0792 40.4601 25.0156 40.4703 24.0032 39.1294C23.7344 38.7735 23.4301 38.34 23.2249 37.9476C23.0009 38.0039 22.2931 38.4117 22.0316 38.5423C21.8194 38.6487 21.6399 38.7409 21.4069 38.8574C21.1682 38.9769 20.9564 39.0398 20.7569 39.1433Z" fill="#F4F6F4"/>
<path fill-rule="evenodd" clip-rule="evenodd" d="M115.189 51.6835C115.288 51.7529 116.593 52.9856 116.638 53.0521C115.017 53.895 113.423 53.6157 112.424 52.1505C111.951 51.4581 112.036 50.9348 111.864 50.6632C111.228 50.6616 111.146 50.7933 110.67 50.8333C110.716 50.35 111.206 49.9851 111.671 49.5308C112.749 48.4795 115.365 46.7859 116.778 46.1106L117.916 45.6277C119.227 46.5057 118.871 48.1047 118.071 49.2824C117.681 49.8565 117.31 50.2122 116.788 50.6428C115.848 51.4181 115.481 51.4331 115.189 51.6835ZM107.69 48.8693C107.851 49.5006 109.154 49.8076 109.734 50.9189C109.409 50.9438 109.037 51.0604 108.71 51.0898C109.539 54.6866 114.438 55.2298 117.423 53.4118C120.289 51.6664 121.57 49.1213 119.57 46.1893C119.317 45.819 119.055 45.5796 118.853 45.2003C119.021 44.9459 119.206 44.7652 119.275 44.4308C117.742 44.567 114.417 45.6836 113.068 46.2354L109.025 48.1601C108.718 48.3314 107.976 48.7939 107.69 48.8693Z" fill="#F4F6F4"/>
<path fill-rule="evenodd" clip-rule="evenodd" d="M61.834 98.3748L58.2623 98.082C58.2403 99.0114 58.3385 99.6496 58.602 100.324C58.707 100.592 58.9184 100.886 59.1217 101.086C59.4849 101.444 59.4784 101.461 59.9394 101.257C62.8424 99.9746 67.4783 100.291 70.4628 101.167C71.3082 101.415 71.7232 101.662 72.4294 102.012C73.1136 102.351 73.6862 102.654 74.6156 102.627C75.1935 98.3487 71.052 99.4543 68.0228 98.7447C67.5264 98.6281 67.2727 98.4809 66.8699 98.361C66.8026 96.2433 67.9218 95.3808 67.7854 93.0053C65.8329 92.9234 65.4791 93.8307 64.8494 95.6695C64.2829 97.3252 64.0048 98.3794 61.834 98.3748Z" fill="#182E2C"/>
<path fill-rule="evenodd" clip-rule="evenodd" d="M84.7488 119.033C84.959 119.675 85.1785 120.119 85.4692 120.702C85.6806 121.126 86.2011 121.825 86.2931 122.179C86.634 122.152 86.5012 122.165 86.7635 121.964C86.9285 121.838 86.9403 121.815 87.089 121.694C87.4473 121.403 88.9371 120.304 89.1082 120.046L88.742 119.814C88.5633 119.714 88.5425 119.696 88.3677 119.593C86.8324 118.681 85.3683 116.568 85.2774 114.927C87.2425 115.381 90.1711 116.811 91.5212 118.483C91.6719 118.669 91.7143 118.711 91.8535 118.918C92.3765 119.692 92.0621 119.653 92.431 119.791C92.4323 119.242 92.5772 118.764 92.6038 118.254C92.677 116.837 92.431 115.256 92.0559 113.937C91.7525 112.872 90.6859 110.395 89.9601 109.551C89.6539 109.63 89.5643 109.825 89.3158 110.014C89.0764 110.196 88.8952 110.323 88.6794 110.486C88.4187 110.684 87.6481 111.275 87.4881 111.512L88.7038 112.684C89.1183 113.101 89.4686 113.461 89.8404 113.936C90.3447 114.579 91.2874 116.088 91.4943 116.97C91.184 116.767 90.6346 115.966 89.9101 115.401C89.7024 115.238 89.6519 115.151 89.4707 114.989C88.6276 114.235 87.1513 113.323 86.1282 112.874C85.606 112.645 84.471 112.167 83.8231 112.107C83.7543 112.406 82.7736 113.904 82.5414 114.324C83.0379 114.378 83.4321 114.496 83.8552 114.723L84.1631 114.925C84.1664 115.795 84.1367 116.439 84.2727 117.206C84.3969 117.906 84.548 118.421 84.7488 119.033Z" fill="#F4F6F4"/>
<path fill-rule="evenodd" clip-rule="evenodd" d="M89.6299 46.0649C89.9842 46.5722 90.3254 47.6256 90.5039 48.4085C90.9368 50.3101 91.0342 52.0314 90.6786 53.9427C90.354 55.6853 89.9609 55.0454 87.8517 55.8908C87.3919 56.0752 86.77 56.3912 86.7106 56.9804C86.7098 56.9882 86.7135 57.0159 86.7135 57.0217C86.7065 57.2369 86.9598 57.3735 87.1663 57.4698C87.4823 57.617 87.5858 57.5762 87.9996 57.5759C88.9444 57.5746 89.7374 57.0412 90.6333 57.0734C90.6936 58.9477 90.6667 59.455 89.0087 60.7207C88.6463 60.9972 88.2521 61.2191 88.0114 61.5788C89.9121 61.6396 91.7163 61.3981 92.8595 60.6482C92.8489 57.8376 93.2835 55.0202 93.2835 52.1986C93.2835 51.1289 93.4732 47.7091 92.798 46.883C91.9753 45.8761 90.7906 45.881 89.6299 46.0649Z" fill="#192D2B"/>
<path fill-rule="evenodd" clip-rule="evenodd" d="M87.0637 23.0968C87.9784 23.9051 88.1507 22.8477 86.465 26.1688C86.0451 26.995 85.6822 27.9879 85.4415 28.9875C85.9453 28.9834 86.4023 29.1205 87.058 29.067C87.5332 29.0283 88.1657 28.9002 88.6818 28.9006C88.6829 26.8641 89.0002 25.2733 89.7052 23.9504C90.9368 23.9512 91.1347 23.8231 91.4653 24.8328C91.7016 25.5534 91.739 26.5032 91.6055 27.3049C91.2556 29.4063 90.3495 30.7957 90.2155 31.3764C91.4458 31.3724 92.6176 31.2544 93.4553 30.8646C93.6052 28.9753 93.6512 28.0961 93.0183 26.1798C92.6135 24.9539 92.3251 24.8467 91.8344 24.1209L93.4369 23.6763C94.414 23.4003 95.4171 22.9202 96.3248 22.4717C96.8356 22.2197 97.2175 21.9868 97.7169 21.7332C97.5829 21.5326 95.9547 20.3899 95.5853 20.1958C94.3081 21.0587 92.7731 22.8889 90.0436 22.9288L90.8993 20.7084C91.1501 20.1456 91.7985 19.0952 91.9223 18.5731C91.322 18.9753 90.1483 20.3715 89.6665 21.0106L88.7521 22.4007C88.2207 23.2282 87.8513 23.0968 87.0637 23.0968Z" fill="#F4F6F4"/>
<path fill-rule="evenodd" clip-rule="evenodd" d="M103.766 106.822L103.827 106.709C104.036 106.31 104.602 105.309 104.875 105.11C105.918 105.827 106.096 108.472 103.428 109.889C103.533 110.353 103.757 110.536 103.764 111.002C102.937 110.8 101.285 109.821 100.615 109.377C99.5793 108.692 98.8698 107.989 98.0744 107.055C97.5939 106.491 97.8875 106.032 98.4964 105.636C100.124 104.579 102.976 105.573 103.766 106.822ZM97.2053 105.962L96.4368 105.964C96.5554 106.471 97.3553 107.885 97.6338 108.351C98.0614 109.066 98.5933 109.779 99.1138 110.453L100.805 112.344C101.144 112.682 102.308 113.98 102.659 114.071C102.734 113.756 103.643 111.859 104.023 111.597L104.232 111.985C104.315 112.183 104.365 112.292 104.445 112.453C104.981 112.105 105.928 110.957 106.268 110.346C106.732 109.515 106.945 108.135 106.635 106.935C106.211 105.294 104.91 103.75 103.327 103.333C102.171 103.029 101.26 103.062 100.113 103.499C98.7514 104.018 97.9755 104.847 97.2053 105.962Z" fill="#F4F6F4"/>
<path fill-rule="evenodd" clip-rule="evenodd" d="M53.481 115.95C53.4822 114.487 54.1929 112.699 54.2479 111.937C53.6427 112.098 52.9621 113.469 52.6441 114.001C52.3672 114.464 51.7982 115.957 51.4357 116.375C50.8859 116.376 50.4844 116.309 50.2421 116.633C50.5622 116.786 50.9992 116.802 51.347 116.976C51.2863 117.257 51.0953 117.704 50.9775 118.051C50.6114 119.13 50.4147 120.476 50.4131 121.668C52.6262 121.666 52.8131 121.242 53.736 121.241C53.7384 120.786 53.6199 120.604 53.5136 120.184C53.3845 119.673 53.1881 118.467 53.2456 118.024C53.2757 117.791 53.3747 117.24 53.3923 116.973C53.9034 116.975 53.9444 116.841 54.4226 116.966C54.7191 117.044 54.9692 117.148 55.1598 117.34C55.5744 117.759 55.7584 118.326 55.8785 118.926C56.1368 120.215 55.9723 121.752 55.6978 122.95C56.6813 122.937 57.3911 122.741 58.244 122.424C58.3646 122.38 58.4843 122.331 58.5991 122.268C58.7233 122.199 58.6166 122.261 58.7555 122.168L58.852 122.094C58.8068 120.515 57.8802 119.07 57.0124 117.961L56.4516 117.412C56.3302 117.313 56.3054 117.271 56.1845 117.169C55.9592 116.979 55.7788 116.942 55.6151 116.719C55.7873 116.633 56.1975 116.537 56.3909 116.473C56.6776 116.379 56.8258 116.314 57.0629 116.209C57.9007 115.836 60.2497 114.504 60.6395 113.901L58.169 112.963C57.4852 113.427 57.629 113.444 57.0975 113.852C56.8732 114.025 56.8112 114.13 56.6092 114.302C56.4365 114.449 56.2748 114.573 56.0883 114.718C55.5654 115.125 54.2996 115.928 53.481 115.95Z" fill="#F4F6F4"/>
<path fill-rule="evenodd" clip-rule="evenodd" d="M32.6861 104.087C33.1109 103.46 34.0039 103.325 34.7252 102.981C34.7863 103.537 34.8804 104.053 34.7814 104.736C34.7411 105.013 34.6886 105.34 34.6604 105.553C34.6287 105.795 34.6226 106.068 34.4772 106.304C33.8167 105.338 32.7773 104.223 32.6861 104.087ZM30.0421 102.465C30.328 102.543 30.3895 102.7 30.552 102.89L28.8606 103.927C28.6428 104.091 28.5494 104.197 28.3503 104.355C28.1226 104.535 28.0599 104.568 27.8461 104.788L26.5485 106.306L29.2691 107.337C29.2874 107.344 29.3131 107.355 29.3294 107.362C29.3457 107.369 29.3754 107.384 29.3884 107.389C29.4014 107.394 29.4284 107.405 29.4463 107.417C29.9574 106.817 30.4661 105.26 31.5771 104.684C31.7408 104.873 31.7372 104.945 31.8344 105.194C31.9086 105.383 31.9664 105.531 32.0353 105.761C32.6983 107.986 31.4915 107.693 33.8496 107.366C34.531 107.272 34.3571 107.577 33.8545 108.757C33.4407 109.729 33.0298 110.342 32.3154 111.056C32.0776 111.294 32.0874 111.249 32.0894 111.683C33.1214 111.59 33.6215 110.954 34.1982 110.381C36.0338 108.558 37.3668 105.803 37.3736 103.064L35.9267 102.805C36.2969 102.602 36.505 102.683 36.9529 102.471C37.1717 102.367 37.0068 102.457 37.1175 102.376C35.5491 101.653 33.0738 102.154 31.5636 102.634C30.809 102.874 30.6611 101.929 30.0421 102.465Z" fill="#F4F6F4"/>
<path fill-rule="evenodd" clip-rule="evenodd" d="M15.4673 62.5245C14.7786 62.0502 14.2459 61.292 13.7645 61.2407C13.956 61.6204 14.0838 61.9515 14.3474 62.2818C17.4397 66.1604 24.8071 66.038 25.506 60.8835L25.4998 58.9664C25.4225 58.6511 25.3097 58.6451 24.746 58.4399C23.8936 58.1296 23.1406 57.8816 22.2014 57.661C22.46 58.7816 23.0982 60.0079 21.9986 61.6399C21.3217 62.6439 20.2991 63.4334 18.7857 63.5485C17.3749 63.6552 16.2542 62.832 15.8909 61.4197C15.4783 59.8154 16.3274 58.4032 16.9155 57.4897L15.5182 56.843C15.0164 56.635 14.5314 56.3356 14.0195 56.2088C13.8631 56.4531 13.8622 56.7606 13.8223 57.0359C13.681 58.0105 13.7837 58.7976 14.0545 59.7592C14.478 61.2619 15.3887 62.2161 15.4673 62.5245Z" fill="#F4F6F4"/>
<path fill-rule="evenodd" clip-rule="evenodd" d="M42.5688 59.9578C44.2157 59.9986 45.442 60.3553 47.1598 59.9496C48.4741 59.6396 49.5338 58.9314 49.4625 57.3067C48.4346 56.8784 48.2619 57.0187 46.8804 57.2814C46.3828 57.376 44.5024 57.6888 44.9248 56.5233C45.3418 55.3737 48.558 55.8252 49.6959 55.1001C49.7191 52.4449 45.701 52.8307 43.8582 53.402C42.6799 53.7674 42.462 54.0382 42.2433 56.0527C42.1582 56.8344 42.3468 59.4276 42.5688 59.9578Z" fill="#1C2C2B"/>
<path fill-rule="evenodd" clip-rule="evenodd" d="M35.328 114.074C36.2533 114.063 36.8581 114.158 37.7989 114.158C38.1508 114.56 38.5262 115.548 39.4686 116.496C40.1301 117.162 40.8163 117.636 41.7212 116.975C42.0084 116.765 42.1216 116.62 42.3525 116.327L42.9133 115.606C40.919 115.619 39.7309 115.147 38.5984 114.294C37.9492 113.805 38.064 113.268 38.2379 112.037C38.3483 111.257 38.5629 110.387 38.9922 109.89C40.526 110.259 42.5713 113.156 42.6571 113.217L43.6676 112.183C43.8517 112.037 43.8859 112.058 44.0207 111.853C43.3756 110.896 40.2523 109.404 39.162 109.376C39.2186 108.765 40.4775 107.427 41.123 106.988C41.6769 107.279 42.3085 107.736 42.7631 108.162C42.9789 108.365 43.0986 108.415 43.3186 108.63L44.2109 109.614C44.4064 109.835 44.9733 110.488 45.0429 110.74C45.3268 110.673 46.4618 109.64 46.5791 109.206L44.8682 108.102C43.9751 107.562 42.3855 106.818 41.2956 106.732C41.3217 106.375 41.2863 106.569 41.4627 106.305C40.9397 106.35 39.6088 107.19 39.234 107.487C37.7289 108.681 37.0202 109.706 36.1779 111.425C35.9536 111.884 35.3399 113.473 35.328 114.074Z" fill="#F4F6F4"/>
<path fill-rule="evenodd" clip-rule="evenodd" d="M59.6418 73.0787C60.24 73.1015 63.0693 70.7922 64.2821 70.0965C66.0639 69.0741 69.579 68.44 69.9891 68.1272C70.185 66.3904 68.9828 65.7273 67.5215 65.5345C66.1584 65.3546 64.4866 66.2175 63.6394 66.8064C62.0422 67.9164 59.3176 70.5189 59.6418 73.0787Z" fill="#DD0B0E"/>
<path fill-rule="evenodd" clip-rule="evenodd" d="M115.189 51.6835C115.481 51.4331 115.848 51.4181 116.788 50.6428C117.31 50.2122 117.681 49.8566 118.071 49.2824C118.871 48.1047 119.227 46.5057 117.916 45.6277L116.778 46.1106C115.365 46.7859 112.749 48.4795 111.671 49.5308C111.206 49.9851 110.716 50.35 110.67 50.8333C111.146 50.7933 111.228 50.6616 111.864 50.6632C112.036 50.9348 111.951 51.4581 112.424 52.1505C113.423 53.6157 115.017 53.895 116.638 53.0521C116.593 52.9856 115.288 51.7529 115.189 51.6835Z" fill="#192D2B"/>
<path fill-rule="evenodd" clip-rule="evenodd" d="M111.866 61.5001C111.953 61.8353 112.802 62.5909 113.104 62.8193C116.545 65.4186 121.373 64.6682 123.622 61.1567C123.863 60.7799 124.349 59.9093 124.392 59.3673C124.025 58.8139 122.655 57.8356 121.749 57.8294C121.779 61.5237 117.945 62.5937 114.846 62.4396C113.732 62.3846 112.639 61.9156 111.866 61.5001Z" fill="#F4F6F4"/>
<path fill-rule="evenodd" clip-rule="evenodd" d="M30.3833 97.6848C27.1521 97.6848 24.2654 99.1986 22.9683 101.1C23.145 101.335 24.0263 101.855 24.3444 102.111C24.7843 102.467 25.1647 103.099 25.7821 103.149C25.8993 102.902 26.0032 102.556 26.1188 102.292C26.2801 101.926 26.3523 101.777 26.553 101.446C27.0161 100.68 27.5879 100.036 28.3197 99.5452C29.7993 98.5526 30.387 98.6595 30.9768 98.3695C31.4557 99.0587 32.6465 99.5073 33.512 99.6736C33.6508 99.7005 33.8805 99.7373 34.1236 99.7556C34.6258 99.7932 34.4963 99.7047 34.5599 99.6488C33.7693 98.949 33.5115 99.095 32.6885 97.6827C32.3158 97.0429 31.7139 95.5072 31.665 94.7813C29.7125 94.807 28.2978 93.9453 29.8356 96.5283C30.0225 96.8427 30.3532 97.3263 30.3833 97.6848Z" fill="#F4F6F4"/>
<path fill-rule="evenodd" clip-rule="evenodd" d="M103.766 106.822C102.976 105.573 100.124 104.579 98.4965 105.636C97.8876 106.032 97.594 106.491 98.0745 107.055C98.8699 107.989 99.5794 108.692 100.615 109.377C101.285 109.821 102.937 110.8 103.764 111.002C103.757 110.536 103.533 110.353 103.428 109.889C106.096 108.472 105.918 105.827 104.875 105.11C104.602 105.309 104.036 106.31 103.827 106.709L103.766 106.822Z" fill="#192D2B"/>
<path fill-rule="evenodd" clip-rule="evenodd" d="M111.523 60.649C112.206 61.1045 112.901 61.8263 113.999 61.8467C113.784 61.4075 114.118 60.2371 114.305 59.8489C115.031 58.3454 116.366 57.5791 117.948 57.1819C119.108 56.8907 120.238 56.8797 121.395 57.1643C122.991 57.5579 123.353 58.134 123.798 58.1741C123.546 57.2214 121.919 56.2611 121.035 55.9034C118.802 54.9997 114.858 55.125 112.949 56.9547C112.009 57.8552 111.523 58.8457 111.523 60.649Z" fill="#F4F6F4"/>
<path fill-rule="evenodd" clip-rule="evenodd" d="M72.9108 16.1851C73.1739 16.2532 73.1926 16.3539 73.3364 16.5256C73.2024 17.1552 72.908 17.1992 72.9153 18.1474C73.3356 17.6478 73.3458 17.0916 73.9367 16.6965C75.5873 17.78 76.4153 19.264 76.7159 21.2528C76.8319 22.0215 76.7204 22.9549 76.6645 23.6098C77.137 23.609 77.7992 23.3497 78.116 23.1866C78.3213 23.081 78.5009 22.9655 78.6854 22.8163C79.1594 22.4326 79.5065 22.307 79.3028 21.7438C78.6423 19.914 77.6001 18.6066 76.1718 17.36L74.5329 16.101C75.1964 15.7723 76.5468 15.9094 77.2307 16.13C78.0941 16.409 78.6581 16.7747 79.3061 17.2075L80.6708 14.7338C78.8565 13.554 76.2882 14.0523 74.5142 15.2272C74.1114 15.4938 74.0935 15.6313 73.7905 15.8727C73.481 16.1194 73.7107 15.9783 73.3262 15.9845C72.9023 15.991 72.9539 16.0811 72.9108 16.1851Z" fill="#F4F6F4"/>
<path fill-rule="evenodd" clip-rule="evenodd" d="M55.2701 16.6109L55.3768 16.6753C55.9392 16.9212 58.3547 16.8804 59.5826 19.9735C60.3894 22.0064 60.2966 24.664 59.3615 26.4253C59.9296 26.2732 60.7266 25.0722 60.9832 24.5506C62.9401 20.571 60.4778 14.5804 56.6365 14.3088C56.3922 14.6579 56.2813 14.6215 55.8708 15.332C55.7177 15.597 55.341 16.3091 55.2701 16.6109Z" fill="#F4F6F4"/>
<path fill-rule="evenodd" clip-rule="evenodd" d="M52.9703 19.9392C52.9695 21.8942 53.0334 23.8106 54.4434 25.4633C55.3215 26.493 56.3694 27.1076 58.2526 27.1087C58.6142 26.5742 59.344 25.6366 59.3615 24.8039C58.009 24.8022 57.1993 24.5074 56.4141 23.9162C54.2886 22.3155 53.8333 18.2469 54.7945 15.8776C54.9166 15.5763 55.029 15.4686 55.1023 15.1594C54.526 15.5465 53.9493 16.4538 53.6508 17.1231C53.3955 17.6959 52.9703 19.1118 52.9703 19.9392Z" fill="#F4F6F4"/>
<path fill-rule="evenodd" clip-rule="evenodd" d="M76.4109 115.265C78.5336 115.287 79.8368 116.293 80.4709 118.198C81.5978 121.583 79.417 123.143 79.3065 123.542C80.0518 123.347 81.1824 122.218 81.6683 121.642C83.6924 119.244 83.1255 114.783 79.1062 113.42C77.8917 113.008 78.0098 112.987 77.0254 114.177C76.8181 114.427 76.4398 114.892 76.4109 115.265Z" fill="#F4F6F4"/>
<path fill-rule="evenodd" clip-rule="evenodd" d="M62.9418 14.6497C62.9675 14.9601 63.1878 15.3385 63.3087 15.6468C63.6842 16.6031 63.988 18.0663 64.131 19.0902C64.313 20.396 64.5875 23.8309 64.4418 25.3887C64.4091 25.7398 64.2125 25.6023 64.5627 25.7426C64.6438 25.7712 64.4776 25.9845 64.7484 25.6007C64.8348 25.478 64.8641 25.4021 64.9337 25.2631C65.6338 23.8639 66.351 20.8886 66.351 19.427C66.351 17.6499 66.4475 16.7511 66.0761 15.009C65.945 14.3961 65.7198 13.861 65.583 13.2836C65.3597 13.3908 65.1268 13.4267 64.9057 13.5417L62.9418 14.6497Z" fill="#F4F6F4"/>
<path fill-rule="evenodd" clip-rule="evenodd" d="M25.357 57.4902L25.3565 55.3562C25.3565 54.8158 25.2702 54.5903 25.2702 54.1609C22.1664 54.1691 20.1997 53.6181 17.3684 52.5155C16.9221 52.3418 15.3313 51.717 14.9554 51.6876C15.9756 53.2144 18.3068 55.0434 19.902 55.7832C20.1419 55.8945 20.3496 55.974 20.6115 56.0972C21.5722 56.5481 24.3367 57.4636 25.357 57.4902Z" fill="#F4F6F4"/>
<path fill-rule="evenodd" clip-rule="evenodd" d="M75.4713 118.083C75.1956 114.705 76.8214 114.423 76.8332 113.56C76.2292 113.871 75.1027 114.965 74.702 115.522C74.2597 116.135 73.5951 117.391 73.5951 118.424C73.5951 119.706 73.5352 120.816 74.4336 121.938C75.1671 122.854 76.2687 123.455 77.4791 123.668C78.2301 123.8 78.4386 123.905 78.7367 123.66C79.322 123.177 79.7854 122.596 79.9903 121.751C79.2063 121.754 78.7502 121.713 78.1849 121.509C76.7399 120.988 75.6053 119.66 75.4713 118.083Z" fill="#F4F6F4"/>
<path fill-rule="evenodd" clip-rule="evenodd" d="M93.4537 33.4239C94.0043 33.3795 95.8097 32.225 96.2854 31.9053C97.2208 31.2764 97.9018 30.6404 98.6748 29.8603C99.4213 29.107 100.091 28.357 100.664 27.4143C101.132 26.6451 101.853 25.3039 102.063 24.3769C101.824 24.2252 99.7647 23.901 99.2503 23.7783C98.9688 24.3704 98.7786 25.3291 98.1702 26.5382C97.332 28.2038 95.5535 31.0514 94.287 32.2936C93.986 32.5884 93.4965 32.9244 93.4537 33.4239Z" fill="#F4F6F4"/>
<path fill-rule="evenodd" clip-rule="evenodd" d="M105.045 96.6616C105.134 96.7999 105.207 98.1763 105.386 98.9662L106.949 98.1395C107.425 97.9164 108.325 97.6819 108.966 97.6857C109.319 97.6876 110.341 97.945 110.729 98.1403C112.105 98.8327 113.45 100.889 113.484 102.295C114.037 101.653 113.797 99.0436 112.67 97.5621C112.23 96.9826 111.62 96.5124 111.01 96.1519C109.697 95.3762 107.948 95.2829 106.517 95.8314C105.967 96.0418 105.481 96.2869 105.045 96.6616Z" fill="#F4F6F4"/>
<path fill-rule="evenodd" clip-rule="evenodd" d="M112.719 101.357C112.51 101.494 112.471 101.586 112.254 101.747C112.086 101.873 111.926 101.979 111.746 102.089C109.224 103.624 105.395 102.071 104.669 99.1729C104.641 99.0644 104.621 98.9466 104.589 98.8275C104.585 98.8132 104.541 98.6639 104.529 98.6301C104.522 98.6109 104.51 98.5857 104.504 98.5689L104.448 98.4519C104.461 100.994 105.185 103.902 107.847 104.868C110.329 105.768 112.83 104.139 113.041 103.297C113.232 102.536 112.861 102.014 112.719 101.357Z" fill="#F4F6F4"/>
<path fill-rule="evenodd" clip-rule="evenodd" d="M93.8789 63.5493C92.4966 62.3002 89.9316 63.5399 88.1168 63.2605C87.1321 63.1088 87.1972 62.8026 86.645 62.4445C86.4491 63.1435 86.0798 64.1471 87.0567 64.9198C88.4802 66.045 90.8875 66.1853 92.6334 65.7147C93.4883 65.4843 93.1779 65.5181 93.4561 64.8297C93.6378 64.3804 93.8833 64.2119 93.8789 63.5493Z" fill="#192D2B"/>
<path fill-rule="evenodd" clip-rule="evenodd" d="M42.6017 49.8326C42.4315 51.4486 43.9387 51.9576 45.3833 51.9453C50.3275 51.9046 49.702 49.7012 48.7392 49.1805C47.5818 48.5545 46.0606 49.0968 44.7512 49.5189C43.8304 49.8158 43.5633 49.7346 42.6017 49.8326Z" fill="#1C2C2B"/>
<path fill-rule="evenodd" clip-rule="evenodd" d="M79.3908 22.8436C79.1791 22.9777 78.9106 23.2339 78.6859 23.4145C77.8086 24.1196 76.81 24.4381 75.6342 24.3016C73.9282 24.1029 73.1548 22.7367 72.2291 22.2442C72.2372 23.0121 72.2351 25.184 72.4926 25.5661C72.9458 26.2394 76.0162 26.7455 78.079 25.1962C78.6638 24.757 79.3949 23.8171 79.3908 22.8436Z" fill="#F4F6F4"/>
<path fill-rule="evenodd" clip-rule="evenodd" d="M30.723 38.6287C30.4942 37.7711 29.3335 37.3062 29.6463 36.2737C29.9623 35.2301 30.857 34.1841 30.991 33.8489C31.2684 33.1548 29.9867 32.6565 29.7871 32.656C28.7926 32.6549 28.0217 32.8502 27.3606 33.8109C26.9391 34.4238 26.8088 35.4744 27.2304 36.1554C27.6348 36.8091 29.0093 37.6536 29.7586 38.0606C30.1105 38.2523 30.3887 38.4505 30.723 38.6287Z" fill="#192D2B"/>
<path fill-rule="evenodd" clip-rule="evenodd" d="M25.8676 56.8879C26.5897 56.3728 27.7471 53.6218 27.7406 52.0294C27.3227 51.7451 26.8471 51.4348 26.3306 51.2228L24.7562 50.4924C24.9753 51.3862 25.3528 51.885 25.5866 53.4175C25.7662 54.5973 25.8586 55.5413 25.8676 56.8879Z" fill="#F4F6F4"/>
<path fill-rule="evenodd" clip-rule="evenodd" d="M68.652 13.7946C68.6528 17.2042 68.1522 17.2303 68.0558 18.3187C69.5056 17.9737 70.6309 15.9742 70.9742 14.7435C71.0801 14.3634 70.9078 14.1815 70.6 13.9781C69.8905 13.5095 69.5456 13.5079 68.6524 13.282L68.652 13.7946Z" fill="#F4F6F4"/>
<path fill-rule="evenodd" clip-rule="evenodd" d="M32.686 104.087C32.7772 104.223 33.8166 105.338 34.4772 106.304C34.6226 106.068 34.6287 105.795 34.6604 105.553C34.6885 105.34 34.7411 105.013 34.7814 104.736C34.8804 104.053 34.7863 103.537 34.7252 102.981C34.0039 103.325 33.1108 103.46 32.686 104.087Z" fill="#192D2B"/>
</g>
<rect x="0.5" y="0.5" width="136" height="136" rx="68" stroke="black"/>
<defs>
<clipPath id="clip0_18_1102">
<rect width="137" height="137" rx="68.5" fill="white"/>
</clipPath>
</defs>
</svg>
