<?xml version="1.0" encoding="UTF-8"?>
<!DOCTYPE svg PUBLIC "-//W3C//DTD SVG 1.1//EN" "http://www.w3.org/Graphics/SVG/1.1/DTD/svg11.dtd">
<!-- Creator: CorelDRAW (Versión de evaluación) -->
<svg xmlns="http://www.w3.org/2000/svg" xml:space="preserve" width="95.2498mm" height="92.3394mm" version="1.1" style="shape-rendering:geometricPrecision; text-rendering:geometricPrecision; image-rendering:optimizeQuality; fill-rule:evenodd; clip-rule:evenodd"
viewBox="0 0 9524.98 9233.94"
 xmlns:xlink="http://www.w3.org/1999/xlink"
 xmlns:xodm="http://www.corel.com/coreldraw/odm/2003">
 <defs>
  <style type="text/css">
   <![CDATA[
    .str0 {stroke:black;stroke-width:52.92;stroke-miterlimit:22.9256}
    .fil0 {fill:white}
   ]]>
  </style>
 </defs>
 <g id="Capa_x0020_1">
  <metadata id="CorelCorpID_0Corel-Layer"/>
  <g id="_2498849998688">
   <path class="fil0 str0" d="M5472.21 2327.5c-66.36,-119.4 -61.36,-133.87 -160.02,-206.19 -281.85,-206.59 -192.66,-140.25 -561.82,-132.14 -84.81,-118.69 -356.98,-378.52 -483.26,-479.47 -178.04,-142.37 -336.35,-305.64 -513.51,-449.85 -34.28,-27.94 -99.97,-89.19 -129.06,-121.01 -117.53,-128.63 -182.5,-212.6 -376.49,-336.4 -33.85,-21.6 -324.45,-126.71 -362.98,-122.49 -174.16,19.07 63.25,62.01 -157.93,26.06 -91.82,-14.92 -36.85,-9.24 -90.76,13.7l-86.27 41.11c20.23,159.54 106.68,260.25 264.57,309.32 -48.65,87.48 -42.18,-10.28 -60.05,93.38 209.81,111.92 203.58,129.75 261.24,161.09 279.09,151.65 189.12,-189.51 652.78,579.08 57.31,95 93.54,188.63 150.15,273.35 135.72,203.13 403.16,472.5 431.91,779.62 -126.47,81.04 -56.87,81.47 -122.6,164.61 -41.91,53.03 -110.07,49.17 -96.01,154.12 26.62,199.17 194.28,190.18 316.24,105.61 39.7,280.95 11.08,388.7 118.6,652.28 73.78,180.87 113.53,384.21 190.03,560.32 159.92,368.12 637.41,884.49 651.72,1256.41 3.28,85.33 -26.85,63.8 -6.07,159.69 18.52,85.56 39.32,39.44 21.44,155.19 -21.63,139.91 -86.85,139.23 -148.27,238.2 -84.68,136.37 -4.14,106.28 -154.69,211.25 -449.93,313.7 -182.19,637.68 -552.07,969.27 -70.16,62.89 -123.5,123.8 -195.93,189.14l-403.54 367.46c-66.45,57.37 -119.37,129.46 -191.76,174.15 -182.02,112.45 -422.47,98.36 -641.95,59.96 -473.16,-82.8 -860.47,112.92 -1278.48,191.96 -576.84,109.09 -311.26,-142.62 -529.54,-160.22 -101.6,-8.19 -213.16,86.09 -259.85,126.43 -280.31,242.25 -403.99,139.85 -518.72,251.92 -50.75,49.56 -34.45,42.15 -98.26,92.35 -224.99,177.09 241.73,82.2 241.77,82.2 95.09,-0.15 191.04,19.11 274.16,40.82 337.46,88.13 823.73,13.13 1170.81,9.39 196.79,-2.1 404.62,4.21 598.72,10.33 417.68,13.14 789.33,53.06 1212.58,39.16 204.99,-6.72 291.12,-86.53 443.15,-169.06 532.72,-289.17 616.15,-286.49 1135.34,-732.63 126.07,-108.32 181.48,-219.26 307.12,-328.33 181.55,-157.57 127.96,-155.49 429.51,-180.21 833.13,-68.25 1211.79,-645.41 1587.93,-892.15 -29.8,161.24 -64.62,265.14 -70.29,456.36 -12.9,435.38 52.72,932.02 -140.36,1439.84 -206.06,541.89 375.87,305.42 602.28,309.95 167.71,3.33 321.82,30.06 481.52,40.9 102.51,6.97 155.83,30.81 250.02,31.07 104.97,0.28 163.17,7.55 195.83,-68.13 -42.43,-67.12 -294.91,-99.05 -386.47,-118.5 -54,-11.48 -226.11,-128.83 -308.68,-171.33 -140.14,-72.14 -215.5,-68.5 -251.99,-250.49 -93.58,-466.68 406.42,-1225.74 483.72,-1969.19 -79.99,39.83 -74.68,58.05 -130.5,101.47 66.83,-97.47 144.2,-143.29 175.14,-299.09 29.7,-149.54 5.88,-301.84 -65.73,-393.88 -53.85,-69.25 -189.74,-155.57 -326.37,-164.09 -265.61,-16.63 -860.58,257.47 -1089.89,365.99l-626.85 314.32c-0.49,-206.93 35.77,-404.07 25.99,-631.92 -21.44,-498.96 -79.95,-532.35 -130.38,-854.99 -17.33,-110.95 -7.08,-179.84 -44.65,-284.7 -122.46,-341.86 -385.13,-417.86 -484.72,-498.71 -59.38,-48.19 -110.03,-132.93 -159.23,-168.08 -71.77,-51.32 -145.38,-52.79 -204.27,-122.54 -118.44,-140.33 -115.48,-322.71 25.53,-469.7 31.78,-33.13 51.97,-54.55 91.31,-81.75 227.73,-157.52 125.29,-94.04 118.67,-288.85 -3.56,-105.2 -2.21,-139.42 -87.31,-191.04l29.07 -148.3c-99.85,-71.79 -191.53,-5.9 -251.27,-113.4z"/>
  </g>
 </g>
</svg>
