<?xml version="1.0" encoding="UTF-8"?>
<!DOCTYPE svg PUBLIC "-//W3C//DTD SVG 1.1//EN" "http://www.w3.org/Graphics/SVG/1.1/DTD/svg11.dtd">
<!-- Creator: CorelDRAW (Versión de evaluación) -->
<svg xmlns="http://www.w3.org/2000/svg" xml:space="preserve" width="1.25in" height="0.937496in" version="1.1" style="shape-rendering:geometricPrecision; text-rendering:geometricPrecision; image-rendering:optimizeQuality; fill-rule:evenodd; clip-rule:evenodd"
viewBox="0 0 1250 937.5"
 xmlns:xlink="http://www.w3.org/1999/xlink"
 xmlns:xodm="http://www.corel.com/coreldraw/odm/2003">
 <defs>
  <style type="text/css">
   <![CDATA[
    .fil1 {fill:#5B738B}
    .fil2 {fill:#8396A8}
    .fil3 {fill:#A9B4BE}
    .fil0 {fill:#D4D9DC}
   ]]>
  </style>
 </defs>
 <g id="Capa_x0020_1">
  <metadata id="CorelCorpID_0Corel-Layer"/>
  <g id="_3206002479584">
   <path class="fil0" d="M15.35 742.05l23.63 -27.11c6.87,-8.61 15.82,-19.2 22.95,-27.13l140.41 -159.36c19.53,-15.8 47.07,-24.07 76.69,-12.85 27.91,10.57 64.08,60.59 87.37,86.44 5.35,5.94 7.65,7.72 12.39,13.74 10.41,13.23 40.81,43.23 46.68,53.99l103.73 -116.66c7.09,-8.87 18.12,-22.18 25.29,-29.54l39.15 -44.04c19.4,-22.55 26.46,-39.25 49.98,-25.15l-95.5 -119.76c-7.26,-9.11 -25.17,-33.48 -33.52,-38.39 3.11,109.75 -170.74,127.67 -185.59,9.6 -6.75,-53.66 31.75,-95.4 75.39,-103.61 51.38,-9.66 103.41,28.23 106.56,70.21 3.61,-5.28 7.48,-8.81 11.63,-13.94 32.7,-40.55 75.69,-85.74 108.78,-126.81 11.17,-13.86 52.17,-46.53 26.13,-63.5 -10.23,-6.67 -37.13,-2.78 -51.95,-2.78 -140.41,0 -280.81,0 -421.22,0 -63.25,0 -107.13,6.21 -146.17,63.24 -14.46,21.12 -22.52,44.97 -22.79,79.23l0 534.18z"/>
   <path class="fil0" d="M731.96 465.19c2.98,-7.64 22.3,-29.24 28.33,-35.66 35.53,-37.74 56.99,-81.85 111.65,-73.79 37.24,5.49 52.46,33.8 70.41,53.5 20.48,22.47 38.15,42.35 58.24,65.38l217.69 248.78c8.05,8.17 6.81,10.67 15.51,16.5l0 -7.23 0 -7.23 0 -7.23 0 -7.23 0 -7.22 0 -7.23 0 -7.23 0 -7.23 0 -7.23 0 -7.23 0 -7.23 0 -7.23 0 -7.23 0 -7.23 0 -7.23 0 -7.23 0 -7.23 0 -7.23 0 -7.23 0 -7.23 0 -7.23 0 -7.23 0 -7.23 0 -7.23 0 -7.23 0 -7.23 0 -7.23 0 -7.23 0 -7.23 0 -7.23 0 -7.23 0 -7.23 0 -7.23 0 -7.23 0 -7.23 0 -7.23 0 -7.23 0 -7.23 0 -7.23 0 -7.23 0 -7.23 0 -7.23 0 -7.23 0 -7.23 0 -7.23 0 -7.23 0 -7.23 0 -7.23 0 -7.23 0 -7.22 0 -7.23 0 -7.23 0 -7.23 0 -7.23 0 -7.23 0 -7.23 0 -7.23 0 -7.23 0 -7.23 0 -7.23 0 -7.23 0 -7.23 0 -7.23 0 -7.23 0 -65.51c-1.75,-44.07 -10.89,-83.19 -50.94,-114.39 -19.8,-15.43 -48.53,-31.67 -82.22,-32l-316.64 0.06c-27.11,-0.3 -19.85,-0.61 -31.62,13.6l-140.3 161.93c-4.5,5.03 -7.71,11.35 -10.61,17.95 -15.2,34.69 9.93,59.94 26.05,79.69l76.63 94.71c5.87,7.47 21.77,28.21 27.83,31.96z"/>
   <path class="fil1" d="M731.96 465.19c4.38,9.66 12.85,17.78 2.63,31.48l-99.5 114.7c-28.67,36.85 -62.47,56.67 -18.01,111.18 13.09,16.04 25.59,30.38 39.15,46.52l97.41 116.76c9.08,11.27 16.36,7.78 35.11,7.72 58.34,-0.17 308.78,3.93 338.93,-3.76 21.05,-5.37 42.99,-16.78 56.69,-28.97 38.08,-33.9 49.39,-68.16 49.39,-120.91 -8.7,-5.83 -7.46,-8.33 -15.51,-16.5l-217.69 -248.78c-20.08,-23.03 -37.76,-42.91 -58.24,-65.38 -17.94,-19.69 -33.17,-48.01 -70.41,-53.5 -54.65,-8.06 -76.11,36.05 -111.65,73.79 -6.04,6.41 -25.35,28.02 -28.33,35.66z"/>
   <path class="fil2" d="M15.35 742.05l0 1.08c0.01,22.57 0.34,33.38 5.68,51.92 11.83,41.07 49.54,79.49 90.97,92.27 31.04,9.57 80.11,6.22 115.15,6.22 40.11,0 80.23,0 120.35,0 -16.12,-8.14 -18.41,-3.44 -31.48,-17.48 -41.91,-45.02 6.57,-85.55 17.55,-99.82l46.8 -53.09c14.75,-17.93 31.77,-34.41 45.11,-53.38 -5.87,-10.76 -36.27,-40.76 -46.68,-53.99 -4.74,-6.02 -7.03,-7.8 -12.39,-13.74 -23.3,-25.86 -59.46,-75.87 -87.37,-86.44 -29.61,-11.22 -57.16,-2.95 -76.69,12.85l-140.41 159.36c-7.13,7.93 -16.08,18.52 -22.95,27.13l-23.63 27.11z"/>
   <path class="fil1" d="M425.46 669.77c-13.34,18.97 -30.35,35.45 -45.11,53.38l-46.8 53.09c-10.98,14.27 -59.45,54.8 -17.55,99.82 13.07,14.04 15.36,9.34 31.48,17.48l298.56 0.07c15.22,-1.57 26.72,-18.13 8.89,-37.59l-121.83 -144.71c-40.09,-51.21 -27.52,-27.33 40.09,-114.24 5.42,-6.96 9.64,-10.98 15.3,-18.01 3.07,-3.8 4.8,-4.96 8.05,-8.61 11.69,-13.13 47.73,-54.63 51.58,-65.02 6.52,-17.59 5.37,-37.41 -4.54,-51.06 -23.52,-14.1 -30.57,2.61 -49.98,25.15l-39.15 44.04c-7.17,7.35 -18.2,20.66 -25.29,29.54l-103.73 116.66z"/>
   <path class="fil3" d="M514.58 296.22c-1.53,-11.82 -5.35,-6.43 -3.64,-23.8 -3.15,-41.98 -55.18,-79.87 -106.56,-70.21 -43.64,8.21 -82.14,49.94 -75.39,103.61 14.84,118.07 188.69,100.15 185.59,-9.6z"/>
  </g>
 </g>
</svg>
