<?xml version="1.0" encoding="UTF-8"?>
<!DOCTYPE svg PUBLIC "-//W3C//DTD SVG 1.1//EN" "http://www.w3.org/Graphics/SVG/1.1/DTD/svg11.dtd">
<!-- Creator: CorelDRAW (Versión de evaluación) -->
<svg xmlns="http://www.w3.org/2000/svg" xml:space="preserve" width="42.3332mm" height="76.1998mm" version="1.1" style="shape-rendering:geometricPrecision; text-rendering:geometricPrecision; image-rendering:optimizeQuality; fill-rule:evenodd; clip-rule:evenodd"
viewBox="0 0 4233.32 7619.98"
 xmlns:xlink="http://www.w3.org/1999/xlink"
 xmlns:xodm="http://www.corel.com/coreldraw/odm/2003">
 <defs>
  <style type="text/css">
   <![CDATA[
    .fil0 {fill:#231F20}
    .fil5 {fill:#242021}
    .fil3 {fill:#252122}
    .fil7 {fill:#F2F1F1}
    .fil6 {fill:#F5F3F4}
    .fil4 {fill:#FDFDFD}
    .fil2 {fill:#FEFEFE}
    .fil1 {fill:white}
   ]]>
  </style>
    <mask id="id0">
  <linearGradient id="id1" gradientUnits="userSpaceOnUse" x1="1707.59" y1="5271.73" x2="1668.48" y2="6952.62">
   <stop offset="0" style="stop-opacity:1; stop-color:white"/>
   <stop offset="1" style="stop-opacity:0; stop-color:white"/>
  </linearGradient>
     <rect style="fill:url(#id1)" x="286.73" y="44.29" width="3543.92" height="7452.15"/>
    </mask>
    <mask id="id2">
  <linearGradient id="id3" gradientUnits="userSpaceOnUse" x1="1707.59" y1="5271.73" x2="1668.48" y2="6952.62">
   <stop offset="0" style="stop-opacity:1; stop-color:white"/>
   <stop offset="1" style="stop-opacity:0; stop-color:white"/>
  </linearGradient>
     <rect style="fill:url(#id3)" x="1703.16" y="1913.31" width="2107.34" height="2854.57"/>
    </mask>
    <mask id="id4">
  <linearGradient id="id5" gradientUnits="userSpaceOnUse" x1="1707.59" y1="5271.73" x2="1668.48" y2="6952.62">
   <stop offset="0" style="stop-opacity:1; stop-color:white"/>
   <stop offset="1" style="stop-opacity:0; stop-color:white"/>
  </linearGradient>
     <rect style="fill:url(#id5)" x="307.77" y="1735.23" width="1819.09" height="3138.13"/>
    </mask>
    <mask id="id6">
  <linearGradient id="id7" gradientUnits="userSpaceOnUse" x1="1707.59" y1="5271.73" x2="1668.48" y2="6952.62">
   <stop offset="0" style="stop-opacity:1; stop-color:white"/>
   <stop offset="1" style="stop-opacity:0; stop-color:white"/>
  </linearGradient>
     <rect style="fill:url(#id7)" x="525.04" y="5498.91" width="2184" height="1965.56"/>
    </mask>
    <mask id="id8">
  <linearGradient id="id9" gradientUnits="userSpaceOnUse" x1="1707.59" y1="5271.73" x2="1668.48" y2="6952.62">
   <stop offset="0" style="stop-opacity:1; stop-color:white"/>
   <stop offset="1" style="stop-opacity:0; stop-color:white"/>
  </linearGradient>
     <rect style="fill:url(#id9)" x="1855.11" y="4713.16" width="937" height="1362.94"/>
    </mask>
    <mask id="id10">
  <linearGradient id="id11" gradientUnits="userSpaceOnUse" x1="1707.59" y1="5271.73" x2="1668.48" y2="6952.62">
   <stop offset="0" style="stop-opacity:1; stop-color:white"/>
   <stop offset="1" style="stop-opacity:0; stop-color:white"/>
  </linearGradient>
     <rect style="fill:url(#id11)" x="2500.55" y="5731.58" width="1123.84" height="1746.3"/>
    </mask>
    <mask id="id12">
  <linearGradient id="id13" gradientUnits="userSpaceOnUse" x1="1707.59" y1="5271.73" x2="1668.48" y2="6952.62">
   <stop offset="0" style="stop-opacity:1; stop-color:white"/>
   <stop offset="1" style="stop-opacity:0; stop-color:white"/>
  </linearGradient>
     <rect style="fill:url(#id13)" x="1645.71" y="669.78" width="895.63" height="1118.14"/>
    </mask>
    <mask id="id14">
  <linearGradient id="id15" gradientUnits="userSpaceOnUse" x1="1707.59" y1="5271.73" x2="1668.48" y2="6952.62">
   <stop offset="0" style="stop-opacity:1; stop-color:white"/>
   <stop offset="1" style="stop-opacity:0; stop-color:white"/>
  </linearGradient>
     <rect style="fill:url(#id15)" x="1451.98" y="1720.76" width="1187.01" height="2659.7"/>
    </mask>
    <mask id="id16">
  <linearGradient id="id17" gradientUnits="userSpaceOnUse" x1="1707.59" y1="5271.73" x2="1668.48" y2="6952.62">
   <stop offset="0" style="stop-opacity:1; stop-color:white"/>
   <stop offset="1" style="stop-opacity:0; stop-color:white"/>
  </linearGradient>
     <rect style="fill:url(#id17)" x="1138.12" y="4693.21" width="722.62" height="1314.36"/>
    </mask>
    <mask id="id18">
  <linearGradient id="id19" gradientUnits="userSpaceOnUse" x1="1707.59" y1="5271.73" x2="1668.48" y2="6952.62">
   <stop offset="0" style="stop-opacity:1; stop-color:white"/>
   <stop offset="1" style="stop-opacity:0; stop-color:white"/>
  </linearGradient>
     <rect style="fill:url(#id19)" x="2931.55" y="4722.31" width="633.82" height="966.41"/>
    </mask>
    <mask id="id20">
  <linearGradient id="id21" gradientUnits="userSpaceOnUse" x1="1707.59" y1="5271.73" x2="1668.48" y2="6952.62">
   <stop offset="0" style="stop-opacity:1; stop-color:white"/>
   <stop offset="1" style="stop-opacity:0; stop-color:white"/>
  </linearGradient>
     <rect style="fill:url(#id21)" x="775.68" y="4851.03" width="612.71" height="865.22"/>
    </mask>
    <mask id="id22">
  <linearGradient id="id23" gradientUnits="userSpaceOnUse" x1="1707.59" y1="5271.73" x2="1668.48" y2="6952.62">
   <stop offset="0" style="stop-opacity:1; stop-color:white"/>
   <stop offset="1" style="stop-opacity:0; stop-color:white"/>
  </linearGradient>
     <rect style="fill:url(#id23)" x="2628.92" y="4661.27" width="496.79" height="843.89"/>
    </mask>
    <mask id="id24">
  <linearGradient id="id25" gradientUnits="userSpaceOnUse" x1="1707.59" y1="5271.73" x2="1668.48" y2="6952.62">
   <stop offset="0" style="stop-opacity:1; stop-color:white"/>
   <stop offset="1" style="stop-opacity:0; stop-color:white"/>
  </linearGradient>
     <rect style="fill:url(#id25)" x="1758.55" y="1581.85" width="710.33" height="705.76"/>
    </mask>
    <mask id="id26">
  <linearGradient id="id27" gradientUnits="userSpaceOnUse" x1="1707.59" y1="5271.73" x2="1668.48" y2="6952.62">
   <stop offset="0" style="stop-opacity:1; stop-color:white"/>
   <stop offset="1" style="stop-opacity:0; stop-color:white"/>
  </linearGradient>
     <rect style="fill:url(#id27)" x="2844.92" y="5483.77" width="437.69" height="697.01"/>
    </mask>
    <mask id="id28">
  <linearGradient id="id29" gradientUnits="userSpaceOnUse" x1="1707.59" y1="5271.73" x2="1668.48" y2="6952.62">
   <stop offset="0" style="stop-opacity:1; stop-color:white"/>
   <stop offset="1" style="stop-opacity:0; stop-color:white"/>
  </linearGradient>
     <rect style="fill:url(#id29)" x="869.07" y="5730.8" width="692.32" height="461.37"/>
    </mask>
    <mask id="id30">
  <linearGradient id="id31" gradientUnits="userSpaceOnUse" x1="1707.59" y1="5271.73" x2="1668.48" y2="6952.62">
   <stop offset="0" style="stop-opacity:1; stop-color:white"/>
   <stop offset="1" style="stop-opacity:0; stop-color:white"/>
  </linearGradient>
     <rect style="fill:url(#id31)" x="1193.26" y="4641.33" width="386.97" height="695.63"/>
    </mask>
    <mask id="id32">
  <linearGradient id="id33" gradientUnits="userSpaceOnUse" x1="1707.59" y1="5271.73" x2="1668.48" y2="6952.62">
   <stop offset="0" style="stop-opacity:1; stop-color:white"/>
   <stop offset="1" style="stop-opacity:0; stop-color:white"/>
  </linearGradient>
     <rect style="fill:url(#id33)" x="1811.15" y="6042.34" width="935.34" height="177.86"/>
    </mask>
    <mask id="id34">
  <linearGradient id="id35" gradientUnits="userSpaceOnUse" x1="1707.59" y1="5271.73" x2="1668.48" y2="6952.62">
   <stop offset="0" style="stop-opacity:1; stop-color:white"/>
   <stop offset="1" style="stop-opacity:0; stop-color:white"/>
  </linearGradient>
     <rect style="fill:url(#id35)" x="992.98" y="2238.11" width="272.01" height="1407.38"/>
    </mask>
    <mask id="id36">
  <linearGradient id="id37" gradientUnits="userSpaceOnUse" x1="1707.59" y1="5271.73" x2="1668.48" y2="6952.62">
   <stop offset="0" style="stop-opacity:1; stop-color:white"/>
   <stop offset="1" style="stop-opacity:0; stop-color:white"/>
  </linearGradient>
     <rect style="fill:url(#id37)" x="661.05" y="2392" width="463.56" height="840.31"/>
    </mask>
    <mask id="id38">
  <linearGradient id="id39" gradientUnits="userSpaceOnUse" x1="1707.59" y1="5271.73" x2="1668.48" y2="6952.62">
   <stop offset="0" style="stop-opacity:1; stop-color:white"/>
   <stop offset="1" style="stop-opacity:0; stop-color:white"/>
  </linearGradient>
     <rect style="fill:url(#id39)" x="2019.31" y="6187.27" width="699.67" height="85.48"/>
    </mask>
    <mask id="id40">
  <linearGradient id="id41" gradientUnits="userSpaceOnUse" x1="1707.59" y1="5271.73" x2="1668.48" y2="6952.62">
   <stop offset="0" style="stop-opacity:1; stop-color:white"/>
   <stop offset="1" style="stop-opacity:0; stop-color:white"/>
  </linearGradient>
     <rect style="fill:url(#id41)" x="2776.74" y="2136.07" width="166.87" height="1133.33"/>
    </mask>
    <mask id="id42">
  <linearGradient id="id43" gradientUnits="userSpaceOnUse" x1="1707.59" y1="5271.73" x2="1668.48" y2="6952.62">
   <stop offset="0" style="stop-opacity:1; stop-color:white"/>
   <stop offset="1" style="stop-opacity:0; stop-color:white"/>
  </linearGradient>
     <rect style="fill:url(#id43)" x="3142.97" y="3383.03" width="324.11" height="859.22"/>
    </mask>
    <mask id="id44">
  <linearGradient id="id45" gradientUnits="userSpaceOnUse" x1="1707.59" y1="5271.73" x2="1668.48" y2="6952.62">
   <stop offset="0" style="stop-opacity:1; stop-color:white"/>
   <stop offset="1" style="stop-opacity:0; stop-color:white"/>
  </linearGradient>
     <rect style="fill:url(#id45)" x="1163.27" y="4611.9" width="152.2" height="434.75"/>
    </mask>
    <mask id="id46">
  <linearGradient id="id47" gradientUnits="userSpaceOnUse" x1="1707.59" y1="5271.73" x2="1668.48" y2="6952.62">
   <stop offset="0" style="stop-opacity:1; stop-color:white"/>
   <stop offset="1" style="stop-opacity:0; stop-color:white"/>
  </linearGradient>
     <rect style="fill:url(#id47)" x="839.08" y="2874.93" width="146.17" height="752.93"/>
    </mask>
    <mask id="id48">
  <linearGradient id="id49" gradientUnits="userSpaceOnUse" x1="1707.59" y1="5271.73" x2="1668.48" y2="6952.62">
   <stop offset="0" style="stop-opacity:1; stop-color:white"/>
   <stop offset="1" style="stop-opacity:0; stop-color:white"/>
  </linearGradient>
     <rect style="fill:url(#id49)" x="672.02" y="6670.01" width="167.4" height="586.56"/>
    </mask>
    <mask id="id50">
  <linearGradient id="id51" gradientUnits="userSpaceOnUse" x1="1707.59" y1="5271.73" x2="1668.48" y2="6952.62">
   <stop offset="0" style="stop-opacity:1; stop-color:white"/>
   <stop offset="1" style="stop-opacity:0; stop-color:white"/>
  </linearGradient>
     <rect style="fill:url(#id51)" x="2891.53" y="5951.66" width="416.19" height="292.81"/>
    </mask>
    <mask id="id52">
  <linearGradient id="id53" gradientUnits="userSpaceOnUse" x1="1707.59" y1="5271.73" x2="1668.48" y2="6952.62">
   <stop offset="0" style="stop-opacity:1; stop-color:white"/>
   <stop offset="1" style="stop-opacity:0; stop-color:white"/>
  </linearGradient>
     <rect style="fill:url(#id53)" x="2761.87" y="2899.58" width="260.01" height="578.15"/>
    </mask>
    <mask id="id54">
  <linearGradient id="id55" gradientUnits="userSpaceOnUse" x1="1707.59" y1="5271.73" x2="1668.48" y2="6952.62">
   <stop offset="0" style="stop-opacity:1; stop-color:white"/>
   <stop offset="1" style="stop-opacity:0; stop-color:white"/>
  </linearGradient>
     <rect style="fill:url(#id55)" x="3131.17" y="3474.53" width="137.26" height="500.84"/>
    </mask>
    <mask id="id56">
  <linearGradient id="id57" gradientUnits="userSpaceOnUse" x1="1707.59" y1="5271.73" x2="1668.48" y2="6952.62">
   <stop offset="0" style="stop-opacity:1; stop-color:white"/>
   <stop offset="1" style="stop-opacity:0; stop-color:white"/>
  </linearGradient>
     <rect style="fill:url(#id57)" x="2147.25" y="4837.92" width="321.92" height="607.09"/>
    </mask>
    <mask id="id58">
  <linearGradient id="id59" gradientUnits="userSpaceOnUse" x1="1707.59" y1="5271.73" x2="1668.48" y2="6952.62">
   <stop offset="0" style="stop-opacity:1; stop-color:white"/>
   <stop offset="1" style="stop-opacity:0; stop-color:white"/>
  </linearGradient>
     <rect style="fill:url(#id59)" x="2156.74" y="2218.27" width="133.9" height="280.29"/>
    </mask>
    <mask id="id60">
  <linearGradient id="id61" gradientUnits="userSpaceOnUse" x1="1707.59" y1="5271.73" x2="1668.48" y2="6952.62">
   <stop offset="0" style="stop-opacity:1; stop-color:white"/>
   <stop offset="1" style="stop-opacity:0; stop-color:white"/>
  </linearGradient>
     <rect style="fill:url(#id61)" x="2069.79" y="4881.57" width="232.63" height="415.6"/>
    </mask>
    <mask id="id62">
  <linearGradient id="id63" gradientUnits="userSpaceOnUse" x1="1707.59" y1="5271.73" x2="1668.48" y2="6952.62">
   <stop offset="0" style="stop-opacity:1; stop-color:white"/>
   <stop offset="1" style="stop-opacity:0; stop-color:white"/>
  </linearGradient>
     <rect style="fill:url(#id63)" x="1604.81" y="1937.02" width="413.45" height="835.71"/>
    </mask>
    <mask id="id64">
  <linearGradient id="id65" gradientUnits="userSpaceOnUse" x1="1707.59" y1="5271.73" x2="1668.48" y2="6952.62">
   <stop offset="0" style="stop-opacity:1; stop-color:white"/>
   <stop offset="1" style="stop-opacity:0; stop-color:white"/>
  </linearGradient>
     <rect style="fill:url(#id65)" x="1969.26" y="2181.38" width="155.45" height="299.22"/>
    </mask>
    <mask id="id66">
  <linearGradient id="id67" gradientUnits="userSpaceOnUse" x1="1707.59" y1="5271.73" x2="1668.48" y2="6952.62">
   <stop offset="0" style="stop-opacity:1; stop-color:white"/>
   <stop offset="1" style="stop-opacity:0; stop-color:white"/>
  </linearGradient>
     <rect style="fill:url(#id67)" x="1277.57" y="5681.7" width="269.12" height="268.82"/>
    </mask>
    <mask id="id68">
  <linearGradient id="id69" gradientUnits="userSpaceOnUse" x1="1707.59" y1="5271.73" x2="1668.48" y2="6952.62">
   <stop offset="0" style="stop-opacity:1; stop-color:white"/>
   <stop offset="1" style="stop-opacity:0; stop-color:white"/>
  </linearGradient>
     <rect style="fill:url(#id69)" x="2207.41" y="6447.21" width="345.84" height="474.99"/>
    </mask>
    <mask id="id70">
  <linearGradient id="id71" gradientUnits="userSpaceOnUse" x1="1707.59" y1="5271.73" x2="1668.48" y2="6952.62">
   <stop offset="0" style="stop-opacity:1; stop-color:white"/>
   <stop offset="1" style="stop-opacity:0; stop-color:white"/>
  </linearGradient>
     <rect style="fill:url(#id71)" x="751.15" y="4140.47" width="335.25" height="326.62"/>
    </mask>
    <mask id="id72">
  <linearGradient id="id73" gradientUnits="userSpaceOnUse" x1="1707.59" y1="5271.73" x2="1668.48" y2="6952.62">
   <stop offset="0" style="stop-opacity:1; stop-color:white"/>
   <stop offset="1" style="stop-opacity:0; stop-color:white"/>
  </linearGradient>
     <rect style="fill:url(#id73)" x="3132.38" y="2133.92" width="141.04" height="333.45"/>
    </mask>
    <mask id="id74">
  <linearGradient id="id75" gradientUnits="userSpaceOnUse" x1="1707.59" y1="5271.73" x2="1668.48" y2="6952.62">
   <stop offset="0" style="stop-opacity:1; stop-color:white"/>
   <stop offset="1" style="stop-opacity:0; stop-color:white"/>
  </linearGradient>
     <rect style="fill:url(#id75)" x="341.11" y="4545.04" width="783.64" height="151.97"/>
    </mask>
    <mask id="id76">
  <linearGradient id="id77" gradientUnits="userSpaceOnUse" x1="1707.59" y1="5271.73" x2="1668.48" y2="6952.62">
   <stop offset="0" style="stop-opacity:1; stop-color:white"/>
   <stop offset="1" style="stop-opacity:0; stop-color:white"/>
  </linearGradient>
     <rect style="fill:url(#id77)" x="1864.59" y="4214.72" width="295.04" height="245.73"/>
    </mask>
    <mask id="id78">
  <linearGradient id="id79" gradientUnits="userSpaceOnUse" x1="1707.59" y1="5271.73" x2="1668.48" y2="6952.62">
   <stop offset="0" style="stop-opacity:1; stop-color:white"/>
   <stop offset="1" style="stop-opacity:0; stop-color:white"/>
  </linearGradient>
     <rect style="fill:url(#id79)" x="1261.94" y="3448.85" width="236.35" height="223.01"/>
    </mask>
    <mask id="id80">
  <linearGradient id="id81" gradientUnits="userSpaceOnUse" x1="1707.59" y1="5271.73" x2="1668.48" y2="6952.62">
   <stop offset="0" style="stop-opacity:1; stop-color:white"/>
   <stop offset="1" style="stop-opacity:0; stop-color:white"/>
  </linearGradient>
     <rect style="fill:url(#id81)" x="3168" y="4419.08" width="588.1" height="193.09"/>
    </mask>
    <mask id="id82">
  <linearGradient id="id83" gradientUnits="userSpaceOnUse" x1="1707.59" y1="5271.73" x2="1668.48" y2="6952.62">
   <stop offset="0" style="stop-opacity:1; stop-color:white"/>
   <stop offset="1" style="stop-opacity:0; stop-color:white"/>
  </linearGradient>
     <rect style="fill:url(#id83)" x="1455.54" y="3107.91" width="254.83" height="330.48"/>
    </mask>
    <mask id="id84">
  <linearGradient id="id85" gradientUnits="userSpaceOnUse" x1="1707.59" y1="5271.73" x2="1668.48" y2="6952.62">
   <stop offset="0" style="stop-opacity:1; stop-color:white"/>
   <stop offset="1" style="stop-opacity:0; stop-color:white"/>
  </linearGradient>
     <rect style="fill:url(#id85)" x="3058.39" y="4649.21" width="97.44" height="381.21"/>
    </mask>
    <mask id="id86">
  <linearGradient id="id87" gradientUnits="userSpaceOnUse" x1="1707.59" y1="5271.73" x2="1668.48" y2="6952.62">
   <stop offset="0" style="stop-opacity:1; stop-color:white"/>
   <stop offset="1" style="stop-opacity:0; stop-color:white"/>
  </linearGradient>
     <rect style="fill:url(#id87)" x="1263.97" y="3756.48" width="207.51" height="196.93"/>
    </mask>
    <mask id="id88">
  <linearGradient id="id89" gradientUnits="userSpaceOnUse" x1="1707.59" y1="5271.73" x2="1668.48" y2="6952.62">
   <stop offset="0" style="stop-opacity:1; stop-color:white"/>
   <stop offset="1" style="stop-opacity:0; stop-color:white"/>
  </linearGradient>
     <rect style="fill:url(#id89)" x="2720.96" y="7299.55" width="177.24" height="149.09"/>
    </mask>
    <mask id="id90">
  <linearGradient id="id91" gradientUnits="userSpaceOnUse" x1="1707.59" y1="5271.73" x2="1668.48" y2="6952.62">
   <stop offset="0" style="stop-opacity:1; stop-color:white"/>
   <stop offset="1" style="stop-opacity:0; stop-color:white"/>
  </linearGradient>
     <rect style="fill:url(#id91)" x="2997.4" y="4718.91" width="71.85" height="373.94"/>
    </mask>
    <mask id="id92">
  <linearGradient id="id93" gradientUnits="userSpaceOnUse" x1="1707.59" y1="5271.73" x2="1668.48" y2="6952.62">
   <stop offset="0" style="stop-opacity:1; stop-color:white"/>
   <stop offset="1" style="stop-opacity:0; stop-color:white"/>
  </linearGradient>
     <rect style="fill:url(#id93)" x="2798.39" y="7159.25" width="150.94" height="186.73"/>
    </mask>
    <mask id="id94">
  <linearGradient id="id95" gradientUnits="userSpaceOnUse" x1="1707.59" y1="5271.73" x2="1668.48" y2="6952.62">
   <stop offset="0" style="stop-opacity:1; stop-color:white"/>
   <stop offset="1" style="stop-opacity:0; stop-color:white"/>
  </linearGradient>
     <rect style="fill:url(#id95)" x="1276" y="3992.86" width="154.34" height="70.72"/>
    </mask>
    <mask id="id96">
  <linearGradient id="id97" gradientUnits="userSpaceOnUse" x1="1707.59" y1="5271.73" x2="1668.48" y2="6952.62">
   <stop offset="0" style="stop-opacity:1; stop-color:white"/>
   <stop offset="1" style="stop-opacity:0; stop-color:white"/>
  </linearGradient>
     <rect style="fill:url(#id97)" x="947.78" y="5265.28" width="42.59" height="167.74"/>
    </mask>
    <mask id="id98">
  <linearGradient id="id99" gradientUnits="userSpaceOnUse" x1="1707.59" y1="5271.73" x2="1668.48" y2="6952.62">
   <stop offset="0" style="stop-opacity:1; stop-color:white"/>
   <stop offset="1" style="stop-opacity:0; stop-color:white"/>
  </linearGradient>
     <rect style="fill:url(#id99)" x="3403.85" y="5116.05" width="75.58" height="115.8"/>
    </mask>
    <mask id="id100">
  <linearGradient id="id101" gradientUnits="userSpaceOnUse" x1="1707.59" y1="5271.73" x2="1668.48" y2="6952.62">
   <stop offset="0" style="stop-opacity:1; stop-color:white"/>
   <stop offset="1" style="stop-opacity:0; stop-color:white"/>
  </linearGradient>
     <rect style="fill:url(#id101)" x="416.39" y="4023.53" width="87.11" height="245.95"/>
    </mask>
    <mask id="id102">
  <linearGradient id="id103" gradientUnits="userSpaceOnUse" x1="1707.59" y1="5271.73" x2="1668.48" y2="6952.62">
   <stop offset="0" style="stop-opacity:1; stop-color:white"/>
   <stop offset="1" style="stop-opacity:0; stop-color:white"/>
  </linearGradient>
     <rect style="fill:url(#id103)" x="3035.93" y="4757.34" width="62.34" height="279.01"/>
    </mask>
    <mask id="id104">
  <linearGradient id="id105" gradientUnits="userSpaceOnUse" x1="1707.59" y1="5271.73" x2="1668.48" y2="6952.62">
   <stop offset="0" style="stop-opacity:1; stop-color:white"/>
   <stop offset="1" style="stop-opacity:0; stop-color:white"/>
  </linearGradient>
     <rect style="fill:url(#id105)" x="1091.75" y="5458.41" width="63.85" height="108.07"/>
    </mask>
    <mask id="id106">
  <linearGradient id="id107" gradientUnits="userSpaceOnUse" x1="1707.59" y1="5271.73" x2="1668.48" y2="6952.62">
   <stop offset="0" style="stop-opacity:1; stop-color:white"/>
   <stop offset="1" style="stop-opacity:0; stop-color:white"/>
  </linearGradient>
     <rect style="fill:url(#id107)" x="2014.37" y="4372.59" width="169.31" height="99.67"/>
    </mask>
    <mask id="id108">
  <linearGradient id="id109" gradientUnits="userSpaceOnUse" x1="1707.59" y1="5271.73" x2="1668.48" y2="6952.62">
   <stop offset="0" style="stop-opacity:1; stop-color:white"/>
   <stop offset="1" style="stop-opacity:0; stop-color:white"/>
  </linearGradient>
     <rect style="fill:url(#id109)" x="3616.86" y="3636.9" width="102.37" height="203.32"/>
    </mask>
    <mask id="id110">
  <linearGradient id="id111" gradientUnits="userSpaceOnUse" x1="1707.59" y1="5271.73" x2="1668.48" y2="6952.62">
   <stop offset="0" style="stop-opacity:1; stop-color:white"/>
   <stop offset="1" style="stop-opacity:0; stop-color:white"/>
  </linearGradient>
     <rect style="fill:url(#id111)" x="1211.55" y="3744.34" width="107.75" height="169.03"/>
    </mask>
    <mask id="id112">
  <linearGradient id="id113" gradientUnits="userSpaceOnUse" x1="1707.59" y1="5271.73" x2="1668.48" y2="6952.62">
   <stop offset="0" style="stop-opacity:1; stop-color:white"/>
   <stop offset="1" style="stop-opacity:0; stop-color:white"/>
  </linearGradient>
     <rect style="fill:url(#id113)" x="860.79" y="5349.37" width="35.95" height="117.3"/>
    </mask>
    <mask id="id114">
  <linearGradient id="id115" gradientUnits="userSpaceOnUse" x1="1707.59" y1="5271.73" x2="1668.48" y2="6952.62">
   <stop offset="0" style="stop-opacity:1; stop-color:white"/>
   <stop offset="1" style="stop-opacity:0; stop-color:white"/>
  </linearGradient>
     <rect style="fill:url(#id115)" x="1221.19" y="5422.78" width="80.26" height="76.95"/>
    </mask>
    <mask id="id116">
  <linearGradient id="id117" gradientUnits="userSpaceOnUse" x1="1707.59" y1="5271.73" x2="1668.48" y2="6952.62">
   <stop offset="0" style="stop-opacity:1; stop-color:white"/>
   <stop offset="1" style="stop-opacity:0; stop-color:white"/>
  </linearGradient>
     <rect style="fill:url(#id117)" x="1315.72" y="4143.49" width="122.7" height="87.18"/>
    </mask>
    <mask id="id118">
  <linearGradient id="id119" gradientUnits="userSpaceOnUse" x1="1707.59" y1="5271.73" x2="1668.48" y2="6952.62">
   <stop offset="0" style="stop-opacity:1; stop-color:white"/>
   <stop offset="1" style="stop-opacity:0; stop-color:white"/>
  </linearGradient>
     <rect style="fill:url(#id119)" x="690.74" y="2516.16" width="162.39" height="27.39"/>
    </mask>
    <mask id="id120">
  <linearGradient id="id121" gradientUnits="userSpaceOnUse" x1="1707.59" y1="5271.73" x2="1668.48" y2="6952.62">
   <stop offset="0" style="stop-opacity:1; stop-color:white"/>
   <stop offset="1" style="stop-opacity:0; stop-color:white"/>
  </linearGradient>
     <rect style="fill:url(#id121)" x="3243.21" y="5102.31" width="87.15" height="47.45"/>
    </mask>
    <mask id="id122">
  <linearGradient id="id123" gradientUnits="userSpaceOnUse" x1="1707.59" y1="5271.73" x2="1668.48" y2="6952.62">
   <stop offset="0" style="stop-opacity:1; stop-color:white"/>
   <stop offset="1" style="stop-opacity:0; stop-color:white"/>
  </linearGradient>
     <rect style="fill:url(#id123)" x="968.06" y="5165.23" width="97.29" height="35.8"/>
    </mask>
    <mask id="id124">
  <linearGradient id="id125" gradientUnits="userSpaceOnUse" x1="1707.59" y1="5271.73" x2="1668.48" y2="6952.62">
   <stop offset="0" style="stop-opacity:1; stop-color:white"/>
   <stop offset="1" style="stop-opacity:0; stop-color:white"/>
  </linearGradient>
     <rect style="fill:url(#id125)" x="1100.42" y="5303.33" width="44.72" height="77.59"/>
    </mask>
    <mask id="id126">
  <linearGradient id="id127" gradientUnits="userSpaceOnUse" x1="1707.59" y1="5271.73" x2="1668.48" y2="6952.62">
   <stop offset="0" style="stop-opacity:1; stop-color:white"/>
   <stop offset="1" style="stop-opacity:0; stop-color:white"/>
  </linearGradient>
     <rect style="fill:url(#id127)" x="3373.84" y="5530.34" width="35.81" height="76.65"/>
    </mask>
    <mask id="id128">
  <linearGradient id="id129" gradientUnits="userSpaceOnUse" x1="1707.59" y1="5271.73" x2="1668.48" y2="6952.62">
   <stop offset="0" style="stop-opacity:1; stop-color:white"/>
   <stop offset="1" style="stop-opacity:0; stop-color:white"/>
  </linearGradient>
     <rect style="fill:url(#id129)" x="3025.14" y="6353.48" width="76.48" height="112.44"/>
    </mask>
    <mask id="id130">
  <linearGradient id="id131" gradientUnits="userSpaceOnUse" x1="1707.59" y1="5271.73" x2="1668.48" y2="6952.62">
   <stop offset="0" style="stop-opacity:1; stop-color:white"/>
   <stop offset="1" style="stop-opacity:0; stop-color:white"/>
  </linearGradient>
     <rect style="fill:url(#id131)" x="1109.86" y="5198.16" width="54.73" height="55.11"/>
    </mask>
    <mask id="id132">
  <linearGradient id="id133" gradientUnits="userSpaceOnUse" x1="1707.59" y1="5271.73" x2="1668.48" y2="6952.62">
   <stop offset="0" style="stop-opacity:1; stop-color:white"/>
   <stop offset="1" style="stop-opacity:0; stop-color:white"/>
  </linearGradient>
     <rect style="fill:url(#id133)" x="2025.67" y="5897.35" width="29.44" height="92.05"/>
    </mask>
    <mask id="id134">
  <linearGradient id="id135" gradientUnits="userSpaceOnUse" x1="1707.59" y1="5271.73" x2="1668.48" y2="6952.62">
   <stop offset="0" style="stop-opacity:1; stop-color:white"/>
   <stop offset="1" style="stop-opacity:0; stop-color:white"/>
  </linearGradient>
     <rect style="fill:url(#id135)" x="2564.88" y="1081.88" width="49.57" height="50.11"/>
    </mask>
    <mask id="id136">
  <linearGradient id="id137" gradientUnits="userSpaceOnUse" x1="1707.59" y1="5271.73" x2="1668.48" y2="6952.62">
   <stop offset="0" style="stop-opacity:1; stop-color:white"/>
   <stop offset="1" style="stop-opacity:0; stop-color:white"/>
  </linearGradient>
     <rect style="fill:url(#id137)" x="1625.22" y="1169.12" width="55.06" height="95.38"/>
    </mask>
    <mask id="id138">
  <linearGradient id="id139" gradientUnits="userSpaceOnUse" x1="1707.59" y1="5271.73" x2="1668.48" y2="6952.62">
   <stop offset="0" style="stop-opacity:1; stop-color:white"/>
   <stop offset="1" style="stop-opacity:0; stop-color:white"/>
  </linearGradient>
     <rect style="fill:url(#id139)" x="1616.88" y="1062.44" width="43.79" height="63.87"/>
    </mask>
 </defs>
 <g id="Capa_x0020_1">
  <metadata id="CorelCorpID_0Corel-Layer"/>
  <g id="_1487093419536">
   <path class="fil0" style="mask:url(#id0)" d="M2019.56 6246.49c8.65,-11.57 63.12,-7.44 81.8,-9.32 26.92,-2.71 53.8,-7.88 80.24,-13.55 198.45,-42.56 325.17,-37.61 533.11,-33.41 20.77,59.32 -40.33,32.36 -155.53,42.11 -154.7,13.07 -203.52,50.4 -358.84,37.51 -29.68,-2.46 -161.4,-15.2 -180.78,-23.34zm872.22 -30.85c31.19,-12.92 195.93,-38.19 247.64,-43.7 20.28,-2.16 25.11,2.8 42.84,3.51 15.72,0.63 55.81,-7.1 71.22,-12.71 59.63,-21.69 15.77,-163.88 44.02,-210.83 11.55,54.87 13.88,112.48 2.6,167.63 -15.71,76.85 -33.76,63.08 -104.8,81.14 -51.02,12.97 -94.94,35.99 -147.51,40.56 -30.65,2.67 -59.93,2.97 -90.63,2.95 -28.71,-0.03 -54.95,2.22 -65.38,-28.55zm-1080.38 -22.7c3.61,-19.03 23.87,-94.53 31.79,-109.56 12.73,-24.16 92.09,-4.54 117.58,-1.78 87.67,9.51 183.18,11.23 271.24,7.09 217.14,-10.2 240.86,-49.36 514.08,-45.88 1.71,15.89 -12.13,103.86 -21.84,114.3 -15.44,16.6 -110.04,8.03 -135.79,7.73 -90.9,-1.07 -185.29,1.95 -275.67,11.36 -83.85,8.74 -160.54,34.98 -240.39,42.03 -96.33,8.51 -168.33,-17.04 -261,-25.29zm1481.23 -461.11c30.52,12.43 23.94,24.64 29.81,56.49 12.84,69.77 28.53,139.77 38.14,209.8 7.9,57.53 5.74,102.78 8.17,159.1 2.27,52.73 7.98,105.26 -2.26,157.41 -27.47,140.01 -169.95,462.32 -166.22,492.29l159.76 -363.34c9.68,-25.45 34.54,-123.82 43.22,-135.74 9.42,42.98 25.22,88.4 35.9,132.28 34.96,143.62 46.16,301.54 80.08,427.74 28.12,104.62 48.59,178.86 2.49,284.67 -17.54,40.26 -127.79,190.47 -127.95,205.81 21.75,-3.37 118.26,-137.73 139.97,-178.18 11.24,-20.95 24.2,-58.31 37.86,-73.46l52.54 337.39c-82.89,10.55 -190.85,-1.51 -274.87,-5.51 -77.96,-3.71 -186.65,9.96 -267.74,14.51 -90.47,5.08 -181.56,9.39 -272.03,12.82 -88.79,3.38 -183.96,11.62 -271.92,11.72l-36.78 -241.18c89.74,-40.44 165.26,-14.43 212.83,-131.25 74.58,-183.16 144.15,-299.3 172.57,-510.69 14.91,-110.93 7.36,-217.23 19.22,-326.09 51.97,-10.85 139.31,12.89 224.07,-20.38 15.83,-6.21 26.27,-15.01 42.97,-19.16 40.5,-10.07 111.26,-14.05 130.68,-55.51 21.63,-46.19 27.28,-166.78 18.54,-217.63 -6.75,-39.37 -19.63,-59.51 -21.05,-101.17 -1.38,-40.53 -5.95,-82.05 -8,-122.74zm-2383.94 270.67c31.48,21.35 260.25,16.19 313.63,16.39 112.88,0.4 225.95,3.34 338.82,2.61 -0.73,29.96 -10.9,70.91 -15.45,102.01 -6.07,41.48 -1.55,63.46 -51.56,63.8 -77.85,0.54 -151.34,1.95 -229.12,4.35 -79.36,2.45 -141.1,-13.3 -217.33,-14.71 -36.99,-0.69 -68.03,-0.1 -102.5,-14.26 -24.81,-10.2 -62.56,-19.53 -75.42,-44.09 -5.63,-68.18 45.49,-231.4 65.33,-303.08 21.57,-77.89 22.62,-76.61 103.57,-67.58 25.79,2.87 61.29,7.49 86.65,7.01 36.88,-0.7 40.84,-8.08 69.51,-23.9 -17.29,73.6 -41.76,151.12 -60.95,225.83 -16.72,65.06 -28.83,48.58 -90.05,44.1 -31.72,-2.32 -110.98,-12.24 -135.13,1.52zm-93.18 533.99c11.3,-4.6 7.08,-3.72 14.62,-41.77 11.44,-57.78 17.05,-102.47 17.41,-162.85 0.73,-121.9 -65.43,-592.43 2.2,-669.63l91.37 79.02c-3.49,24.07 -19.48,67.49 -27.07,92.01 -9.59,31.01 -18.93,61.7 -27.47,93.16 -14.69,54.15 -33.9,157.08 -30.8,211.39 34.07,53.97 160.6,56.54 219.54,61.17 85.41,6.7 179.3,11.64 265.06,14.95 -21.65,40.3 -45.65,27.2 -84.6,22.65 -35.13,-4.11 -70.28,-2.64 -103.75,9.51 -61.38,22.27 -89.24,61.75 -124.11,112.55 -31.65,46.1 -72.22,86.09 -98.45,134.49 -21.65,39.94 -49.86,137.64 -50.74,182.53 25.13,-39.06 34.06,-84.84 85.12,-163.71 33.45,-51.65 71.48,-97.59 108.97,-143.36 137.02,-167.33 179.57,-59.83 260.15,-108.46 15.34,-9.26 19.32,-17.76 37.9,-24.3 14.85,-5.23 36.3,-8.38 47.07,-14.94l-26.41 -11.93 135.28 -2.04c-3.35,44.53 -15.26,94.87 -21.05,140.51 -27.07,213.31 -19.48,251.43 -26.5,461.8 -1.3,39 -15.27,595.46 20.77,618.82 22.93,8.4 64.28,3.13 87.72,-5.11 48.54,-17.05 -14.83,-65.41 74.49,-123.35 22.47,-14.58 53.44,-30.76 51.11,-46.55 -21.11,-2.76 -67.41,43.85 -91.29,53.86 8.01,-129.92 19.92,-104.06 61.15,-126.04 28.55,-15.22 83.66,-75.01 65.97,-110.13 -40.44,37.65 -31.31,85.48 -109.9,93.54 6.67,-65.7 4.28,-152.82 29.21,-211.66 23.57,-55.64 76.81,-89.43 94.09,-115.49 0.61,-0.92 5.7,-9.82 5.82,-10.33 4.4,-19.03 1.72,-3.78 -2.2,-11.02 -13.41,-2.03 -72.92,67.62 -92.81,77.98 -5.51,-26.97 -1.58,-58.89 6.38,-85.23 11.07,-36.65 61.97,-69.84 91.99,-94.12 21.04,-17 43.19,-22.78 43.19,-51.88 -30.76,0.17 -85.79,48.21 -118.91,61.01 -8.33,-72.73 0.54,-144.6 16.82,-215.48 8.95,-38.96 40.69,-152.12 60.58,-180.61 83.91,25.13 157.82,182.88 122.96,262.53 52.07,-30.36 12.44,-166.62 -9.65,-208.43 -44.68,-84.59 -140.72,-52.72 -82.26,-159.73 94.36,4.2 296.32,73.21 438.56,73.07 111.94,-0.1 303.4,-55.71 465.75,-45.9 -1.46,34.75 -12.69,112.51 -23.39,144.73 -19.35,58.21 -44.95,53.81 -76.17,90.91 -80.76,95.98 -73.19,137.91 -54.69,259.39 9.61,-14.38 4.72,-122.74 30.69,-174.72 11.05,-22.12 70.87,-107.35 87.32,-116.53 2.25,107.72 -114.77,627.26 -188.88,689.7 -18.84,-24.23 -70.56,-185.98 -83.86,-225.9 -34.95,-104.92 -83.73,-222.46 -154.72,-311.14 -64.03,-79.98 -82.34,-83.43 -115.69,-194.74 -8.7,-29.03 -23.08,-99.09 -49.36,-110.89 -5.99,12.37 -3.08,18.19 -12.12,31.61 -33.42,49.54 -9.47,0.84 -46.69,81.33 -55.04,119.02 -110.59,243.89 -158.76,365.28 -71.8,180.93 -99.31,367.71 -135.21,559.55 -5.18,27.71 -12.77,120.58 -44.02,125.71 -25.08,4.13 -130.92,-6.61 -163,-8.91 -110.03,-7.87 -220.36,-13.48 -330.5,-18.32 -197.31,-8.69 -289.14,12.79 -506.82,-9.68 -43.19,-4.46 -118.88,-8 -157.63,-16.92 7.73,-77.2 25.12,-152.05 40.71,-227.85 16.03,-77.97 27.3,-157.83 38.41,-236.59 43.04,-305.2 98.58,-661.68 132.31,-962.38 9.37,-83.54 15.54,-167.71 25.94,-251.05 6.66,-53.31 23.66,-186.96 40.51,-232.42 10.32,12.87 24.66,88.74 30.34,111.29 7.1,28.22 14.83,30.53 -4.97,52.04 -16.32,17.73 -18.41,28.47 -21.68,52.17 -31.71,229.8 -2.62,317.34 16.23,543.18 10.08,120.79 -11.79,241.46 -7.58,278.65zm2445.96 -400.68c-33.4,1.9 -50.09,-5.47 -90.31,2.29 -27.25,5.26 -53.73,14.23 -80.75,20.14 -34.62,7.58 -147.52,24.08 -179.82,22.13 -29.43,-8.62 -25.27,-112 -24.12,-117l253.1 -15.95c52.69,-2.22 36.34,1.94 67.46,25.83 10.46,-28.24 21.1,-36.06 24.09,-68.72l12.66 -180.92c1.03,-18.09 13.05,-72.02 -5.22,-80.05l-24.54 293.84c-68.87,0.95 -180.53,-11.34 -243.35,1.31 -29.64,5.97 -78.6,28.66 -91.29,-9.55 -5.62,-16.95 -7.75,-93.61 -9.17,-116.57 -4.51,-73.09 -7.37,-154.19 -15.48,-226.28 -4.52,-40.13 -13.46,-71.61 -7.66,-113.25 3.65,-26.26 17.99,-71.09 36.35,-89.04 36.92,22.79 2.08,59.58 9.5,109.84 4.83,32.69 20.88,71.01 47.26,91.27 14.2,10.9 38.34,11.69 55.89,13.79 32.39,3.87 21.07,17.6 50.19,19.71 21.83,1.59 41.38,-5.92 62.43,-6.12 18.83,-0.19 41.99,3.66 61.86,4.69 58.35,3.03 82.85,-24.21 93.77,40.04 7.53,44.24 23.72,-13.68 15.99,116.51 -5.17,87.2 -11.91,174.98 -18.84,262.06zm-696.3 -642.59c24.6,-47.61 76.6,-383.39 147.48,-450.53 33.33,60.32 68.06,443.27 77.6,536.08 5.35,52.02 -2.15,78.1 -30.78,120.7 -20.8,30.96 -40.66,62.78 -61.85,93.37 -28.22,40.73 -127.47,145 -127.91,182.47 38.6,-0.57 14.1,-38.11 111.03,-113.91 26.85,-20.99 50.84,-61.78 71.88,-95.04 9.71,-15.35 10.55,-28.22 27.66,-26.04 3.65,34.73 -6.26,107 -9.92,144.96 -2.44,25.45 -3.2,127.53 -25.24,137.36 -2.98,1.33 -126.42,2.9 -149.48,5.93 -46.55,6.14 -92.12,16.72 -138.37,24.62 -102.95,17.57 -195.05,24.17 -299.61,22.37 -58.18,-1.01 -255.03,-10.51 -302.3,-24.41l105.18 -584.5c5.92,-32.63 95.26,-548.65 127.71,-561.99 36.23,-5.33 53.6,2.14 92.86,-12.28 22.61,-8.31 49.24,-22.28 67.28,-37.8 53.07,-45.65 63.16,-69.36 68.53,-141.17 75.48,1.19 189.02,28.45 251.01,71.04 55.92,38.42 122.25,124.49 127.5,197.89 1.27,17.75 -36.47,91.97 -45.25,115.19 -14.82,39.2 -27.66,84.12 -37.51,125.56 -10.65,44.75 -19.59,88.91 -28.66,133.85l-22.74 117.85c-3.04,22.5 -2.36,11.83 3.9,18.43zm-1177.03 -74.84c-26.54,-4.11 -60.76,-37.47 -85.6,-27.51 -13.97,50.15 91.57,91.39 36.21,157.05 -52.61,10.29 -81.31,-57.83 -133.31,-59.16 -1.64,32.48 11.89,71.37 19.89,103.25 10.18,40.58 15.6,49.91 47.07,75.3 -62.09,-4.88 -104.23,-29.48 -139.29,-72.96 -20.29,-25.16 -39.66,-26.93 -60.18,-44.55 -32.29,-27.74 1.04,-54.81 -42.05,-67.98 -11.37,22.2 -11.65,56.48 -5.94,81.21 5.95,25.76 93.15,108.02 120.63,147.43 -69.43,-21.49 -123.26,-65.82 -159.98,-127.67 -15.03,-25.32 -11.72,-41.04 -41.29,-53.06 -20.81,119.21 44.88,131.26 62.24,186.27 -36.28,-7.35 -57.45,-68.11 -69.11,-100.83 -19.52,-54.72 -15.45,-72.21 -63.24,-107.24 -41.53,-30.44 -36.9,-78.85 -40.14,-126.92 -3.57,-53.02 -8.06,-110.32 -9.16,-163.16 3.23,-2.26 2.52,-2.55 8.78,-4.99 2.64,-1.03 4.96,-0.94 8.74,-2.56 26.24,-11.27 7.13,-32.88 4.37,-43.98 -4.7,-18.94 6.45,-17.7 2.68,-41.46 -14.62,-11.22 -15.77,-4.58 -33.56,-8.31 -13.3,-41.58 -24.17,-106.52 -32.42,-150.75 -12.86,-68.99 -18.38,-98.92 61.07,-110.08 59.14,-8.3 116.49,-4.32 174.86,6.72 71.1,13.45 91.13,6.87 107.58,78.33 21.4,92.93 33.54,202.88 84.98,283.67 31.23,49.04 169.35,165.92 176.17,193.94zm1973.75 241.85l-5.91 -131.55 -21.53 -3.71c-8.85,-16.31 5.48,-31.09 -52.41,-36.37 12.7,35.34 0.41,59.38 35.22,75.53 -19.21,42.9 -38.95,105.21 -89.82,116.48 15.84,-35.4 29.32,-42.88 34.74,-87.46 3.59,-29.55 2.72,-78.88 -14.37,-102.21l-28.61 9.03 -2.87 -43.35c-12.82,-15.76 -29.57,-17.88 -47.58,-11.26 -16.56,18.25 -8.42,93.97 -8.2,120.98l28.94 -2.96c-1.31,68.56 -42.6,113.73 -109.38,125.09 14.32,-23.74 50.68,-36.21 45.21,-105.76 -1.8,-22.73 -7.68,-43.74 -10.54,-65.77 -4.15,-32.06 19.35,-40.8 0.55,-60.76 -12.86,6.26 -27.38,36.2 -43.91,46.33 1.73,-42.36 11.13,-68.1 -40.79,-62.3l6.82 82.63 31.45 -12.47c-4.19,37.89 -38.24,142.8 -69.05,142.55 -14.9,-23.1 -29.9,-188.85 -42.89,-232.5l-25.08 29.89c-3.17,-52.86 91.19,-152.29 123.88,-184.18 70.13,-68.42 90.42,-106.72 108.85,-206.42 15.88,-85.91 37.93,-170.51 57.7,-255.6 5.33,-22.95 5.98,-37.96 23.85,-53.87 51,-45.34 86.85,-24.95 187.72,-9.03 108.79,17.17 153.64,59.06 120.58,170.06 -24.91,83.6 -47.99,164.24 -63.84,250.47 -14.63,79.58 -24.66,71.28 -33.85,120.99l-29.5 284.63c-5.31,40.9 -16.7,87.3 -65.38,92.87zm-1916.69 291.26c18.81,25.83 82.39,-36.54 132.99,-44.74l-12.88 99.33 -426.94 1.24c5.51,-65.82 22.79,-131.4 43.69,-193.32 36.8,-108.97 22.54,-80.03 121.15,-115.04 73,-25.93 88.44,-54.35 111.09,-125.99 24.18,-76.43 25.08,-124.3 -18.62,-190.68 -26.82,-40.75 -27.57,-36.91 -13.68,-85.99 56.45,-199.47 55.71,-241.61 146.85,-447.07 14.42,-32.51 56.98,-140.67 81.58,-155.73 16.01,-1.06 103.27,19.32 127.95,23.71 163.23,29.09 134.81,-1.31 75.14,187.97 -16.09,51.07 -30.37,103.69 -46.36,154.98 -32.14,103.08 -61.72,212.93 -84.73,318.78 -24.4,112.22 -42.32,225.76 -65.44,338.31 -6.32,30.77 -23.77,144.54 -39.5,162.53 -22.67,25.95 -125.63,52.55 -132.29,71.71zm1183.98 -1192.82c72.25,-12.84 145.16,-18.75 216.68,-31.85 119.53,-21.9 107.49,-34.63 185.04,-65.3 32.74,37.88 62.58,186.6 71.3,240.67 12.68,78.53 42.57,188.28 4.85,259.99 -19.17,36.45 -45.84,54.74 -74.13,81.1 -23.28,21.69 -51.98,59.73 -76.3,75.09 -52.79,33.36 -36.26,-1.59 -70.92,84.37 -9.46,23.46 -32.78,86.94 -48.42,102.17 -18.82,-137.74 2.25,-254.47 -38.45,-392.12 -48.53,-164.13 -39.33,-89.05 -63.48,-263.12 -3.34,-23.99 -2.46,-70.3 -26.71,-79.53 -1.89,4.18 -2.32,1.58 -2.94,9.11l16.2 109.04c-16.64,-6.25 -93.13,-118.97 -92.72,-129.62zm-1272.4 578.04c-23.59,-16.67 -60.36,-53.85 -81.12,-75.02 -25.43,-25.93 -51.62,-56.52 -65.9,-93.16 -24.09,-61.79 -18.4,-71.45 -2.24,-132.09 11.24,-42.16 24.49,-84.62 36.74,-126.76l34.92 -123.82c13.58,-35.53 38.68,-71.92 56.45,-106.5 23.92,-46.56 27.42,-44.82 111.14,-23.01 45.45,11.84 86.11,23.67 133.21,29.51 -7.66,32.13 -99.42,232.28 -125.26,310.39 -18.31,55.32 -34.71,110.09 -50.28,166.93 -13.36,48.76 -29.52,130.48 -47.66,173.53zm1716.81 -687.25c11.9,10.04 73.26,237.39 78.99,268.95 3.63,20.03 4.4,91.56 -0.19,110.12 -18.35,-0.3 -12.7,8.66 -16.22,-12.52l-10.12 -84.54c-10.47,-74.32 -19.3,-124.64 -42.25,-197.35 -7.1,-22.5 -46.05,-71.37 -10.21,-84.66zm-1894.1 396.94c-28.03,-37.31 -12.17,-83.17 -4.59,-123.82 8.35,-44.76 9.8,-90.35 18.58,-137.02 8.14,-43.36 17.21,-86.55 25.45,-129.89 4.63,-24.41 4.32,-44.24 34.43,-43.49 16.47,0.41 44.9,11.18 61.86,15.5l-135.73 418.72zm1957.57 -290.09c-15.44,-5.31 -11.56,-9.04 -17.86,-26.39 -3.73,-10.28 -8.17,-20.26 -12.08,-30.74 -7.6,-20.36 -14.85,-39.75 -20.57,-60.87 -7.69,-28.35 -18.48,-120.09 7.88,-136.45l42.63 254.45zm-47.94 -376.28c-55.64,-59.57 -63.62,-164.53 -83.53,-203.93 -25.11,-49.71 -39.87,-41.53 -23.78,-109.35 5.75,-24.22 26.61,-81.03 40.12,-100.79 36.28,60.38 98.2,361.18 67.19,414.07zm-1385.63 3.74c-4.29,-111.54 171.4,-512.13 223.21,-634.74 41.55,-98.32 93.14,-194.36 133.91,-293.01 40.74,-98.57 83.69,-202.15 127.39,-299.54 44.95,-100.17 92.44,-194.63 134.38,-296.42 41.32,-100.27 82.57,-207.01 117.34,-309.87 53.51,-158.26 114.36,-315.16 166.82,-473.6 15.95,-48.18 39.17,-115.37 50.24,-163.03 44.74,7.03 136.32,43.13 185.58,58.52 61.53,19.22 126.66,34.32 189.16,51.58 126.18,34.83 205.04,95.23 308.88,171.98 106.04,78.38 139.2,184.27 169.48,311.84 16.48,69.46 31.03,125.74 43.2,197.33 31.41,184.95 89.24,401.5 128.84,588.82 33.79,159.84 84.12,445.02 105.55,612.86 9.84,77.05 10.92,151.21 12.36,228.7 1.42,76.29 7.9,152.67 9.98,228.97 2.33,85.24 -5.19,144.32 -9.74,226.77 -77.9,-16.49 -103.92,-31.22 -190.92,-24.7 -286.87,21.54 -364.16,177.31 -434.43,201.4 -26.47,-88.47 -41.56,-158.62 -41.57,-252.1 -0.02,-113.62 -4,-157.87 -19.26,-269.85 -29.76,-218.41 -74.14,-256.74 -38.76,-511.59 23.1,-166.39 30.26,-328.51 95.65,-483.67 28.52,-67.65 62.5,-133.69 89.69,-201.36l75.04 -177.21c6.6,-15.52 9.94,-13.63 1.42,-23.86 -12.64,2.97 -9.98,7.09 -15.93,21.01l-34.5 77.98c-67.93,146.71 -183.65,393.97 -202.33,543.88 -8.09,64.95 -8.58,206.96 -34.87,258.54 -40.67,-62.14 -62.6,-274.41 -60.88,-351.74 3.03,-136.67 66.17,-178.84 123.67,-287.3 38.83,-73.24 58.75,-256.73 69.69,-345.28 17.8,-144.08 -1.38,-79.26 64.88,-141.23 24.88,-23.27 67.16,-103.43 96.83,-105.57 3.42,17.44 -19.63,33.71 -30.3,47.9 -15.17,20.19 -106.95,118.18 -104.92,134.22 15.06,3.19 105.32,-103.4 118.9,-120.22 14.29,-17.71 20.87,-35.29 45.26,-37.75 38.22,21.4 53.16,138.03 58.13,180.16 13.51,114.49 -15.41,177.39 -13.16,207.22 58.07,-67.44 42.04,-223.42 21.14,-307.98 -8.58,-34.7 -22.54,-58.96 -32.8,-89.91 20.67,-1.17 55.14,2.33 70.82,-7.62l-0.51 -7.12c-16.35,-6.89 -85.36,-2.42 -108.45,-2.51 2.71,-18.28 -0.95,-13.77 22.88,-15.07l89.13 -7.82c-3.94,-28.7 -70.91,-18.25 -91.46,-13.45 -115.73,27.02 -138.59,142.62 -177.81,158.36 -11.96,-15.81 16.72,-44.28 20.36,-63.59 -13.64,-2.11 -10.51,1.63 -18.91,15.98 -60.94,104.16 -38.54,274.21 -89.04,442.23 -53.88,179.3 -162.97,184.86 -150.81,416.93 4.09,78.08 19.71,171.33 41.59,246.25 30.03,102.84 56.83,113.04 10.34,220.25 -14.57,33.61 -29.94,67.93 -41.17,102.67 -22.52,69.61 -48.43,196.24 -73.26,279.74 -3.59,12.08 -20.87,35.65 -18.95,43.92 2.05,0.82 -3.51,8.68 10.2,-1.79 41.22,-31.46 44.4,-138.03 72,-176.28 28.37,26.01 38.62,57.93 42.67,96.22 6.22,58.72 -7.77,55.74 -52.59,83.34 -64.16,39.5 -127.97,65.02 -203.86,72.45 25.06,-63.34 79.62,-109.31 109.48,-178.55 20.9,-48.46 68.89,-165.95 63.57,-215.9 -19.97,13.29 -25.88,51.03 -34.94,73.88 -42.66,107.61 -98.18,182.55 -138.88,280.3 -16.44,39.5 -10.07,46.37 -53.17,51.13 -62.31,6.89 -124.51,13.08 -186.81,19.67 3.33,-45.23 26.92,-131.97 37.84,-179.88 12.21,-53.51 37.37,-103.61 70.34,-146.93 22.84,-30.03 179.63,-228.57 181.27,-245.44 -21.55,-3.56 -44.03,36.44 -56.36,52.17 -84.52,107.78 -190.17,196.25 -218.58,336.58 -12.42,61.37 -25.15,122.02 -37.9,183.26 -52.51,11.01 -105.68,20.29 -157.95,32.44 -47.97,11.15 -100.98,28.36 -148.11,37.17 -70.7,-51.28 -55.25,-6.29 -146.6,-23.21 -49.89,-9.24 -98.16,-42.31 -137.33,4.23l-121.13 -68.35c5.18,-7.84 49.82,-37.92 62.33,-49.08 55.31,-49.37 97.23,-123.28 146.85,-179.1 59.47,-66.91 141.09,-182.18 197.45,-237.28 63.2,-61.79 179.59,-126.48 260.98,-173.79l208.51 -117.42c17.18,-9.74 57.25,-23.33 59.65,-43.11 -67.55,11.82 -219.3,110.38 -289.34,147.17 -226.4,118.9 -323.38,215.1 -468.68,408.5 -31.28,41.65 -65.76,82.87 -97.96,123.21 -20.86,26.13 -45.99,71.9 -76.39,86.74 -14.01,6.83 -20.89,5.01 -27.78,14.54 -0.63,0.87 0.4,13.69 -3.38,6.01 -0.34,-0.67 -1.18,2.17 -1.86,3.2 -22.65,-4.76 -38.1,-15.44 -50.54,-33.4zm457.01 -1885.46c-9,-32.62 0.67,-154.64 13.9,-189.7 20.6,-54.59 86.21,-102.26 115.89,-87.3 2.68,15.75 -50.66,119.09 -61,141.97 -7.85,17.38 -55.43,134.85 -68.79,135.03zm-36.72 -17.96c-13.31,-11.38 -148.39,-278.5 -154.27,-298.72 53.32,11.15 99.94,58.33 123.11,105.29 29.99,60.8 33.74,126.29 31.16,193.43zm-671.55 1839.75c2.17,-32.5 36.38,-140.95 47.25,-179.19 62.18,-218.67 97.42,-299.31 175.97,-511.21 78.51,-211.75 185.63,-426.23 278.24,-633.88 93.57,-209.85 196.9,-417.66 289,-626.8 46.23,-104.94 99.25,-208.31 144.1,-313.96 22.76,-53.6 47.3,-107.85 66.06,-163.1 11.89,-35.01 40.29,-149.09 54.11,-170.95 31.19,28.51 71.41,100.81 98.54,138.35 44.5,61.56 44.11,33.99 0.08,165.88 -121.14,362.91 -230.19,669.44 -382.57,1026.42 -46.78,109.58 -94.45,219.01 -142.26,327.49 -23.92,54.27 -51.2,107.71 -75.29,161.43 -24.09,53.71 -46.17,108.93 -70.8,162.13l-142.66 326.82c-41.88,115.69 -74.6,235.21 -115.64,350.66 -26.18,1.09 -185.71,-49.32 -224.13,-60.09zm-237.57 -18.23c-11.34,63.31 -19.04,130.13 -21.31,194.27 -1.29,36.54 2.15,73.09 0.49,108.65l-45.13 268.32c-54.97,-15.33 -60.9,-126.71 -354.9,-142.17 -81.74,-4.3 -161.21,-2.07 -242.86,0.67 -71.24,2.39 -174.64,10.69 -242.93,3.78 0.96,-95.16 22.07,-202.15 38.57,-296.04 38.19,-217.25 16.63,-409.13 45.56,-622.2 6.52,-47.99 15.7,-95.9 23.25,-143.78 4.89,-30.98 7.08,-129.4 19.06,-147.94 10.63,5.76 6.72,0.15 9.38,18.28l46.31 321.94c3.08,18.98 -0.04,9.18 7.87,17.33 2.59,-67.61 -14.3,-161.57 -22.95,-230.68 -27.36,-218.57 -44.9,-236.3 13.37,-441.34 9.04,-31.78 40.19,-179.39 62.66,-189.31 12.5,11.72 16.88,71.43 20.41,91.5 2.86,16.28 9.04,83.92 22.01,89.8 14.84,-20.63 -21.38,-168.13 -23.98,-204.8 -4.58,-64.45 19.67,-137.47 32.8,-201.33 13.25,-64.41 26.64,-128.96 38.5,-193.65 10.64,-58.02 19.44,-133.73 49.23,-183.94 15.39,-25.93 36.45,-38.86 51.93,-64.53 14.82,-24.57 31.9,-46.55 49.61,-66.91 36.15,-41.55 70.64,-86.12 106.68,-126.15 32.96,-36.62 74.19,-90.38 117.16,-115.66 47.69,-28.06 128.3,-49.61 183.75,-49.97 -5,23.26 -33.57,15.27 -56.9,35.65 10.83,7.96 37.47,-7.2 51.84,-12.54 66.85,-24.84 68.3,-45.16 144.22,-65.23 58.66,-15.51 181.52,-40.27 240.05,-41.71 -5.16,37.28 -3.38,15.92 2.45,24.77 13.37,-33.82 125.24,-185.49 150.79,-201.47 -7.22,61.72 35.03,117.5 63.27,169.85 26.56,49.24 54.8,99.21 80.23,148.85 51.18,99.91 109.5,199.75 156.97,300.93 24.28,51.74 50.6,102.26 75.1,153.91 38.15,80.4 14.72,98.04 -24.82,165.39 -52.62,89.63 -104.3,215.25 -145.9,312.05 -45.76,106.49 -96.78,211.77 -144.35,317.52 -102.07,226.89 -172.6,427.01 -258.07,657.67 -22.79,61.5 -79.32,273.74 -103.03,355.39 -29.76,-1.51 -101.66,-19.66 -132.73,-28.15 -52.37,-14.31 -46.65,-57.13 -54.41,-105.52l-118.51 -834.74c-17.91,24.28 -6.09,66.15 -3.61,95.75 2.7,32.18 5.3,64.38 8.06,96.51 7.86,91.84 21.25,319.54 33.63,393.46 15.29,91.35 71.4,254.64 51.18,367.52zm786.97 -2142.85c-67.48,-16.56 -75.77,-62.95 -106.34,-117.3 -27.01,-48.05 -53.89,-96.14 -80.87,-144.2 -27.02,-48.15 -75.3,-101.95 -47.02,-159.06 25.26,-51.01 44.33,-106.08 68.42,-156.36 9.26,13.56 14.37,34.21 22.76,50.04 28.01,52.89 59,78.21 92.75,120.68 32.31,40.66 107.22,114.26 167.45,116.4 118.61,4.21 268.79,-219.07 312,-258.47 28.86,30.58 44.52,131.27 35.11,175.06 -6.09,28.37 -102.29,272.19 -120.2,309.74 -17.24,36.15 -23.51,31.92 -59.29,49.27 -23.25,11.27 -46.27,25.53 -70.95,34.06 41.37,-67.77 82.73,-104.8 110.76,-188.08 11.01,-32.72 75.43,-203.01 68.1,-223.17 -13.89,2.08 -12.31,7.16 -20.09,22.67l-162.32 307.24c-17.57,32.73 -45.04,78.72 -57.83,111.77l30.1 2.22 -49.8 75.83c-42.02,-13.31 -30.49,-36.9 -40.63,-71.09 -26.49,-89.25 -80.39,-111.08 -132.32,-194.1 -19.46,-31.09 -98.23,-177.48 -111.82,-214.01 -5.94,-15.96 -11.8,-71.46 -33.8,-68.53 -16.69,30.29 40.97,204.47 57.93,242.24 15.9,35.4 33.17,67.53 56.77,98.4 25.13,32.86 45.83,50.35 71.13,78.75zm-325.22 -894.77c-14.71,-9.73 -46,-75.32 -50.94,-94.88 14.71,6.12 24.12,31.35 32.37,46.46 4.81,8.8 8.32,16.34 13.78,25.05 9.14,14.56 10.96,12.06 4.79,23.37zm888.72 -152.42c8.07,-11.84 27.91,-23.54 42.71,-29.7l6.36 49.61 -49.07 -19.91zm-862.56 3.04c32.88,-123.09 3.59,-259.05 73.36,-373.15 48.5,-79.32 48.63,-77.1 145.13,-66.1 34.19,3.89 68.36,8.16 102.55,11.81 37.92,4.06 65.56,-2.65 103.1,-3.72 71.65,-2.05 146.01,-7.73 217.24,-8.09 123.14,-0.64 121.92,20.82 140.5,82.59 41.72,138.66 42.91,159.41 39.67,295.41 -0.42,17.75 -0.68,33.39 -1.65,51.13 -1.17,21.14 4.17,23.01 18.62,34.25 -0.02,38.58 -36.4,177.3 -47.58,222.64 -53.35,216.27 -98.65,271.21 -284.34,395.53 -36.66,24.54 -54.26,38.62 -101.66,25.45 -99.04,-27.53 -226.78,-177.26 -281.45,-261.56 -58.59,-90.34 -96.65,-181.07 -122.71,-284.67 -7.51,-29.81 -7.52,-100.37 -18.07,-118.69 -12.82,-0.17 -17.92,20.06 -37.21,29.5 -2.13,-30.18 -9.29,-39.14 24.64,-47.38l3.45 -19.4 26.41 34.45zm-80.87 11.19c-13.6,-7.75 7.2,-48.53 10.48,-63.37l28.24 7.69c-17.94,9.82 -27.49,1.28 -33.12,38.39 -0.51,3.34 -0.6,7.17 -1.42,10.28 -2.1,7.92 -0.91,3.11 -4.18,7.01zm-1334.72 3581.9l0 61.14c13.79,28.6 8.93,43.14 36.3,71.04 101.43,103.38 223.34,150.99 363.61,179.79 22.47,4.61 70.27,6.22 80.67,27.88 13.5,28.1 44.47,250.35 46.53,282.59 4.1,64.43 -22.59,121.99 -36.73,183.72 -26.07,113.83 -49.35,262.92 -57.62,379.3 -18.41,258.9 -61.37,521.41 -96.95,778.84 -17.63,127.55 -36.1,255.23 -55.68,382.49 -13.86,90.15 -64.67,301.01 -58,377.88 102,0.63 196.76,11.85 297.9,17.85 105.16,6.24 203.21,-2.92 306.64,-0.45 99.85,2.39 199.08,8.54 298.77,13.27 49.04,2.33 98.42,5.18 147.41,8.37 46.78,3.05 106.23,10.75 151.57,9.74 8.96,-47.68 26.13,-100.79 37.05,-149.87 11.27,-50.7 22.82,-101.48 34.22,-152.11 22.77,-101.19 44.4,-205.51 71.48,-305.28 10.82,-39.83 39.08,-88.47 54.68,-131.61 27.52,-76.12 128.72,-358.06 171.82,-391.74 98.25,282.38 211.36,300.52 272.07,515.36 32.05,113.4 81.27,205.06 102.08,290.15 19.73,80.66 57.62,260.64 57.03,339.88l152.25 0c1.22,-0.8 434.1,-27.74 479.54,-31.21 165.21,-12.63 341.65,-3.45 508.49,-4.33 -1.07,-25.26 -14.82,-68.75 -20.85,-95.3 -27.58,-121.44 -24.79,-196.91 -44.46,-307.99 -23.22,-131.15 -51.63,-264.54 -78.71,-395.08 -54.94,-264.97 -100.19,-530.74 -150.52,-796.61 -14.03,-74.08 -45.25,-128.53 28.69,-172.01 58.42,-34.37 74.88,-87.3 82.58,-153.44 8.65,-74.21 5.65,-149.61 14.25,-224.07 8.94,-77.32 28.99,-115.2 50.79,-184.82 12.51,-39.96 30.59,-161.23 52.27,-184.72 38.44,-41.66 83.41,-65.72 119.6,-117.16 34.9,-49.58 61.21,-97.85 81.34,-155.09 10.6,-30.18 18.9,-59.26 25.59,-90.9 5.55,-26.26 8.53,-86.47 17.72,-104.71l0 -147.51c-6.13,-17.86 -11,-231.03 -12.84,-269.9 -8.08,-170.12 -77.83,-568.2 -112.3,-728.92 -33.03,-154.01 -71.3,-304.87 -102.37,-460.58 -31.52,-157.93 -62.6,-301.33 -106.76,-455.26 -49.64,-173.03 -111.35,-212.6 -253.69,-309.33 -72.96,-49.58 -102.35,-70.98 -188.67,-94.9 -73.13,-20.26 -146.97,-39.34 -220.17,-59.27 -83.34,-22.68 -129.68,-29.34 -198,-85.03 -20.7,-16.87 -46.61,-53.88 -59.48,-80.24 -14.33,-29.35 -37.81,-57.26 -57.31,-82.38 -48.92,-63.02 -96.44,-85.42 -57.18,-192.7 12.59,-34.41 26.21,-67.5 37.08,-102.74 12.38,-40.11 15.42,-75.86 25.32,-114.15 43.2,-13.06 40.57,28.53 83.75,-79.37 20.55,-51.39 23.68,-80.81 18.56,-135.56 -8.1,-86.64 27.46,-202.03 32.73,-294.74 2.92,-51.6 -1.14,-104.14 -9.93,-155.01 -10.45,-60.46 -19.17,-65.51 -53.78,-108.5 -9.04,-11.22 -6.42,-55.3 -8.69,-72.99 -5.57,-43.43 -20.22,-85.04 -37.88,-124.96 -11.52,-26.04 -8.2,-32.94 -35.26,-43.97 -19.18,39.55 -27.51,79.64 -33.74,89.3 -34.11,-39.32 -54.68,-160.17 -112.48,-183.46l-22.06 73.64c-16.66,-25.29 -30.02,-55.78 -45.08,-82.56 -17.91,-31.85 -22.32,-54.75 -57.13,-69.6 -19.14,21.88 -20.49,81.25 -37.46,105.97 -37.92,-53.78 -69.66,-115.2 -108.65,-169.49l-10.05 0c-25.99,38.09 -47.4,150.47 -69.07,174.96 -24.97,-89.23 0.25,-54.65 -45.04,-152.67 -8.45,6.99 -38.34,88.89 -46.43,107.28 -9,20.48 -40.05,77.53 -54.59,90.01l-17.95 -82.71c-3.4,-17.89 0.73,-14.22 -11.32,-23.18 -26.86,24.93 -81.64,175.97 -111.74,208.45 -16.7,-15.29 -11.4,-26.01 -27.77,-35.09 -15.6,19.93 -29.87,129.91 -35.75,162.07 -16.35,89.6 -14.79,12.62 -49.18,144.93 -17.38,66.84 -30.52,91.36 -30.76,166.64 -0.19,60.16 5.08,124.98 9.77,185.14 7.22,92.46 -5.52,255.91 82.78,308.22 42.58,25.22 19.44,-7.18 42.8,57.94 23.03,64.21 94.46,181.45 95.95,194.53 1.83,15.95 -44.1,125.83 -54.93,140.94 -9.06,12.64 -39.58,18.64 -57.9,39.1 -60.31,67.32 -90.22,144.02 -134.04,160.91 -42.5,16.39 -115.91,24.68 -162.9,31.52 -63.55,9.25 -98.57,26.25 -156.42,41.1 -53.91,13.84 -111.17,15.11 -163.65,29.69 -114.73,31.86 -143.62,94.46 -216.05,172.98 -79.36,86.02 -106.87,128.62 -173,218.83 -45.89,62.58 -43.51,47.61 -57.94,140.43 -19.98,128.59 -69.51,365.22 -108.37,477.38 -81.07,233.97 -109.42,402.45 -132.26,648.11 -10.86,116.83 -34.99,236.05 -39.76,351.18 -5.34,128.86 -1.56,243.23 -20.45,372.56l-53.93 332.17z"/>
   <path class="fil1" style="mask:url(#id2)" d="M3168.25 4611.92c13.76,-42.67 63.9,-73.29 100.33,-99.32 40.21,-28.73 82.48,-56.74 129.74,-72.44 67.39,-22.4 306.07,-37.32 357.53,12.65 -106.4,-6.11 -199.57,-48.17 -347.46,1.63 -43.23,14.55 -93.24,40.61 -130.19,67.75 -18.28,13.42 -41,29.84 -56.96,44.01 -10.9,9.68 -42.7,40.35 -52.99,45.72zm-1153.63 -142.96c8.14,-12.01 147.71,-88.59 168.81,-96.12 -22.84,33.39 -122.45,115.97 -168.81,96.12zm-149.78 -28.6c79.74,-5.47 92.88,-67.47 135.62,-120.88 33.49,-41.86 96.87,-102.82 158.92,-104.51 -3.61,16.05 -19.49,24.74 -35.02,34.44 -97.98,61.16 -101.2,105.54 -170.31,178.96 -46.89,49.82 -83.28,30.87 -89.21,11.99zm1752.27 -600.39c7.69,-27.77 34.42,-74.78 47.8,-103.14 10.94,-23.17 35.1,-88.88 52.94,-99.68 11.65,32.08 -70.13,176.06 -100.74,202.82zm-485.52 135.15c-5.37,-50.45 120.23,-482.07 135.51,-500.34 6.98,78.18 -21.62,199.41 -41.8,276.69 -13,49.76 -37.8,133.68 -59.22,181.18 -7.93,17.58 -15.14,40.79 -34.49,42.47zm23.5 266.88c-19.49,-5.89 -9.91,-43.31 -6.37,-58.74 42.99,-187.32 132.82,-185.84 170.82,-349.28 24.79,-106.63 82.9,-203.19 115.61,-330.63 5.64,-22 19.5,-109.78 26.55,-120.07 29.8,76.38 -78.84,384.27 -110.11,470.75 -63.35,175.2 -115.32,163.17 -162.95,279.77 -8.16,19.99 -30.33,103.32 -33.55,108.2zm-392.67 -765.52c-3.49,-10.69 24.49,-44.84 35.81,-62.94 68.42,-109.35 130.65,-221.24 166.34,-346.01 7.58,-26.49 32.71,-161.32 35.57,-167.7l18.64 2.12c18.51,46.51 -58.55,278.28 -82.35,331.48 -38.44,85.9 -73.58,124.76 -124.84,193.46 -22.87,30.64 -34.12,55.99 -49.17,49.59zm27.86 -207.33c-4.21,-11.23 70.3,-234.7 79.57,-269.03 24.15,-89.44 47.32,-220.94 41.08,-312.76 -7.73,-113.84 -63.17,-159.61 -94.91,-258.24 -20.18,-62.71 -68.45,-245.89 -13.87,-292.8 10.88,30.34 2.25,48.85 1.46,81.62 -4.5,187.04 75.19,238.19 110.37,342.11 69.5,205.24 3.39,391.54 -70.94,584.1 -8.25,21.38 -36.4,118.83 -52.76,125zm482.89 -802.03c-24.92,-2.86 -60.47,-40.46 -81.78,-56.48 -40.98,-30.79 -40.72,-27.03 -51.03,-80.43 -7.48,-38.79 -10.4,-80.81 -4.8,-120.01 3.64,-25.49 15.23,-88.11 50.66,-73.97 5.57,36.74 -23.22,8.11 -21.3,97.23 0.68,31.82 -0.89,72.55 12.75,101.53 11.8,25.06 31.42,44.84 48.72,63.87 20.07,22.07 45.6,35.53 46.78,68.26zm-1569.68 1916.65c12.44,17.96 27.89,28.64 50.54,33.4 0.68,-1.03 1.52,-3.87 1.86,-3.2 3.78,7.68 2.75,-5.14 3.38,-6.01 6.89,-9.53 13.77,-7.71 27.78,-14.54 30.4,-14.84 55.53,-60.61 76.39,-86.74 32.2,-40.34 66.68,-81.56 97.96,-123.21 145.3,-193.4 242.28,-289.6 468.68,-408.5 70.04,-36.79 221.79,-135.35 289.34,-147.17 -2.4,19.78 -42.47,33.37 -59.65,43.11l-208.51 117.42c-81.39,47.31 -197.78,112 -260.98,173.79 -56.36,55.1 -137.98,170.37 -197.45,237.28 -49.62,55.82 -91.54,129.73 -146.85,179.1 -12.51,11.16 -57.15,41.24 -62.33,49.08l121.13 68.35c39.17,-46.54 87.44,-13.47 137.33,-4.23 91.35,16.92 75.9,-28.07 146.6,23.21 47.13,-8.81 100.14,-26.02 148.11,-37.17 52.27,-12.15 105.44,-21.43 157.95,-32.44 12.75,-61.24 25.48,-121.89 37.9,-183.26 28.41,-140.33 134.06,-228.8 218.58,-336.58 12.33,-15.73 34.81,-55.73 56.36,-52.17 -1.64,16.87 -158.43,215.41 -181.27,245.44 -32.97,43.32 -58.13,93.42 -70.34,146.93 -10.92,47.91 -34.51,134.65 -37.84,179.88 62.3,-6.59 124.5,-12.78 186.81,-19.67 43.1,-4.76 36.73,-11.63 53.17,-51.13 40.7,-97.75 96.22,-172.69 138.88,-280.3 9.06,-22.85 14.97,-60.59 34.94,-73.88 5.32,49.95 -42.67,167.44 -63.57,215.9 -29.86,69.24 -84.42,115.21 -109.48,178.55 75.89,-7.43 139.7,-32.95 203.86,-72.45 44.82,-27.6 58.81,-24.62 52.59,-83.34 -4.05,-38.29 -14.3,-70.21 -42.67,-96.22 -27.6,38.25 -30.78,144.82 -72,176.28 -13.71,10.47 -8.15,2.61 -10.2,1.79 -1.92,-8.27 15.36,-31.84 18.95,-43.92 24.83,-83.5 50.74,-210.13 73.26,-279.74 11.23,-34.74 26.6,-69.06 41.17,-102.67 46.49,-107.21 19.69,-117.41 -10.34,-220.25 -21.88,-74.92 -37.5,-168.17 -41.59,-246.25 -12.16,-232.07 96.93,-237.63 150.81,-416.93 50.5,-168.02 28.1,-338.07 89.04,-442.23 8.4,-14.35 5.27,-18.09 18.91,-15.98 -3.64,19.31 -32.32,47.78 -20.36,63.59 39.22,-15.74 62.08,-131.34 177.81,-158.36 20.55,-4.8 87.52,-15.25 91.46,13.45l-89.13 7.82c-23.83,1.3 -20.17,-3.21 -22.88,15.07 23.09,0.09 92.1,-4.38 108.45,2.51l0.51 7.12c-15.68,9.95 -50.15,6.45 -70.82,7.62 10.26,30.95 24.22,55.21 32.8,89.91 20.9,84.56 36.93,240.54 -21.14,307.98 -2.25,-29.83 26.67,-92.73 13.16,-207.22 -4.97,-42.13 -19.91,-158.76 -58.13,-180.16 -24.39,2.46 -30.97,20.04 -45.26,37.75 -13.58,16.82 -103.84,123.41 -118.9,120.22 -2.03,-16.04 89.75,-114.03 104.92,-134.22 10.67,-14.19 33.72,-30.46 30.3,-47.9 -29.67,2.14 -71.95,82.3 -96.83,105.57 -66.26,61.97 -47.08,-2.85 -64.88,141.23 -10.94,88.55 -30.86,272.04 -69.69,345.28 -57.5,108.46 -120.64,150.63 -123.67,287.3 -1.72,77.33 20.21,289.6 60.88,351.74 26.29,-51.58 26.78,-193.59 34.87,-258.54 18.68,-149.91 134.4,-397.17 202.33,-543.88l34.5 -77.98c5.95,-13.92 3.29,-18.04 15.93,-21.01 8.52,10.23 5.18,8.34 -1.42,23.86l-75.04 177.21c-27.19,67.67 -61.17,133.71 -89.69,201.36 -65.39,155.16 -72.55,317.28 -95.65,483.67 -35.38,254.85 9,293.18 38.76,511.59 15.26,111.98 19.24,156.23 19.26,269.85 0.01,93.48 15.1,163.63 41.57,252.1 70.27,-24.09 147.56,-179.86 434.43,-201.4 87,-6.52 113.02,8.21 190.92,24.7 4.55,-82.45 12.07,-141.53 9.74,-226.77 -2.08,-76.3 -8.56,-152.68 -9.98,-228.97 -1.44,-77.49 -2.52,-151.65 -12.36,-228.7 -21.43,-167.84 -71.76,-453.02 -105.55,-612.86 -39.6,-187.32 -97.43,-403.87 -128.84,-588.82 -12.17,-71.59 -26.72,-127.87 -43.2,-197.33 -30.28,-127.57 -63.44,-233.46 -169.48,-311.84 -103.84,-76.75 -182.7,-137.15 -308.88,-171.98 -62.5,-17.26 -127.63,-32.36 -189.16,-51.58 -49.26,-15.39 -140.84,-51.49 -185.58,-58.52 -11.07,47.66 -34.29,114.85 -50.24,163.03 -52.46,158.44 -113.31,315.34 -166.82,473.6 -34.77,102.86 -76.02,209.6 -117.34,309.87 -41.94,101.79 -89.43,196.25 -134.38,296.42 -43.7,97.39 -86.65,200.97 -127.39,299.54 -40.77,98.65 -92.36,194.69 -133.91,293.01 -51.81,122.61 -227.5,523.2 -223.21,634.74z"/>
   <path class="fil1" style="mask:url(#id4)" d="M341.36 4616.98c6.38,-24.9 70.74,-25.88 94.84,-30.48 34.94,-6.68 69.95,-12.77 105.01,-19.01 68.62,-12.2 162.49,-27.68 230.93,-20.26 75.52,8.19 253.43,66.62 320.77,117.11 31.57,23.66 33.29,16.52 30.8,32.4 -18.34,1.09 -94.11,-58.37 -157,-84.67 -161.4,-67.49 -255.58,-62.13 -414.39,-33.22 -57.44,10.46 -157.91,36.87 -210.96,38.13zm410.04 -150.14c8.39,-41.49 115.67,-150.21 151.41,-173.79 35.53,-23.43 71.31,-33.84 104.26,-54.86 25.25,-16.11 45.07,-37.23 54.72,-65.66 5.7,-16.77 0.78,-22.83 13.05,-31.81 32.93,25.52 -14.25,96.63 -37.81,111.9 -35.25,22.84 -68.07,33.78 -105.5,61.35 -47.52,34.99 -159.76,146.27 -180.13,152.87zm564.57 -321.56c44.48,-11.47 119.28,43.77 122.2,85.14l-122.2 -85.14zm-813.77 123.95c-8.64,-11.16 -80.35,-221.66 -85.56,-245.45 43.91,21.97 94.54,194.63 85.56,245.45zm776.78 -205.9c-12.75,-41.86 21.16,-67.96 60.19,-70.1 32.4,-1.78 67.1,17.13 90.92,37.17 -16.76,42.13 -56.23,10.05 -81.86,-1.89 -40.36,-18.81 -44.6,31.27 -69.25,34.82zm40.07 -150.21c-50.92,-20.22 -130.83,-108.07 -100.61,-168.53 10.35,13.81 9.76,42.84 41.48,92.96 20.22,31.96 52.34,63.7 59.13,75.57zm67.39 -77.93c-17.03,-11.58 -126.5,-52.47 -122.09,-70.93 7.35,-6.98 3.19,-10.38 22.44,-4.55l51.32 22.95c23.29,10.51 47.71,17.23 69.08,31.77 43.81,29.79 69.42,84.01 63.08,138.73 -23.43,-17.44 -46.55,-92.62 -83.83,-117.97zm-124.22 -386.09c35.52,15.49 48.2,110.73 69.53,157.36 19.92,43.57 150.6,20.09 166.29,59.01 -13.83,9.67 -34.77,5.64 -54.22,3.09 -60.17,-7.88 -116.68,-4.08 -132.94,-41.3 -11.42,-26.11 -49.89,-153.53 -48.66,-178.16zm446.59 -10.96c-1.24,-11.49 -27.05,-90.88 -33.1,-109.91 -10.85,-34.15 -27.54,-70.65 -54.54,-92.56 -43.85,-35.57 -108.41,-47.74 -165.38,-127.51 39.13,19.13 151.38,83.91 183.43,109.46 45.51,36.27 77.9,162.1 69.59,220.52zm-798.12 -194.36c-8.55,-32.19 -19.64,-56.17 -22.67,-90.39 -3.03,-34.35 -0.75,-64.7 -8.66,-99.24 -8,-34.86 -51.06,-152.71 -37.35,-177.86l11.18 -1.11c14.47,23.93 50.55,140.69 53.64,170.53 3.63,35.12 1.09,69.28 6.97,104.48 5.2,31.17 14.56,56.74 22.87,86.64 18.41,66.29 71.05,355.99 37.26,390.78 -15.22,-19.36 -12.38,-70.7 -15.45,-97.82 -3.81,-33.72 -7.64,-67.32 -12.12,-100.91 -8.47,-63.43 -19.26,-123.28 -35.67,-185.1zm-219.7 -712.17c36.34,-31.78 114.42,-4.15 161.89,-2.22 -0.6,20.16 -8.87,12.91 -30.28,11.38l-131.61 -9.16zm-29.69 27.93c22.47,-24.23 93.05,12.59 180.68,11.9 65.93,-62.36 39.15,-140.31 35.57,-177.91 60.31,-12.37 26.67,67.97 38.16,138.78 36.4,14.67 77.92,11.86 168.05,49.32 38.24,15.89 40.29,13.29 40.6,27.21 -11.85,8.31 -34.75,-6.61 -49.8,-10.12 10.2,14.27 23.8,14.09 20.99,27.83 -27.22,7.37 -158.92,-66.26 -202.48,-39.35 -11.63,7.2 -87.55,145.39 -97.26,166.71 -38.72,84.94 -31.68,140.79 -29.69,232.53l9.24 217.35c3.41,36.2 0.87,22.21 -3.24,28.27 -11.11,-7.15 -9.24,-20.38 -11.85,-36.08l-15.34 -124.23c-6.8,-103.7 -22.28,-249.68 10.69,-346.39 28.09,-82.4 36.29,-78.74 59.79,-128.96l-154.11 -36.86zm339.67 -170.97c-37.57,-45.39 69.51,-181.51 151.78,-143.62 31.17,14.35 24.76,49.51 24.67,77.78 -0.5,143.16 30.26,243.06 -13.19,388.25 -21,70.17 -33.99,105.84 -15.09,181.9 32.07,129 101.24,218.6 113.64,411.89l1.96 93.5c-21.44,-16.72 -23.18,-200.07 -46.3,-229.69 -8.35,12.23 -2.14,40.59 -1.17,58.29l6.53 194.2c0.62,41.4 2.15,86.73 -6.25,127.22 -3.06,14.72 -20.24,90.2 -34.06,96.95 -11.7,-6.63 -3.34,-19.44 0.22,-34.06l19.74 -127.89c18.49,-151.13 -11.96,-381.6 -57.23,-521.72 -63.2,-195.59 -9.26,-191.62 10.8,-324.09 6.95,-45.9 8.34,-337.41 -14.72,-359.28 -31.45,-14.41 -69.4,11.91 -90.4,33.19 -18.35,18.6 -33.41,68.18 -50.93,77.18zm626.66 -401.34c-7.9,-13.99 -26.21,-37.36 -21.92,-49.93 23.61,-2.12 102.25,159.83 118.93,189.75 37.21,66.74 78.72,133.38 114.06,200.35 74.74,141.59 88.03,204.75 138.86,334.3 6.44,16.41 37.69,81.75 39.65,97.05 2.27,17.79 -0.8,10.03 -3.27,13.73 -11.64,-4.2 -11.55,-11.54 -16.79,-25.29l-77.83 -193.86c-115.45,-280.7 -157.37,-328.01 -291.69,-566.1zm-46.77 -50.28c-5.83,-8.85 -7.61,12.51 -2.45,-24.77 -58.53,1.44 -181.39,26.2 -240.05,41.71 -75.92,20.07 -77.37,40.39 -144.22,65.23 -14.37,5.34 -41.01,20.5 -51.84,12.54 23.33,-20.38 51.9,-12.39 56.9,-35.65 -55.45,0.36 -136.06,21.91 -183.75,49.97 -42.97,25.28 -84.2,79.04 -117.16,115.66 -36.04,40.03 -70.53,84.6 -106.68,126.15 -17.71,20.36 -34.79,42.34 -49.61,66.91 -15.48,25.67 -36.54,38.6 -51.93,64.53 -29.79,50.21 -38.59,125.92 -49.23,183.94 -11.86,64.69 -25.25,129.24 -38.5,193.65 -13.13,63.86 -37.38,136.88 -32.8,201.33 2.6,36.67 38.82,184.17 23.98,204.8 -12.97,-5.88 -19.15,-73.52 -22.01,-89.8 -3.53,-20.07 -7.91,-79.78 -20.41,-91.5 -22.47,9.92 -53.62,157.53 -62.66,189.31 -58.27,205.04 -40.73,222.77 -13.37,441.34 8.65,69.11 25.54,163.07 22.95,230.68 -7.91,-8.15 -4.79,1.65 -7.87,-17.33l-46.31 -321.94c-2.66,-18.13 1.25,-12.52 -9.38,-18.28 -11.98,18.54 -14.17,116.96 -19.06,147.94 -7.55,47.88 -16.73,95.79 -23.25,143.78 -28.93,213.07 -7.37,404.95 -45.56,622.2 -16.5,93.89 -37.61,200.88 -38.57,296.04 68.29,6.91 171.69,-1.39 242.93,-3.78 81.65,-2.74 161.12,-4.97 242.86,-0.67 294,15.46 299.93,126.84 354.9,142.17l45.13 -268.32c1.66,-35.56 -1.78,-72.11 -0.49,-108.65 2.27,-64.14 9.97,-130.96 21.31,-194.27 20.22,-112.88 -35.89,-276.17 -51.18,-367.52 -12.38,-73.92 -25.77,-301.62 -33.63,-393.46 -2.76,-32.13 -5.36,-64.33 -8.06,-96.51 -2.48,-29.6 -14.3,-71.47 3.61,-95.75l118.51 834.74c7.76,48.39 2.04,91.21 54.41,105.52 31.07,8.49 102.97,26.64 132.73,28.15 23.71,-81.65 80.24,-293.89 103.03,-355.39 85.47,-230.66 156,-430.78 258.07,-657.67 47.57,-105.75 98.59,-211.03 144.35,-317.52 41.6,-96.8 93.28,-222.42 145.9,-312.05 39.54,-67.35 62.97,-84.99 24.82,-165.39 -24.5,-51.65 -50.82,-102.17 -75.1,-153.91 -47.47,-101.18 -105.79,-201.02 -156.97,-300.93 -25.43,-49.64 -53.67,-99.61 -80.23,-148.85 -28.24,-52.35 -70.49,-108.13 -63.27,-169.85 -25.55,15.98 -137.42,167.65 -150.79,201.47z"/>
   <path class="fil1" style="mask:url(#id6)" d="M839.17 7255.56c-22.83,2.77 -20.21,-1.53 -29.41,-22.18 -4.79,-10.77 -9.66,-21.02 -15.06,-31.41 -26.28,-50.56 -68.73,-148.3 -84.32,-199.34 -22.01,-71.97 -28.26,-173.43 -34.18,-251.78 -2.18,-28.88 -11.79,-61.26 10.54,-80.59 25.21,19.06 20.67,37.65 24.03,68.57 9.11,83.92 9.44,161.46 31.35,243.82 22.38,84.09 93.99,242.28 97.05,272.91zm1405.32 -738.83c67.39,112.54 169.74,92.75 259.24,253 16.9,30.25 50.59,114.1 49.23,144.12 -0.42,9.19 -0.02,2.61 -3.39,8.1 -12.24,-6.78 -20.64,-46.64 -31.81,-73.01 -95.07,-224.41 -315.63,-241.91 -309.99,-401.48 15.09,9.16 25.42,50.39 36.72,69.27zm-1428.98 19.76c-4.21,-37.19 17.66,-157.86 7.58,-278.65 -18.85,-225.84 -47.94,-313.38 -16.23,-543.18 3.27,-23.7 5.36,-34.44 21.68,-52.17 19.8,-21.51 12.07,-23.82 4.97,-52.04 -5.68,-22.55 -20.02,-98.42 -30.34,-111.29 -16.85,45.46 -33.85,179.11 -40.51,232.42 -10.4,83.34 -16.57,167.51 -25.94,251.05 -33.73,300.7 -89.27,657.18 -132.31,962.38 -11.11,78.76 -22.38,158.62 -38.41,236.59 -15.59,75.8 -32.98,150.65 -40.71,227.85 38.75,8.92 114.44,12.46 157.63,16.92 217.68,22.47 309.51,0.99 506.82,9.68 110.14,4.84 220.47,10.45 330.5,18.32 32.08,2.3 137.92,13.04 163,8.91 31.25,-5.13 38.84,-98 44.02,-125.71 35.9,-191.84 63.41,-378.62 135.21,-559.55 48.17,-121.39 103.72,-246.26 158.76,-365.28 37.22,-80.49 13.27,-31.79 46.69,-81.33 9.04,-13.42 6.13,-19.24 12.12,-31.61 26.28,11.8 40.66,81.86 49.36,110.89 33.35,111.31 51.66,114.76 115.69,194.74 70.99,88.68 119.77,206.22 154.72,311.14 13.3,39.92 65.02,201.67 83.86,225.9 74.11,-62.44 191.13,-581.98 188.88,-689.7 -16.45,9.18 -76.27,94.41 -87.32,116.53 -25.97,51.98 -21.08,160.34 -30.69,174.72 -18.5,-121.48 -26.07,-163.41 54.69,-259.39 31.22,-37.1 56.82,-32.7 76.17,-90.91 10.7,-32.22 21.93,-109.98 23.39,-144.73 -162.35,-9.81 -353.81,45.8 -465.75,45.9 -142.24,0.14 -344.2,-68.87 -438.56,-73.07 -58.46,107.01 37.58,75.14 82.26,159.73 22.09,41.81 61.72,178.07 9.65,208.43 34.86,-79.65 -39.05,-237.4 -122.96,-262.53 -19.89,28.49 -51.63,141.65 -60.58,180.61 -16.28,70.88 -25.15,142.75 -16.82,215.48 33.12,-12.8 88.15,-60.84 118.91,-61.01 0,29.1 -22.15,34.88 -43.19,51.88 -30.02,24.28 -80.92,57.47 -91.99,94.12 -7.96,26.34 -11.89,58.26 -6.38,85.23 19.89,-10.36 79.4,-80.01 92.81,-77.98 3.92,7.24 6.6,-8.01 2.2,11.02 -0.12,0.51 -5.21,9.41 -5.82,10.33 -17.28,26.06 -70.52,59.85 -94.09,115.49 -24.93,58.84 -22.54,145.96 -29.21,211.66 78.59,-8.06 69.46,-55.89 109.9,-93.54 17.69,35.12 -37.42,94.91 -65.97,110.13 -41.23,21.98 -53.14,-3.88 -61.15,126.04 23.88,-10.01 70.18,-56.62 91.29,-53.86 2.33,15.79 -28.64,31.97 -51.11,46.55 -89.32,57.94 -25.95,106.3 -74.49,123.35 -23.44,8.24 -64.79,13.51 -87.72,5.11 -36.04,-23.36 -22.07,-579.82 -20.77,-618.82 7.02,-210.37 -0.57,-248.49 26.5,-461.8 5.79,-45.64 17.7,-95.98 21.05,-140.51l-135.28 2.04 26.41 11.93c-10.77,6.56 -32.22,9.71 -47.07,14.94 -18.58,6.54 -22.56,15.04 -37.9,24.3 -80.58,48.63 -123.13,-58.87 -260.15,108.46 -37.49,45.77 -75.52,91.71 -108.97,143.36 -51.06,78.87 -59.99,124.65 -85.12,163.71 0.88,-44.89 29.09,-142.59 50.74,-182.53 26.23,-48.4 66.8,-88.39 98.45,-134.49 34.87,-50.8 62.73,-90.28 124.11,-112.55 33.47,-12.15 68.62,-13.62 103.75,-9.51 38.95,4.55 62.95,17.65 84.6,-22.65 -85.76,-3.31 -179.65,-8.25 -265.06,-14.95 -58.94,-4.63 -185.47,-7.2 -219.54,-61.17 -3.1,-54.31 16.11,-157.24 30.8,-211.39 8.54,-31.46 17.88,-62.15 27.47,-93.16 7.59,-24.52 23.58,-67.94 27.07,-92.01l-91.37 -79.02c-67.63,77.2 -1.47,547.73 -2.2,669.63 -0.36,60.38 -5.97,105.07 -17.41,162.85 -7.54,38.05 -3.32,37.17 -14.62,41.77z"/>
   <path class="fil2" style="mask:url(#id8)" d="M2025.92 5897.6c25.62,20.4 39.51,63.37 19.19,91.55 -7.66,-12.07 -17.67,-73.49 -19.19,-91.55zm46.35 -600.68c-13.07,-29.24 34.89,-231.08 52.52,-267.09 18.98,-38.76 40.06,-64.71 73.19,-89.82 25.64,-19.43 69.96,-57.72 101.98,-58.19 4.57,24.75 2.97,38.27 -13.9,57.32l-11.97 -11.12c-145.94,99.29 -129.96,156.21 -179.56,319.56 -5.04,16.58 -8.44,40.84 -22.26,49.34zm77.63 147.84c-21.03,-49.62 102.63,-271.28 131.25,-328.31 37.7,-75.17 86.19,-146.42 133.62,-215.73 18.68,-27.3 34.72,-60.79 54.05,-62.55 2.85,32.13 -60.8,120.91 -80.35,152.71 -29.12,47.33 -57.75,95.13 -86.07,142.94 -51.39,86.75 -104.51,176.2 -135.38,271.76 -9.97,30.86 -4.14,31.01 -17.12,39.18zm415.27 48.46c-6.26,-6.6 -6.94,4.07 -3.9,-18.43l22.74 -117.85c9.07,-44.94 18.01,-89.1 28.66,-133.85 9.85,-41.44 22.69,-86.36 37.51,-125.56 8.78,-23.22 46.52,-97.44 45.25,-115.19 -5.25,-73.4 -71.58,-159.47 -127.5,-197.89 -61.99,-42.59 -175.53,-69.85 -251.01,-71.04 -5.37,71.81 -15.46,95.52 -68.53,141.17 -18.04,15.52 -44.67,29.49 -67.28,37.8 -39.26,14.42 -56.63,6.95 -92.86,12.28 -32.45,13.34 -121.79,529.36 -127.71,561.99l-105.18 584.5c47.27,13.9 244.12,23.4 302.3,24.41 104.56,1.8 196.66,-4.8 299.61,-22.37 46.25,-7.9 91.82,-18.48 138.37,-24.62 23.06,-3.03 146.5,-4.6 149.48,-5.93 22.04,-9.83 22.8,-111.91 25.24,-137.36 3.66,-37.96 13.57,-110.23 9.92,-144.96 -17.11,-2.18 -17.95,10.69 -27.66,26.04 -21.04,33.26 -45.03,74.05 -71.88,95.04 -96.93,75.8 -72.43,113.34 -111.03,113.91 0.44,-37.47 99.69,-141.74 127.91,-182.47 21.19,-30.59 41.05,-62.41 61.85,-93.37 28.63,-42.6 36.13,-68.68 30.78,-120.7 -9.54,-92.81 -44.27,-475.76 -77.6,-536.08 -70.88,67.14 -122.88,402.92 -147.48,450.53z"/>
   <path class="fil2" style="mask:url(#id10)" d="M2826.54 7362.93c23.57,15.85 100.16,55.53 59.92,85.46 -9.74,-3.28 -72.85,-56.21 -88.63,-68.37 -23.2,-17.89 -78.96,-48.07 -76.54,-80.2 18.77,-0.86 85.26,49.67 105.25,63.11zm-27.9 -192.75c67.09,-57.01 189.92,130.88 137.95,175.55 -8.44,-43.9 -17.72,-77.09 -46.48,-112.35 -32.21,-39.47 -51.87,-38.89 -91.47,-63.2zm231.14 -704.51c-3.45,-7.55 -8.39,1.32 1.22,-16.88l27.62 -42.62c6.11,-9.43 11.73,-19.42 17.6,-29.03 19.84,-32.45 12.9,-21.66 25.15,-21.78 -1.92,13.25 -59.31,109.64 -71.59,110.31zm336.71 -151.04c10.24,-52.15 4.53,-104.68 2.26,-157.41 -2.43,-56.32 -0.27,-101.57 -8.17,-159.1 -9.61,-70.03 -25.3,-140.03 -38.14,-209.8 -5.87,-31.85 0.71,-44.06 -29.81,-56.49 2.05,40.69 6.62,82.21 8,122.74 1.42,41.66 14.3,61.8 21.05,101.17 8.74,50.85 3.09,171.44 -18.54,217.63 -19.42,41.46 -90.18,45.44 -130.68,55.51 -16.7,4.15 -27.14,12.95 -42.97,19.16 -84.76,33.27 -172.1,9.53 -224.07,20.38 -11.86,108.86 -4.31,215.16 -19.22,326.09 -28.42,211.39 -97.99,327.53 -172.57,510.69 -47.57,116.82 -123.09,90.81 -212.83,131.25l36.78 241.18c87.96,-0.1 183.13,-8.34 271.92,-11.72 90.47,-3.43 181.56,-7.74 272.03,-12.82 81.09,-4.55 189.78,-18.22 267.74,-14.51 84.02,4 191.98,16.06 274.87,5.51l-52.54 -337.39c-13.66,15.15 -26.62,52.51 -37.86,73.46 -21.71,40.45 -118.22,174.81 -139.97,178.18 0.16,-15.34 110.41,-165.55 127.95,-205.81 46.1,-105.81 25.63,-180.05 -2.49,-284.67 -33.92,-126.2 -45.12,-284.12 -80.08,-427.74 -10.68,-43.88 -26.48,-89.3 -35.9,-132.28 -8.68,11.92 -33.54,110.29 -43.22,135.74l-159.76 363.34c-3.73,-29.97 138.75,-352.28 166.22,-492.29z"/>
   <path class="fil2" style="mask:url(#id12)" d="M1702.57 1114.87l-26.41 -34.45 -3.45 19.4c-33.93,8.24 -26.77,17.2 -24.64,47.38 19.29,-9.44 24.39,-29.67 37.21,-29.5 10.55,18.32 10.56,88.88 18.07,118.69 26.06,103.6 64.12,194.33 122.71,284.67 54.67,84.3 182.41,234.03 281.45,261.56 47.4,13.17 65,-0.91 101.66,-25.45 185.69,-124.32 230.99,-179.26 284.34,-395.53 11.18,-45.34 47.56,-184.06 47.58,-222.64 -14.45,-11.24 -19.79,-13.11 -18.62,-34.25 0.97,-17.74 1.23,-33.38 1.65,-51.13 3.24,-136 2.05,-156.75 -39.67,-295.41 -18.58,-61.77 -17.36,-83.23 -140.5,-82.59 -71.23,0.36 -145.59,6.04 -217.24,8.09 -37.54,1.07 -65.18,7.78 -103.1,3.72 -34.19,-3.65 -68.36,-7.92 -102.55,-11.81 -96.5,-11 -96.63,-13.22 -145.13,66.1 -69.77,114.1 -40.48,250.06 -73.36,373.15z"/>
   <path class="fil2" style="mask:url(#id14)" d="M1452.23 4320.1c38.42,10.77 197.95,61.18 224.13,60.09 41.04,-115.45 73.76,-234.97 115.64,-350.66l142.66 -326.82c24.63,-53.2 46.71,-108.42 70.8,-162.13 24.09,-53.72 51.37,-107.16 75.29,-161.43 47.81,-108.48 95.48,-217.91 142.26,-327.49 152.38,-356.98 261.43,-663.51 382.57,-1026.42 44.03,-131.89 44.42,-104.32 -0.08,-165.88 -27.13,-37.54 -67.35,-109.84 -98.54,-138.35 -13.82,21.86 -42.22,135.94 -54.11,170.95 -18.76,55.25 -43.3,109.5 -66.06,163.1 -44.85,105.65 -97.87,209.02 -144.1,313.96 -92.1,209.14 -195.43,416.95 -289,626.8 -92.61,207.65 -199.73,422.13 -278.24,633.88 -78.55,211.9 -113.79,292.54 -175.97,511.21 -10.87,38.24 -45.08,146.69 -47.25,179.19z"/>
   <path class="fil2" style="mask:url(#id16)" d="M1277.82 5918.58c27.04,-7.34 55.72,-32.73 85.04,-43.84 72.98,-27.65 101.64,-55.1 126.64,-129.66 5.43,-16.18 11.58,-26.76 20.65,-41.31 11.35,-18.21 12.81,-18.76 35.99,-21.82 3.02,25.38 -17.73,78.38 -27.43,103.89 -26.46,69.59 -72.07,100.17 -140.86,123.33 -32.2,10.83 -54.44,32.75 -89.13,41.1 -8.29,-10.17 -8.84,-17.48 -10.9,-31.69zm167.38 32.91c6.66,-19.16 109.62,-45.76 132.29,-71.71 15.73,-17.99 33.18,-131.76 39.5,-162.53 23.12,-112.55 41.04,-226.09 65.44,-338.31 23.01,-105.85 52.59,-215.7 84.73,-318.78 15.99,-51.29 30.27,-103.91 46.36,-154.98 59.67,-189.28 88.09,-158.88 -75.14,-187.97 -24.68,-4.39 -111.94,-24.77 -127.95,-23.71 -24.6,15.06 -67.16,123.22 -81.58,155.73 -91.14,205.46 -90.4,247.6 -146.85,447.07 -13.89,49.08 -13.14,45.24 13.68,85.99 43.7,66.38 42.8,114.25 18.62,190.68 -22.65,71.64 -38.09,100.06 -111.09,125.99 -98.61,35.01 -84.35,6.07 -121.15,115.04 -20.9,61.92 -38.18,127.5 -43.69,193.32l426.94 -1.24 12.88 -99.33c-50.6,8.2 -114.18,70.57 -132.99,44.74z"/>
   <path class="fil2" style="mask:url(#id18)" d="M3377.37 5606.74l-3.28 -76.15c51.95,24.02 40.94,76.1 3.28,76.15zm88.81 -490.44l12.97 10.27c0.89,19.03 -18.86,91.05 -31.25,104.63 -33.95,4.19 -41.56,-25.75 -43.8,-52.45l62.08 -62.45zm-151.96 33.21c-15.01,-4.03 -28.56,-10.77 -43.05,-16.59 -18.32,-7.37 -26.22,-8.16 -27.71,-27.94 16.59,-8.27 67.15,6.98 86.65,12.12 -1.42,12.66 -7.19,22.26 -15.89,32.41zm47.67 510.72c48.68,-5.57 60.07,-51.97 65.38,-92.87l29.5 -284.63c9.19,-49.71 19.22,-41.41 33.85,-120.99 15.85,-86.23 38.93,-166.87 63.84,-250.47 33.06,-111 -11.79,-152.89 -120.58,-170.06 -100.87,-15.92 -136.72,-36.31 -187.72,9.03 -17.87,15.91 -18.52,30.92 -23.85,53.87 -19.77,85.09 -41.82,169.69 -57.7,255.6 -18.43,99.7 -38.72,138 -108.85,206.42 -32.69,31.89 -127.05,131.32 -123.88,184.18l25.08 -29.89c12.99,43.65 27.99,209.4 42.89,232.5 30.81,0.25 64.86,-104.66 69.05,-142.55l-31.45 12.47 -6.82 -82.63c51.92,-5.8 42.52,19.94 40.79,62.3 16.53,-10.13 31.05,-40.07 43.91,-46.33 18.8,19.96 -4.7,28.7 -0.55,60.76 2.86,22.03 8.74,43.04 10.54,65.77 5.47,69.55 -30.89,82.02 -45.21,105.76 66.78,-11.36 108.07,-56.53 109.38,-125.09l-28.94 2.96c-0.22,-27.01 -8.36,-102.73 8.2,-120.98 18.01,-6.62 34.76,-4.5 47.58,11.26l2.87 43.35 28.61 -9.03c17.09,23.33 17.96,72.66 14.37,102.21 -5.42,44.58 -18.9,52.06 -34.74,87.46 50.87,-11.27 70.61,-73.58 89.82,-116.48 -34.81,-16.15 -22.52,-40.19 -35.22,-75.53 57.89,5.28 43.56,20.06 52.41,36.37l21.53 3.71 5.91 131.55z"/>
   <path class="fil2" style="mask:url(#id20)" d="M1092.2 5464.55c35.84,-28.47 96.08,53.1 40.76,101.68 -13.37,-16.29 -43.66,-80.84 -40.76,-101.68zm141.76 -41.52c7.21,3.46 63.37,48.02 67.24,67.2 -30.17,32.21 -82.98,-27.6 -79.6,-58.77l12.36 -8.43zm-357.05 43.39c-24.28,-29.9 -20.31,-105.94 9.32,-116.8 14.8,18.79 9.33,30.91 8.97,54.67 -0.27,17.7 2.7,41.15 -2.88,58.87l-15.41 3.26zm93.14 -33.65c-32.42,-19.38 -23.77,-144.18 -7.49,-167.24 37.48,13.7 33.46,151.4 7.49,167.24zm174.84 -52.1c-40.18,-10.85 -65.74,-64.07 -19.36,-77.09 18.99,16.28 18.86,51.91 19.36,77.09zm15.34 -127.65c-8.28,-3.52 -45.82,-43.45 -50.12,-53.89 38.37,-4.56 64.77,12.53 50.12,53.89zm-191.92 -61.05c17.46,-28.15 51.78,-29.74 82.75,-23.47l14.04 32.28 -96.79 -8.81zm38.23 524.03c-17.36,-55.01 -83.05,-67.06 -62.24,-186.27 29.57,12.02 26.26,27.74 41.29,53.06 36.72,61.85 90.55,106.18 159.98,127.67 -27.48,-39.41 -114.68,-121.67 -120.63,-147.43 -5.71,-24.73 -5.43,-59.01 5.94,-81.21 43.09,13.17 9.76,40.24 42.05,67.98 20.52,17.62 39.89,19.39 60.18,44.55 35.06,43.48 77.2,68.08 139.29,72.96 -31.47,-25.39 -36.89,-34.72 -47.07,-75.3 -8,-31.88 -21.53,-70.77 -19.89,-103.25 52,1.33 80.7,69.45 133.31,59.16 55.36,-65.66 -50.18,-106.9 -36.21,-157.05 24.84,-9.96 59.06,23.4 85.6,27.51 -6.82,-28.02 -144.94,-144.9 -176.17,-193.94 -51.44,-80.79 -63.58,-190.74 -84.98,-283.67 -16.45,-71.46 -36.48,-64.88 -107.58,-78.33 -58.37,-11.04 -115.72,-15.02 -174.86,-6.72 -79.45,11.16 -73.93,41.09 -61.07,110.08 8.25,44.23 19.12,109.17 32.42,150.75 17.79,3.73 18.94,-2.91 33.56,8.31 3.77,23.76 -7.38,22.52 -2.68,41.46 2.76,11.1 21.87,32.71 -4.37,43.98 -3.78,1.62 -6.1,1.53 -8.74,2.56 -6.26,2.44 -5.55,2.73 -8.78,4.99 1.1,52.84 5.59,110.14 9.16,163.16 3.24,48.07 -1.39,96.48 40.14,126.92 47.79,35.03 43.72,52.52 63.24,107.24 11.66,32.72 32.83,93.48 69.11,100.83z"/>
   <path class="fil2" style="mask:url(#id22)" d="M3036.18 4757.59c37.97,33.62 67.02,227.1 61.05,278.51 -8.12,-13.21 -60.03,-253.52 -61.05,-278.51zm-38.51 -38.43c6.9,24.24 20.62,52.27 28.64,80.42 17.54,61.55 26.27,127.8 33.39,191.33 2.31,20.65 15.14,89.62 6.13,101.69 -10.02,-4.07 -6.35,0.74 -9.39,-16.5l-11.71 -70.05c-5.23,-31.74 -10.84,-63.59 -16.27,-95.28 -7.84,-45.7 -31.58,-151.79 -30.79,-191.61zm-368.49 39.51c-0.41,10.65 76.08,123.37 92.72,129.62l-16.2 -109.04c0.62,-7.53 1.05,-4.93 2.94,-9.11 24.25,9.23 23.37,55.54 26.71,79.53 24.15,174.07 14.95,98.99 63.48,263.12 40.7,137.65 19.63,254.38 38.45,392.12 15.64,-15.23 38.96,-78.71 48.42,-102.17 34.66,-85.96 18.13,-51.01 70.92,-84.37 24.32,-15.36 53.02,-53.4 76.3,-75.09 28.29,-26.36 54.96,-44.65 74.13,-81.1 37.72,-71.71 7.83,-181.46 -4.85,-259.99 -8.72,-54.07 -38.56,-202.79 -71.3,-240.67 -77.55,30.67 -65.51,43.4 -185.04,65.3 -71.52,13.1 -144.43,19.01 -216.68,31.85z"/>
   <path class="fil2" style="mask:url(#id24)" d="M2001.63 2159.02c-25.3,-28.4 -46,-45.89 -71.13,-78.75 -23.6,-30.87 -40.87,-63 -56.77,-98.4 -16.96,-37.77 -74.62,-211.95 -57.93,-242.24 22,-2.93 27.86,52.57 33.8,68.53 13.59,36.53 92.36,182.92 111.82,214.01 51.93,83.02 105.83,104.85 132.32,194.1 10.14,34.19 -1.39,57.78 40.63,71.09l49.8 -75.83 -30.1 -2.22c12.79,-33.05 40.26,-79.04 57.83,-111.77l162.32 -307.24c7.78,-15.51 6.2,-20.59 20.09,-22.67 7.33,20.16 -57.09,190.45 -68.1,223.17 -28.03,83.28 -69.39,120.31 -110.76,188.08 24.68,-8.53 47.7,-22.79 70.95,-34.06 35.78,-17.35 42.05,-13.12 59.29,-49.27 17.91,-37.55 114.11,-281.37 120.2,-309.74 9.41,-43.79 -6.25,-144.48 -35.11,-175.06 -43.21,39.4 -193.39,262.68 -312,258.47 -60.23,-2.14 -135.14,-75.74 -167.45,-116.4 -33.75,-42.47 -64.74,-67.79 -92.75,-120.68 -8.39,-15.83 -13.5,-36.48 -22.76,-50.04 -24.09,50.28 -43.16,105.35 -68.42,156.36 -28.28,57.11 20,110.91 47.02,159.06 26.98,48.06 53.86,96.15 80.87,144.2 30.57,54.35 38.86,100.74 106.34,117.3z"/>
   <path class="fil2" style="mask:url(#id26)" d="M3261.47 6135.81c6.93,-87.08 13.67,-174.86 18.84,-262.06 7.73,-130.19 -8.46,-72.27 -15.99,-116.51 -10.92,-64.25 -35.42,-37.01 -93.77,-40.04 -19.87,-1.03 -43.03,-4.88 -61.86,-4.69 -21.05,0.2 -40.6,7.71 -62.43,6.12 -29.12,-2.11 -17.8,-15.84 -50.19,-19.71 -17.55,-2.1 -41.69,-2.89 -55.89,-13.79 -26.38,-20.26 -42.43,-58.58 -47.26,-91.27 -7.42,-50.26 27.42,-87.05 -9.5,-109.84 -18.36,17.95 -32.7,62.78 -36.35,89.04 -5.8,41.64 3.14,73.12 7.66,113.25 8.11,72.09 10.97,153.19 15.48,226.28 1.42,22.96 3.55,99.62 9.17,116.57 12.69,38.21 61.65,15.52 91.29,9.55 62.82,-12.65 174.48,-0.36 243.35,-1.31l24.54 -293.84c18.27,8.03 6.25,61.96 5.22,80.05l-12.66 180.92c-2.99,32.66 -13.63,40.48 -24.09,68.72 -31.12,-23.89 -14.77,-28.05 -67.46,-25.83l-253.1 15.95c-1.15,5 -5.31,108.38 24.12,117 32.3,1.95 145.2,-14.55 179.82,-22.13 27.02,-5.91 53.5,-14.88 80.75,-20.14 40.22,-7.76 56.91,-0.39 90.31,-2.29z"/>
   <path class="fil2" style="mask:url(#id28)" d="M908.69 6002.5c24.15,-13.76 103.41,-3.84 135.13,-1.52 61.22,4.48 73.33,20.96 90.05,-44.1 19.19,-74.71 43.66,-152.23 60.95,-225.83 -28.67,15.82 -32.63,23.2 -69.51,23.9 -25.36,0.48 -60.86,-4.14 -86.65,-7.01 -80.95,-9.03 -82,-10.31 -103.57,67.58 -19.84,71.68 -70.96,234.9 -65.33,303.08 12.86,24.56 50.61,33.89 75.42,44.09 34.47,14.16 65.51,13.57 102.5,14.26 76.23,1.41 137.97,17.16 217.33,14.71 77.78,-2.4 151.27,-3.81 229.12,-4.35 50.01,-0.34 45.49,-22.32 51.56,-63.8 4.55,-31.1 14.72,-72.05 15.45,-102.01 -112.87,0.73 -225.94,-2.21 -338.82,-2.61 -53.38,-0.2 -282.15,4.96 -313.63,-16.39z"/>
   <path class="fil2" style="mask:url(#id30)" d="M1356.78 5336.71c18.14,-43.05 34.3,-124.77 47.66,-173.53 15.57,-56.84 31.97,-111.61 50.28,-166.93 25.84,-78.11 117.6,-278.26 125.26,-310.39 -47.1,-5.84 -87.76,-17.67 -133.21,-29.51 -83.72,-21.81 -87.22,-23.55 -111.14,23.01 -17.77,34.58 -42.87,70.97 -56.45,106.5l-34.92 123.82c-12.25,42.14 -25.5,84.6 -36.74,126.76 -16.16,60.64 -21.85,70.3 2.24,132.09 14.28,36.64 40.47,67.23 65.9,93.16 20.76,21.17 57.53,58.35 81.12,75.02z"/>
   <path class="fil2" style="mask:url(#id32)" d="M1811.4 6192.94c92.67,8.25 164.67,33.8 261,25.29 79.85,-7.05 156.54,-33.29 240.39,-42.03 90.38,-9.41 184.77,-12.43 275.67,-11.36 25.75,0.3 120.35,8.87 135.79,-7.73 9.71,-10.44 23.55,-98.41 21.84,-114.3 -273.22,-3.48 -296.94,35.68 -514.08,45.88 -88.06,4.14 -183.57,2.42 -271.24,-7.09 -25.49,-2.76 -104.85,-22.38 -117.58,1.78 -7.92,15.03 -28.18,90.53 -31.79,109.56z"/>
   <path class="fil0" style="mask:url(#id34)" d="M1000.97 2388.57c17.52,-9 32.58,-58.58 50.93,-77.18 21,-21.28 58.95,-47.6 90.4,-33.19 23.06,21.87 21.67,313.38 14.72,359.28 -20.06,132.47 -74,128.5 -10.8,324.09 45.27,140.12 75.72,370.59 57.23,521.72l-19.74 127.89c-3.56,14.62 -11.92,27.43 -0.22,34.06 13.82,-6.75 31,-82.23 34.06,-96.95 8.4,-40.49 6.87,-85.82 6.25,-127.22l-6.53 -194.2c-0.97,-17.7 -7.18,-46.06 1.17,-58.29 23.12,29.62 24.86,212.97 46.3,229.69l-1.96 -93.5c-12.4,-193.29 -81.57,-282.89 -113.64,-411.89 -18.9,-76.06 -5.91,-111.73 15.09,-181.9 43.45,-145.19 12.69,-245.09 13.19,-388.25 0.09,-28.27 6.5,-63.43 -24.67,-77.78 -82.27,-37.89 -189.35,98.23 -151.78,143.62z"/>
   <path class="fil3" style="mask:url(#id36)" d="M841.98 2571.44c-87.63,0.69 -158.21,-36.13 -180.68,-11.9l154.11 36.86c-23.5,50.22 -31.7,46.56 -59.79,128.96 -32.97,96.71 -17.49,242.69 -10.69,346.39l15.34 124.23c2.61,15.7 0.74,28.93 11.85,36.08 4.11,-6.06 6.65,7.93 3.24,-28.27l-9.24 -217.35c-1.99,-91.74 -9.03,-147.59 29.69,-232.53 9.71,-21.32 85.63,-159.51 97.26,-166.71 43.56,-26.91 175.26,46.72 202.48,39.35 2.81,-13.74 -10.79,-13.56 -20.99,-27.83 15.05,3.51 37.95,18.43 49.8,10.12 -0.31,-13.92 -2.36,-11.32 -40.6,-27.21 -90.13,-37.46 -131.65,-34.65 -168.05,-49.32 -11.49,-70.81 22.15,-151.15 -38.16,-138.78 3.58,37.6 30.36,115.55 -35.57,177.91z"/>
   <path class="fil2" style="mask:url(#id38)" d="M2019.56 6246.49c19.38,8.14 151.1,20.88 180.78,23.34 155.32,12.89 204.14,-24.44 358.84,-37.51 115.2,-9.75 176.3,17.21 155.53,-42.11 -207.94,-4.2 -334.66,-9.15 -533.11,33.41 -26.44,5.67 -53.32,10.84 -80.24,13.55 -18.68,1.88 -73.15,-2.25 -81.8,9.32z"/>
   <path class="fil0" style="mask:url(#id40)" d="M2790.28 3269.15c16.36,-6.17 44.51,-103.62 52.76,-125 74.33,-192.56 140.44,-378.86 70.94,-584.1 -35.18,-103.92 -114.87,-155.07 -110.37,-342.11 0.79,-32.77 9.42,-51.28 -1.46,-81.62 -54.58,46.91 -6.31,230.09 13.87,292.8 31.74,98.63 87.18,144.4 94.91,258.24 6.24,91.82 -16.93,223.32 -41.08,312.76 -9.27,34.33 -83.78,257.8 -79.57,269.03z"/>
   <path class="fil0" style="mask:url(#id42)" d="M3155.09 4242c3.22,-4.88 25.39,-88.21 33.55,-108.2 47.63,-116.6 99.6,-104.57 162.95,-279.77 31.27,-86.48 139.91,-394.37 110.11,-470.75 -7.05,10.29 -20.91,98.07 -26.55,120.07 -32.71,127.44 -90.82,224 -115.61,330.63 -38,163.44 -127.83,161.96 -170.82,349.28 -3.54,15.43 -13.12,52.85 6.37,58.74z"/>
   <path class="fil2" style="mask:url(#id44)" d="M1315.22 4627.68c-16.96,-4.32 -45.39,-15.09 -61.86,-15.5 -30.11,-0.75 -29.8,19.08 -34.43,43.49 -8.24,43.34 -17.31,86.53 -25.45,129.89 -8.78,46.67 -10.23,92.26 -18.58,137.02 -7.58,40.65 -23.44,86.51 4.59,123.82l135.73 -418.72z"/>
   <path class="fil0" style="mask:url(#id46)" d="M842.01 2876.29c-13.71,25.15 29.35,143 37.35,177.86 7.91,34.54 5.63,64.89 8.66,99.24 3.03,34.22 14.12,58.2 22.67,90.39 16.41,61.82 27.2,121.67 35.67,185.1 4.48,33.59 8.31,67.19 12.12,100.91 3.07,27.12 0.23,78.46 15.45,97.82 33.79,-34.79 -18.85,-324.49 -37.26,-390.78 -8.31,-29.9 -17.67,-55.47 -22.87,-86.64 -5.88,-35.2 -3.34,-69.36 -6.97,-104.48 -3.09,-29.84 -39.17,-146.6 -53.64,-170.53l-11.18 1.11z"/>
   <path class="fil0" style="mask:url(#id48)" d="M839.17 7255.56c-3.06,-30.63 -74.67,-188.82 -97.05,-272.91 -21.91,-82.36 -22.24,-159.9 -31.35,-243.82 -3.36,-30.92 1.18,-49.51 -24.03,-68.57 -22.33,19.33 -12.72,51.71 -10.54,80.59 5.92,78.35 12.17,179.81 34.18,251.78 15.59,51.04 58.04,148.78 84.32,199.34 5.4,10.39 10.27,20.64 15.06,31.41 9.2,20.65 6.58,24.95 29.41,22.18z"/>
   <path class="fil4" style="mask:url(#id50)" d="M2891.78 6215.64c10.43,30.77 36.67,28.52 65.38,28.55 30.7,0.02 59.98,-0.28 90.63,-2.95 52.57,-4.57 96.49,-27.59 147.51,-40.56 71.04,-18.06 89.09,-4.29 104.8,-81.14 11.28,-55.15 8.95,-112.76 -2.6,-167.63 -28.25,46.95 15.61,189.14 -44.02,210.83 -15.41,5.61 -55.5,13.34 -71.22,12.71 -17.73,-0.71 -22.56,-5.67 -42.84,-3.51 -51.71,5.51 -216.45,30.78 -247.64,43.7z"/>
   <path class="fil0" style="mask:url(#id52)" d="M2762.42 3476.48c15.05,6.4 26.3,-18.95 49.17,-49.59 51.26,-68.7 86.4,-107.56 124.84,-193.46 23.8,-53.2 100.86,-284.97 82.35,-331.48l-18.64 -2.12c-2.86,6.38 -27.99,141.21 -35.57,167.7 -35.69,124.77 -97.92,236.66 -166.34,346.01 -11.32,18.1 -39.3,52.25 -35.81,62.94z"/>
   <path class="fil0" style="mask:url(#id54)" d="M3131.59 3975.12c19.35,-1.68 26.56,-24.89 34.49,-42.47 21.42,-47.5 46.22,-131.42 59.22,-181.18 20.18,-77.28 48.78,-198.51 41.8,-276.69 -15.28,18.27 -140.88,449.89 -135.51,500.34z"/>
   <path class="fil0" style="mask:url(#id56)" d="M2149.9 5444.76c12.98,-8.17 7.15,-8.32 17.12,-39.18 30.87,-95.56 83.99,-185.01 135.38,-271.76 28.32,-47.81 56.95,-95.61 86.07,-142.94 19.55,-31.8 83.2,-120.58 80.35,-152.71 -19.33,1.76 -35.37,35.25 -54.05,62.55 -47.43,69.31 -95.92,140.56 -133.62,215.73 -28.62,57.03 -152.28,278.69 -131.25,328.31z"/>
   <path class="fil4" style="mask:url(#id58)" d="M2160.5 2498.31c13.36,-0.18 60.94,-117.65 68.79,-135.03 10.34,-22.88 63.68,-126.22 61,-141.97 -29.68,-14.96 -95.29,32.71 -115.89,87.3 -13.23,35.06 -22.9,157.08 -13.9,189.7z"/>
   <path class="fil0" style="mask:url(#id60)" d="M2072.27 5296.92c13.82,-8.5 17.22,-32.76 22.26,-49.34 49.6,-163.35 33.62,-220.27 179.56,-319.56l11.97 11.12c16.87,-19.05 18.47,-32.57 13.9,-57.32 -32.02,0.47 -76.34,38.76 -101.98,58.19 -33.13,25.11 -54.21,51.06 -73.19,89.82 -17.63,36.01 -65.59,237.85 -52.52,267.09z"/>
   <path class="fil5" style="mask:url(#id62)" d="M1605.71 1937.3c-4.29,12.57 14.02,35.94 21.92,49.93 134.32,238.09 176.24,285.4 291.69,566.1l77.83 193.86c5.24,13.75 5.15,21.09 16.79,25.29 2.47,-3.7 5.54,4.06 3.27,-13.73 -1.96,-15.3 -33.21,-80.64 -39.65,-97.05 -50.83,-129.55 -64.12,-192.71 -138.86,-334.3 -35.34,-66.97 -76.85,-133.61 -114.06,-200.35 -16.68,-29.92 -95.32,-191.87 -118.93,-189.75z"/>
   <path class="fil2" style="mask:url(#id64)" d="M2123.78 2480.35c2.58,-67.14 -1.17,-132.63 -31.16,-193.43 -23.17,-46.96 -69.79,-94.14 -123.11,-105.29 5.88,20.22 140.96,287.34 154.27,298.72z"/>
   <path class="fil0" style="mask:url(#id66)" d="M1277.82 5918.58c2.06,14.21 2.61,21.52 10.9,31.69 34.69,-8.35 56.93,-30.27 89.13,-41.1 68.79,-23.16 114.4,-53.74 140.86,-123.33 9.7,-25.51 30.45,-78.51 27.43,-103.89 -23.18,3.06 -24.64,3.61 -35.99,21.82 -9.07,14.55 -15.22,25.13 -20.65,41.31 -25,74.56 -53.66,102.01 -126.64,129.66 -29.32,11.11 -58,36.5 -85.04,43.84z"/>
   <path class="fil0" style="mask:url(#id68)" d="M2549.57 6921.95c3.37,-5.49 2.97,1.09 3.39,-8.1 1.36,-30.02 -32.33,-113.87 -49.23,-144.12 -89.5,-160.25 -191.85,-140.46 -259.24,-253 -11.3,-18.88 -21.63,-60.11 -36.72,-69.27 -5.64,159.57 214.92,177.07 309.99,401.48 11.17,26.37 19.57,66.23 31.81,73.01z"/>
   <path class="fil0" style="mask:url(#id70)" d="M751.4 4466.84c20.37,-6.6 132.61,-117.88 180.13,-152.87 37.43,-27.57 70.25,-38.51 105.5,-61.35 23.56,-15.27 70.74,-86.38 37.81,-111.9 -12.27,8.98 -7.35,15.04 -13.05,31.81 -9.65,28.43 -29.47,49.55 -54.72,65.66 -32.95,21.02 -68.73,31.43 -104.26,54.86 -35.74,23.58 -143.02,132.3 -151.41,173.79z"/>
   <path class="fil0" style="mask:url(#id72)" d="M3273.17 2467.12c-1.18,-32.73 -26.71,-46.19 -46.78,-68.26 -17.3,-19.03 -36.92,-38.81 -48.72,-63.87 -13.64,-28.98 -12.07,-69.71 -12.75,-101.53 -1.92,-89.12 26.87,-60.49 21.3,-97.23 -35.43,-14.14 -47.02,48.48 -50.66,73.97 -5.6,39.2 -2.68,81.22 4.8,120.01 10.31,53.4 10.05,49.64 51.03,80.43 21.31,16.02 56.86,53.62 81.78,56.48z"/>
   <path class="fil3" style="mask:url(#id74)" d="M341.36 4616.98c53.05,-1.26 153.52,-27.67 210.96,-38.13 158.81,-28.91 252.99,-34.27 414.39,33.22 62.89,26.3 138.66,85.76 157,84.67 2.49,-15.88 0.77,-8.74 -30.8,-32.4 -67.34,-50.49 -245.25,-108.92 -320.77,-117.11 -68.44,-7.42 -162.31,8.06 -230.93,20.26 -35.06,6.24 -70.07,12.33 -105.01,19.01 -24.1,4.6 -88.46,5.58 -94.84,30.48z"/>
   <path class="fil0" style="mask:url(#id76)" d="M1864.84 4440.36c5.93,18.88 42.32,37.83 89.21,-11.99 69.11,-73.42 72.33,-117.8 170.31,-178.96 15.53,-9.7 31.41,-18.39 35.02,-34.44 -62.05,1.69 -125.43,62.65 -158.92,104.51 -42.74,53.41 -55.88,115.41 -135.62,120.88z"/>
   <path class="fil0" style="mask:url(#id78)" d="M1498.04 3665.47c-15.69,-38.92 -146.37,-15.44 -166.29,-59.01 -21.33,-46.63 -34.01,-141.87 -69.53,-157.36 -1.23,24.63 37.24,152.05 48.66,178.16 16.26,37.22 72.77,33.42 132.94,41.3 19.45,2.55 40.39,6.58 54.22,-3.09z"/>
   <path class="fil3" style="mask:url(#id80)" d="M3168.25 4611.92c10.29,-5.37 42.09,-36.04 52.99,-45.72 15.96,-14.17 38.68,-30.59 56.96,-44.01 36.95,-27.14 86.96,-53.2 130.19,-67.75 147.89,-49.8 241.06,-7.74 347.46,-1.63 -51.46,-49.97 -290.14,-35.05 -357.53,-12.65 -47.26,15.7 -89.53,43.71 -129.74,72.44 -36.43,26.03 -86.57,56.65 -100.33,99.32z"/>
   <path class="fil5" style="mask:url(#id82)" d="M1708.81 3438.14c8.31,-58.42 -24.08,-184.25 -69.59,-220.52 -32.05,-25.55 -144.3,-90.33 -183.43,-109.46 56.97,79.77 121.53,91.94 165.38,127.51 27,21.91 43.69,58.41 54.54,92.56 6.05,19.03 31.86,98.42 33.1,109.91z"/>
   <path class="fil4" style="mask:url(#id84)" d="M3136.17 5016.01c3.52,21.18 -2.13,12.22 16.22,12.52 4.59,-18.56 3.82,-90.09 0.19,-110.12 -5.73,-31.56 -67.09,-258.91 -78.99,-268.95 -35.84,13.29 3.11,62.16 10.21,84.66 22.95,72.71 31.78,123.03 42.25,197.35l10.12 84.54z"/>
   <path class="fil0" style="mask:url(#id86)" d="M1264.35 3764.26c-4.41,18.46 105.06,59.35 122.09,70.93 37.28,25.35 60.4,100.53 83.83,117.97 6.34,-54.72 -19.27,-108.94 -63.08,-138.73 -21.37,-14.54 -45.79,-21.26 -69.08,-31.77l-51.32 -22.95c-19.25,-5.83 -15.09,-2.43 -22.44,4.55z"/>
   <path class="fil0" style="mask:url(#id88)" d="M2886.46 7448.39c40.24,-29.93 -36.35,-69.61 -59.92,-85.46 -19.99,-13.44 -86.48,-63.97 -105.25,-63.11 -2.42,32.13 53.34,62.31 76.54,80.2 15.78,12.16 78.89,65.09 88.63,68.37z"/>
   <path class="fil3" style="mask:url(#id90)" d="M3059.7 4990.91c-7.12,-63.53 -15.85,-129.78 -33.39,-191.33 -8.02,-28.15 -21.74,-56.18 -28.64,-80.42 -0.79,39.82 22.95,145.91 30.79,191.61 5.43,31.69 11.04,63.54 16.27,95.28l11.71 70.05c3.04,17.24 -0.63,12.43 9.39,16.5 9.01,-12.07 -3.82,-81.04 -6.13,-101.69z"/>
   <path class="fil0" style="mask:url(#id92)" d="M2798.64 7170.18c39.6,24.31 59.26,23.73 91.47,63.2 28.76,35.26 38.04,68.45 46.48,112.35 51.97,-44.67 -70.86,-232.56 -137.95,-175.55z"/>
   <path class="fil0" style="mask:url(#id94)" d="M1278.98 4063.33c24.65,-3.55 28.89,-53.63 69.25,-34.82 25.63,11.94 65.1,44.02 81.86,1.89 -23.82,-20.04 -58.52,-38.95 -90.92,-37.17 -39.03,2.14 -72.94,28.24 -60.19,70.1z"/>
   <path class="fil0" style="mask:url(#id96)" d="M970.05 5432.77c25.97,-15.84 29.99,-153.54 -7.49,-167.24 -16.28,23.06 -24.93,147.86 7.49,167.24z"/>
   <path class="fil0" style="mask:url(#id98)" d="M3404.1 5178.75c2.24,26.7 9.85,56.64 43.8,52.45 12.39,-13.58 32.14,-85.6 31.25,-104.63l-12.97 -10.27 -62.08 62.45z"/>
   <path class="fil5" style="mask:url(#id100)" d="M502.2 4269.23c8.98,-50.82 -41.65,-223.48 -85.56,-245.45 5.21,23.79 76.92,234.29 85.56,245.45z"/>
   <path class="fil3" style="mask:url(#id102)" d="M3097.23 5036.1c5.97,-51.41 -23.08,-244.89 -61.05,-278.51 1.02,24.99 52.93,265.3 61.05,278.51z"/>
   <path class="fil0" style="mask:url(#id104)" d="M1092.2 5464.55c-2.9,20.84 27.39,85.39 40.76,101.68 55.32,-48.58 -4.92,-130.15 -40.76,-101.68z"/>
   <path class="fil5" style="mask:url(#id106)" d="M2014.62 4468.96c46.36,19.85 145.97,-62.73 168.81,-96.12 -21.1,7.53 -160.67,84.11 -168.81,96.12z"/>
   <path class="fil3" style="mask:url(#id108)" d="M3617.11 3839.97c30.61,-26.76 112.39,-170.74 100.74,-202.82 -17.84,10.8 -42,76.51 -52.94,99.68 -13.38,28.36 -40.11,75.37 -47.8,103.14z"/>
   <path class="fil5" style="mask:url(#id110)" d="M1319.05 3913.12c-6.79,-11.87 -38.91,-43.61 -59.13,-75.57 -31.72,-50.12 -31.13,-79.15 -41.48,-92.96 -30.22,60.46 49.69,148.31 100.61,168.53z"/>
   <path class="fil0" style="mask:url(#id112)" d="M876.91 5466.42l15.41 -3.26c5.58,-17.72 2.61,-41.17 2.88,-58.87 0.36,-23.76 5.83,-35.88 -8.97,-54.67 -29.63,10.86 -33.6,86.9 -9.32,116.8z"/>
   <path class="fil0" style="mask:url(#id114)" d="M1221.6 5431.46c-3.38,31.17 49.43,90.98 79.6,58.77 -3.87,-19.18 -60.03,-63.74 -67.24,-67.2l-12.36 8.43z"/>
   <path class="fil5" style="mask:url(#id116)" d="M1438.17 4230.42c-2.92,-41.37 -77.72,-96.61 -122.2,-85.14l122.2 85.14z"/>
   <path class="fil3" style="mask:url(#id118)" d="M690.99 2531.61l131.61 9.16c21.41,1.53 29.68,8.78 30.28,-11.38 -47.47,-1.93 -125.55,-29.56 -161.89,2.22z"/>
   <path class="fil0" style="mask:url(#id120)" d="M3243.46 5104.98c1.49,19.78 9.39,20.57 27.71,27.94 14.49,5.82 28.04,12.56 43.05,16.59 8.7,-10.15 14.47,-19.75 15.89,-32.41 -19.5,-5.14 -70.06,-20.39 -86.65,-12.12z"/>
   <path class="fil0" style="mask:url(#id122)" d="M968.31 5191.97l96.79 8.81 -14.04 -32.28c-30.97,-6.27 -65.29,-4.68 -82.75,23.47z"/>
   <path class="fil0" style="mask:url(#id124)" d="M1144.89 5380.67c-0.5,-25.18 -0.37,-60.81 -19.36,-77.09 -46.38,13.02 -20.82,66.24 19.36,77.09z"/>
   <path class="fil0" style="mask:url(#id126)" d="M3377.37 5606.74c37.66,-0.05 48.67,-52.13 -3.28,-76.15l3.28 76.15z"/>
   <path class="fil3" style="mask:url(#id128)" d="M3029.78 6465.67c12.28,-0.67 69.67,-97.06 71.59,-110.31 -12.25,0.12 -5.31,-10.67 -25.15,21.78 -5.87,9.61 -11.49,19.6 -17.6,29.03l-27.62 42.62c-9.61,18.2 -4.67,9.33 -1.22,16.88z"/>
   <path class="fil5" style="mask:url(#id130)" d="M1160.23 5253.02c14.65,-41.36 -11.75,-58.45 -50.12,-53.89 4.3,10.44 41.84,50.37 50.12,53.89z"/>
   <path class="fil3" style="mask:url(#id132)" d="M2045.11 5989.15c20.32,-28.18 6.43,-71.15 -19.19,-91.55 1.52,18.06 11.53,79.48 19.19,91.55z"/>
   <path class="fil4" style="mask:url(#id134)" d="M2565.13 1111.83l49.07 19.91 -6.36 -49.61c-14.8,6.16 -34.64,17.86 -42.71,29.7z"/>
   <path class="fil6" style="mask:url(#id136)" d="M1676.41 1264.25c6.17,-11.31 4.35,-8.81 -4.79,-23.37 -5.46,-8.71 -8.97,-16.25 -13.78,-25.05 -8.25,-15.11 -17.66,-40.34 -32.37,-46.46 4.94,19.56 36.23,85.15 50.94,94.88z"/>
   <path class="fil7" style="mask:url(#id138)" d="M1621.7 1126.06c3.27,-3.9 2.08,0.91 4.18,-7.01 0.82,-3.11 0.91,-6.94 1.42,-10.28 5.63,-37.11 15.18,-28.57 33.12,-38.39l-28.24 -7.69c-3.28,14.84 -24.08,55.62 -10.48,63.37z"/>
  </g>
 </g>
</svg>
